M48
; DRILL file {KiCad 9.0.2} date 2025-06-20T12:19:29+0300
; FORMAT={-:-/ absolute / inch / decimal}
; #@! TF.CreationDate,2025-06-20T12:19:29+03:00
; #@! TF.GenerationSoftware,Kicad,Pcbnew,9.0.2
; #@! TF.FileFunction,Plated,1,4,PTH
FMAT,2
INCH
; #@! TA.AperFunction,Plated,PTH,ViaDrill
T1C0.0118
; #@! TA.AperFunction,Plated,PTH,ComponentDrill
T2C0.0118
; #@! TA.AperFunction,Plated,PTH,ViaDrill
T3C0.0157
; #@! TA.AperFunction,Plated,PTH,ComponentDrill
T4C0.0197
; #@! TA.AperFunction,Plated,PTH,ViaDrill
T5C0.0236
; #@! TA.AperFunction,Plated,PTH,ComponentDrill
T6C0.0236
; #@! TA.AperFunction,Plated,PTH,ViaDrill
T7C0.0315
; #@! TA.AperFunction,Plated,PTH,ComponentDrill
T8C0.0394
; #@! TA.AperFunction,Plated,PTH,ComponentDrill
T9C0.0420
; #@! TA.AperFunction,Plated,PTH,ComponentDrill
T10C0.1181
%
G90
G05
T1
X3.2335Y-2.9098
X3.2437Y-2.9882
X3.2937Y-3.0146
X3.5028Y-3.1976
X3.5035Y-3.1697
X3.5047Y-3.2394
X3.5106Y-3.0642
X3.5118Y-3.2669
X3.5173Y-2.9043
X3.5173Y-2.9512
X3.5669Y-2.8583
X3.5787Y-5.2283
X3.5945Y-4.3465
X3.5945Y-4.4252
X3.5984Y-4.5039
X3.5984Y-4.6142
X3.6445Y-2.9177
X3.6575Y-4.6693
X3.6654Y-4.563
X3.6744Y-3.2106
X3.6839Y-5.3819
X3.7133Y-5.2846
X3.7142Y-5.2591
X3.7638Y-4.6535
X3.7953Y-2.7677
X3.8189Y-4.6163
X3.8346Y-4.5118
X3.8661Y-4.5512
X3.9283Y-3.1898
X3.9291Y-3.252
X3.9291Y-3.3228
X3.9291Y-3.3622
X3.9291Y-3.4094
X3.9449Y-4.5669
X3.9606Y-3.2677
X3.9764Y-3.3228
X3.9764Y-3.3622
X3.9764Y-3.4094
X3.9921Y-3.252
X4.0236Y-3.3228
X4.0236Y-3.3622
X4.0236Y-3.4094
X4.0276Y-3.2677
X4.0591Y-3.248
X4.122Y-5.4882
X4.1417Y-3.2441
X4.1575Y-2.7795
X4.1654Y-2.5866
X4.1732Y-2.6772
X4.1811Y-2.8386
X4.1811Y-3.2047
X4.189Y-3.2441
X4.189Y-3.315
X4.189Y-3.3622
X4.2205Y-3.3937
X4.252Y-3.3622
X4.4291Y-2.9331
X4.5748Y-3.248
X4.5827Y-4.4409
X4.5979Y-4.6035
X4.5979Y-4.6314
X4.5979Y-4.7102
X4.5979Y-4.7893
X4.5979Y-4.8381
X4.6274Y-4.3165
X4.716Y-4.811
X4.7244Y-3.1339
X4.748Y-3.1575
X4.7579Y-2.7366
X4.7734Y-2.6357
X4.7795Y-4.5433
X4.7795Y-4.5669
X4.7826Y-2.7626
X4.8071Y-2.7915
X4.8189Y-4.7992
X4.8189Y-4.8346
X4.8441Y-2.3516
X4.872Y-2.4213
X4.8874Y-2.372
X4.9134Y-3.9055
X4.9146Y-2.1693
X5.1048Y-4.1121
X5.1417Y-4.0787
T2
X3.5898Y-3.0547
X3.6291Y-3.0043
X3.6291Y-3.0547
X3.6291Y-3.1051
X3.6843Y-3.0043
X3.6843Y-3.0547
X3.6843Y-3.1051
X3.7394Y-3.0043
X3.7394Y-3.0547
X3.7394Y-3.1051
X3.7787Y-3.0547
X4.0418Y-4.5884
X4.0418Y-4.6955
X4.0418Y-4.738
X4.0437Y-4.4428
X4.0437Y-4.4656
X4.0988Y-4.5384
X4.0988Y-4.615
X4.1284Y-4.5097
X4.1284Y-4.5384
X4.1284Y-4.5766
X4.1284Y-4.615
X4.1284Y-4.6435
X4.1441Y-4.4428
X4.1441Y-4.4656
X4.1579Y-4.6955
X4.1579Y-4.738
X4.1717Y-4.4428
X4.1717Y-4.4656
X4.1874Y-4.5097
X4.1874Y-4.5384
X4.1874Y-4.5766
X4.1874Y-4.615
X4.1874Y-4.6435
X4.217Y-4.5381
X4.217Y-4.615
X4.2721Y-4.4428
X4.2721Y-4.4656
X4.274Y-4.5884
X4.274Y-4.6955
X4.274Y-4.738
T3
X3.3268Y-2.9984
X3.5354Y-3.4488
X3.5669Y-3.3622
X3.5827Y-2.7992
X3.6063Y-3.4449
X3.635Y-2.6484
X3.635Y-2.7272
X3.635Y-2.8039
X3.6358Y-2.6083
X3.6358Y-2.689
X3.6358Y-2.7657
X3.6488Y-5.2508
X3.685Y-2.6476
X3.685Y-2.7264
X3.685Y-2.8031
X3.6858Y-2.6075
X3.6858Y-2.6882
X3.6858Y-2.765
X3.7618Y-5.3531
X3.7622Y-4.9736
X3.7823Y-5.4193
X3.7823Y-5.5591
X3.8366Y-2.3701
X3.8583Y-4.4055
X3.8701Y-4.0276
X3.8701Y-4.0906
X3.8701Y-4.1535
X3.8701Y-4.2047
X3.878Y-2.9921
X3.8819Y-2.8346
X3.8819Y-4.2638
X3.8878Y-2.4055
X3.8886Y-5.4614
X3.8898Y-2.7677
X3.8976Y-3.1024
X3.9016Y-2.5551
X3.9094Y-4.3307
X3.9173Y-2.9496
X3.9331Y-4.2047
X3.9331Y-4.2559
X3.939Y-2.4291
X3.9409Y-2.3701
X3.9409Y-2.4921
X3.9449Y-4.374
X3.9563Y-2.9921
X3.9567Y-2.5886
X3.9567Y-2.8661
X3.9567Y-4.0276
X3.96Y-2.66
X3.9724Y-3.0984
X3.9764Y-2.7795
X3.9902Y-2.4724
X3.9902Y-2.5492
X3.9921Y-2.4055
X3.9961Y-4.7736
X3.9961Y-4.8524
X3.9961Y-4.9311
X4.0079Y-2.9567
X4.0276Y-3.0512
X4.0315Y-3.622
X4.0315Y-4.3898
X4.0354Y-3.7165
X4.0354Y-3.8091
X4.0354Y-3.8976
X4.0354Y-3.9882
X4.0354Y-4.813
X4.0354Y-4.8917
X4.06Y-3.0
X4.063Y-4.1969
X4.0709Y-3.0945
X4.0748Y-4.7736
X4.0748Y-4.8524
X4.0748Y-4.9311
X4.0807Y-3.6673
X4.0827Y-4.0374
X4.0827Y-4.126
X4.0827Y-4.3898
X4.0846Y-3.7618
X4.0846Y-3.8543
X4.0846Y-3.9409
X4.1102Y-4.2992
X4.1142Y-4.813
X4.115Y-4.8907
X4.12Y-2.98
X4.12Y-3.04
X4.1299Y-3.622
X4.1299Y-4.2283
X4.1319Y-4.0827
X4.1319Y-4.1693
X4.1339Y-3.7165
X4.1339Y-3.8091
X4.1339Y-3.8976
X4.1339Y-3.9882
X4.1457Y-4.3858
X4.1535Y-4.7736
X4.1539Y-4.8524
X4.1791Y-3.6673
X4.1811Y-4.0374
X4.1811Y-4.126
X4.1811Y-4.2165
X4.1831Y-3.7618
X4.1831Y-3.8543
X4.1831Y-3.9409
X4.185Y-4.2992
X4.1927Y-4.8907
X4.1929Y-4.813
X4.2008Y-4.3858
X4.2283Y-3.622
X4.2283Y-4.4016
X4.2303Y-4.0827
X4.2303Y-4.1693
X4.2323Y-3.7165
X4.2323Y-3.8091
X4.2323Y-3.8976
X4.2323Y-3.9882
X4.2323Y-4.7736
X4.2323Y-4.8524
X4.2323Y-4.9311
X4.2598Y-4.378
X4.2634Y-5.1645
X4.2717Y-4.813
X4.2717Y-4.8917
X4.2835Y-4.3543
X4.2835Y-4.4016
X4.311Y-4.7736
X4.311Y-4.8524
X4.311Y-4.9311
X4.3465Y-4.815
X4.3465Y-4.8937
X4.3858Y-4.7756
X4.3858Y-4.8543
X4.3858Y-4.9331
X4.4094Y-3.3031
X4.4094Y-3.376
X4.4094Y-3.4547
X4.4134Y-3.5394
X4.4252Y-4.815
X4.4252Y-4.8937
X4.4296Y-2.4114
X4.4488Y-4.2087
X4.4488Y-4.2795
X4.4488Y-4.3543
X4.46Y-3.54
X4.46Y-3.6
X4.46Y-3.66
X4.46Y-3.74
X4.46Y-3.8
X4.46Y-3.88
X4.46Y-3.94
X4.4646Y-4.1063
X4.4646Y-4.7756
X4.4649Y-4.8544
X4.4685Y-3.3819
X4.498Y-2.9724
X4.5039Y-4.815
X4.52Y-3.34
X4.52Y-3.42
X4.52Y-3.48
X4.52Y-3.54
X4.6142Y-4.5748
X4.6535Y-4.5582
X4.6657Y-4.3902
X4.6737Y-2.3543
X4.6957Y-2.1346
X4.7047Y-4.563
X4.748Y-3.8976
X4.8188Y-4.6034
X4.8205Y-4.4185
X4.8976Y-4.6614
X4.8976Y-4.7638
X4.9394Y-2.4606
X4.9916Y-3.972
X4.9921Y-4.1268
X5.0445Y-2.2083
X5.1057Y-4.2374
X5.1114Y-2.2083
X5.1624Y-4.237
X5.2085Y-4.2812
T4
X3.0888Y-5.6626
X3.0928Y-2.01
X3.1147Y-5.6
X3.1147Y-5.7253
X3.1188Y-1.9474
X3.1188Y-2.0726
X3.1774Y-5.5741
X3.1774Y-5.7512
X3.1814Y-1.9214
X3.1814Y-2.0986
X3.24Y-5.6
X3.24Y-5.7253
X3.2441Y-1.9474
X3.2441Y-2.0726
X3.2659Y-5.6626
X3.27Y-2.01
X5.0388Y-2.0126
X5.0414Y-5.6586
X5.0647Y-1.95
X5.0647Y-2.0753
X5.0674Y-5.5959
X5.0674Y-5.7212
X5.1274Y-1.9241
X5.1274Y-2.1012
X5.13Y-5.57
X5.13Y-5.7472
X5.19Y-1.95
X5.19Y-2.0753
X5.1926Y-5.5959
X5.1926Y-5.7212
X5.2159Y-2.0126
X5.2186Y-5.6586
T5
X3.1764Y-2.4035
X3.1764Y-2.7933
X3.1811Y-2.4567
X3.189Y-2.748
X3.2441Y-2.4567
X3.2441Y-2.748
X4.1181Y-5.6339
X4.5421Y-2.4236
X4.5882Y-2.7921
X4.6421Y-2.7933
X4.6614Y-3.685
X4.7029Y-2.7919
X4.9016Y-3.2972
X4.98Y-3.3
T7
X4.3024Y-2.4089
X4.3874Y-2.1724
T8
X3.4254Y-1.98
X3.4254Y-2.18
X3.4411Y-2.08
X3.4411Y-2.28
X3.9044Y-2.01
X4.0044Y-2.01
X4.1044Y-2.01
X4.2044Y-2.01
X4.3044Y-2.01
X4.4044Y-2.01
T9
X3.5284Y-5.6544
X3.6284Y-5.6544
X3.7284Y-5.6544
X3.8284Y-5.6544
T10
X3.1774Y-5.6626
X3.1814Y-2.01
X5.1274Y-2.0126
X5.13Y-5.6586
T6
G00X3.1256Y-3.1079
M15
G01X3.1571Y-3.1079
M16
G05
G00X3.1256Y-3.448
M15
G01X3.1571Y-3.448
M16
G05
G00X3.2843Y-3.1079
M15
G01X3.3276Y-3.1079
M16
G05
G00X3.2843Y-3.448
M15
G01X3.3276Y-3.448
M16
G05
M30
