%TF.GenerationSoftware,KiCad,Pcbnew,9.0.2*%
%TF.CreationDate,2025-06-20T12:19:23+03:00*%
%TF.ProjectId,BitshokaNiniV1.1,42697473-686f-46b6-914e-696e6956312e,rev?*%
%TF.SameCoordinates,Original*%
%TF.FileFunction,Copper,L4,Bot*%
%TF.FilePolarity,Positive*%
%FSLAX46Y46*%
G04 Gerber Fmt 4.6, Leading zero omitted, Abs format (unit mm)*
G04 Created by KiCad (PCBNEW 9.0.2) date 2025-06-20 12:19:23*
%MOMM*%
%LPD*%
G01*
G04 APERTURE LIST*
G04 Aperture macros list*
%AMRoundRect*
0 Rectangle with rounded corners*
0 $1 Rounding radius*
0 $2 $3 $4 $5 $6 $7 $8 $9 X,Y pos of 4 corners*
0 Add a 4 corners polygon primitive as box body*
4,1,4,$2,$3,$4,$5,$6,$7,$8,$9,$2,$3,0*
0 Add four circle primitives for the rounded corners*
1,1,$1+$1,$2,$3*
1,1,$1+$1,$4,$5*
1,1,$1+$1,$6,$7*
1,1,$1+$1,$8,$9*
0 Add four rect primitives between the rounded corners*
20,1,$1+$1,$2,$3,$4,$5,0*
20,1,$1+$1,$4,$5,$6,$7,0*
20,1,$1+$1,$6,$7,$8,$9,0*
20,1,$1+$1,$8,$9,$2,$3,0*%
G04 Aperture macros list end*
%TA.AperFunction,SMDPad,CuDef*%
%ADD10R,0.900000X0.900000*%
%TD*%
%TA.AperFunction,SMDPad,CuDef*%
%ADD11R,0.900000X1.500000*%
%TD*%
%TA.AperFunction,SMDPad,CuDef*%
%ADD12R,1.500000X0.900000*%
%TD*%
%TA.AperFunction,SMDPad,CuDef*%
%ADD13C,1.000000*%
%TD*%
%TA.AperFunction,SMDPad,CuDef*%
%ADD14R,2.000000X2.000000*%
%TD*%
%TA.AperFunction,ConnectorPad*%
%ADD15C,0.787400*%
%TD*%
%TA.AperFunction,SMDPad,CuDef*%
%ADD16RoundRect,0.150000X0.425000X-0.150000X0.425000X0.150000X-0.425000X0.150000X-0.425000X-0.150000X0*%
%TD*%
%TA.AperFunction,SMDPad,CuDef*%
%ADD17RoundRect,0.075000X0.500000X-0.075000X0.500000X0.075000X-0.500000X0.075000X-0.500000X-0.075000X0*%
%TD*%
%TA.AperFunction,ComponentPad*%
%ADD18O,2.100000X1.000000*%
%TD*%
%TA.AperFunction,ComponentPad*%
%ADD19O,1.800000X1.000000*%
%TD*%
%TA.AperFunction,ComponentPad*%
%ADD20C,1.574800*%
%TD*%
%TA.AperFunction,ComponentPad*%
%ADD21C,0.400000*%
%TD*%
%TA.AperFunction,ComponentPad*%
%ADD22C,0.800000*%
%TD*%
%TA.AperFunction,ComponentPad*%
%ADD23C,6.000000*%
%TD*%
%TA.AperFunction,ComponentPad*%
%ADD24R,1.700000X1.700000*%
%TD*%
%TA.AperFunction,ComponentPad*%
%ADD25C,1.700000*%
%TD*%
%TA.AperFunction,ComponentPad*%
%ADD26O,1.700000X1.700000*%
%TD*%
%TA.AperFunction,SMDPad,CuDef*%
%ADD27RoundRect,0.086550X0.274450X0.201950X-0.274450X0.201950X-0.274450X-0.201950X0.274450X-0.201950X0*%
%TD*%
%TA.AperFunction,SMDPad,CuDef*%
%ADD28RoundRect,0.216600X3.055400X0.505400X-3.055400X0.505400X-3.055400X-0.505400X3.055400X-0.505400X0*%
%TD*%
%TA.AperFunction,SMDPad,CuDef*%
%ADD29R,4.524000X4.863538*%
%TD*%
%TA.AperFunction,SMDPad,CuDef*%
%ADD30R,0.722000X5.050000*%
%TD*%
%TA.AperFunction,SMDPad,CuDef*%
%ADD31RoundRect,0.261600X3.010400X0.610400X-3.010400X0.610400X-3.010400X-0.610400X3.010400X-0.610400X0*%
%TD*%
%TA.AperFunction,SMDPad,CuDef*%
%ADD32R,0.900000X1.800000*%
%TD*%
%TA.AperFunction,SMDPad,CuDef*%
%ADD33RoundRect,0.150000X-0.150000X-0.625000X0.150000X-0.625000X0.150000X0.625000X-0.150000X0.625000X0*%
%TD*%
%TA.AperFunction,SMDPad,CuDef*%
%ADD34RoundRect,0.250000X-0.350000X-0.650000X0.350000X-0.650000X0.350000X0.650000X-0.350000X0.650000X0*%
%TD*%
%TA.AperFunction,ViaPad*%
%ADD35C,0.800000*%
%TD*%
%TA.AperFunction,ViaPad*%
%ADD36C,1.000000*%
%TD*%
%TA.AperFunction,ViaPad*%
%ADD37C,0.500000*%
%TD*%
%TA.AperFunction,ViaPad*%
%ADD38C,1.200000*%
%TD*%
%TA.AperFunction,Conductor*%
%ADD39C,0.508000*%
%TD*%
%TA.AperFunction,Conductor*%
%ADD40C,0.254000*%
%TD*%
%TA.AperFunction,Conductor*%
%ADD41C,1.000000*%
%TD*%
%TA.AperFunction,Conductor*%
%ADD42C,0.200000*%
%TD*%
G04 APERTURE END LIST*
D10*
%TO.P,U4,41,GND*%
%TO.N,GND*%
X116570000Y-72710000D03*
X117970000Y-72710000D03*
X119370000Y-72710000D03*
X116570000Y-74110000D03*
X117970000Y-74110000D03*
X119370000Y-74110000D03*
X116570000Y-75510000D03*
X117970000Y-75510000D03*
X119370000Y-75510000D03*
D11*
%TO.P,U4,40,GND*%
X125690000Y-63860000D03*
%TO.P,U4,39,GPIO1/TOUCH1/ADC1_CH0*%
%TO.N,/ESP_RST*%
X124420000Y-63860000D03*
%TO.P,U4,38,GPIO2/TOUCH2/ADC1_CH1*%
%TO.N,Net-(U4-GPIO2{slash}TOUCH2{slash}ADC1_CH1)*%
X123150000Y-63860000D03*
%TO.P,U4,37,U0TXD/GPIO43/CLK_OUT1*%
%TO.N,/ESP32/P_TX*%
X121880000Y-63860000D03*
%TO.P,U4,36,U0RXD/GPIO44/CLK_OUT2*%
%TO.N,/ESP32/P_RX*%
X120610000Y-63860000D03*
%TO.P,U4,35,MTMS/GPIO42*%
%TO.N,Net-(J4-Pin_6)*%
X119340000Y-63860000D03*
%TO.P,U4,34,MTDI/GPIO41/CLK_OUT1*%
%TO.N,Net-(J4-Pin_5)*%
X118070000Y-63860000D03*
%TO.P,U4,33,MTDO/GPIO40/CLK_OUT2*%
%TO.N,Net-(J4-Pin_4)*%
X116800000Y-63860000D03*
%TO.P,U4,32,MTCK/GPIO39/CLK_OUT3/SUBSPICS1*%
%TO.N,Net-(J4-Pin_3)*%
X115530000Y-63860000D03*
%TO.P,U4,31,GPIO38/FSPIWP/SUBSPIWP*%
%TO.N,unconnected-(U4-GPIO38{slash}FSPIWP{slash}SUBSPIWP-Pad31)*%
X114260000Y-63860000D03*
%TO.P,U4,30,SPIDQS/GPIO37/FSPIQ/SUBSPIQ*%
%TO.N,unconnected-(U4-SPIDQS{slash}GPIO37{slash}FSPIQ{slash}SUBSPIQ-Pad30)*%
X112990000Y-63860000D03*
%TO.P,U4,29,SPIIO7/GPIO36/FSPICLK/SUBSPICLK*%
%TO.N,unconnected-(U4-SPIIO7{slash}GPIO36{slash}FSPICLK{slash}SUBSPICLK-Pad29)*%
X111720000Y-63860000D03*
%TO.P,U4,28,SPIIO6/GPIO35/FSPID/SUBSPID*%
%TO.N,unconnected-(U4-SPIIO6{slash}GPIO35{slash}FSPID{slash}SUBSPID-Pad28)*%
X110450000Y-63860000D03*
%TO.P,U4,27,GPIO0/BOOT\u002A*%
%TO.N,/ESP32/IO0*%
X109180000Y-63860000D03*
D12*
%TO.P,U4,26,\u002AGPIO45*%
%TO.N,unconnected-(U4-\u002AGPIO45-Pad26)*%
X107930000Y-65625000D03*
%TO.P,U4,25,GPIO48/SPICLK_N/SUBSPICLK_N_DIFF*%
%TO.N,/SCL*%
X107930000Y-66895000D03*
%TO.P,U4,24,GPIO47/SPICLK_P/SUBSPICLK_P_DIFF*%
%TO.N,/SDA*%
X107930000Y-68165000D03*
%TO.P,U4,23,GPIO21*%
%TO.N,unconnected-(U4-GPIO21-Pad23)*%
X107930000Y-69435000D03*
%TO.P,U4,22,GPIO14/TOUCH14/ADC2_CH3/FSPIWP/FSPIDQS/SUBSPIWP*%
%TO.N,/ESP32/{slash}TPS_EN*%
X107930000Y-70705000D03*
%TO.P,U4,21,GPIO13/TOUCH13/ADC2_CH2/FSPIQ/FSPIIO7/SUBSPIQ*%
%TO.N,/Power/PMB_ALRT*%
X107930000Y-71975000D03*
%TO.P,U4,20,GPIO12/TOUCH12/ADC2_CH1/FSPICLK/FSPIIO6/SUBSPICLK*%
%TO.N,unconnected-(U4-GPIO12{slash}TOUCH12{slash}ADC2_CH1{slash}FSPICLK{slash}FSPIIO6{slash}SUBSPICLK-Pad20)*%
X107930000Y-73245000D03*
%TO.P,U4,19,GPIO11/TOUCH11/ADC2_CH0/FSPID/FSPIIO5/SUBSPID*%
%TO.N,/Power/PGOOD*%
X107930000Y-74515000D03*
%TO.P,U4,18,GPIO10/TOUCH10/ADC1_CH9/FSPICS0/FSPIIO4/SUBSPICS0*%
%TO.N,unconnected-(U4-GPIO10{slash}TOUCH10{slash}ADC1_CH9{slash}FSPICS0{slash}FSPIIO4{slash}SUBSPICS0-Pad18)*%
X107930000Y-75785000D03*
%TO.P,U4,17,GPIO9/TOUCH9/ADC1_CH8/FSPIHD/SUBSPIHD*%
%TO.N,unconnected-(U4-GPIO9{slash}TOUCH9{slash}ADC1_CH8{slash}FSPIHD{slash}SUBSPIHD-Pad17)*%
X107930000Y-77055000D03*
%TO.P,U4,16,\u002AGPIO46*%
%TO.N,unconnected-(U4-\u002AGPIO46-Pad16)*%
X107930000Y-78325000D03*
%TO.P,U4,15,GPIO3/TOUCH3/ADC1_CH2\u002A*%
%TO.N,/3V3*%
X107930000Y-79595000D03*
D11*
%TO.P,U4,14,GPIO20/U1CTS/ADC2_CH9/CLK_OUT1/USB_D+*%
%TO.N,/ESP32/USB_D+*%
X109180000Y-81360000D03*
%TO.P,U4,13,GPIO19/U1RTS/ADC2_CH8/CLK_OUT2/USB_D-*%
%TO.N,/ESP32/USB_D-*%
X110450000Y-81360000D03*
%TO.P,U4,12,GPIO8/TOUCH8/ADC1_CH7/SUBSPICS1*%
%TO.N,unconnected-(U4-GPIO8{slash}TOUCH8{slash}ADC1_CH7{slash}SUBSPICS1-Pad12)*%
X111720000Y-81360000D03*
%TO.P,U4,11,GPIO18/U1RXD/ADC2_CH7/CLK_OUT3*%
%TO.N,/ESP_RXD*%
X112990000Y-81360000D03*
%TO.P,U4,10,GPIO17/U1TXD/ADC2_CH6*%
%TO.N,/ESP_TXD*%
X114260000Y-81360000D03*
%TO.P,U4,9,GPIO16/U0CTS/ADC2_CH5/XTAL_32K_NH5*%
%TO.N,unconnected-(U4-GPIO16{slash}U0CTS{slash}ADC2_CH5{slash}XTAL_32K_NH5-Pad9)*%
X115530000Y-81360000D03*
%TO.P,U4,8,GPIO15/U0RTS/ADC2_CH4/XTAL_32K_P*%
%TO.N,unconnected-(U4-GPIO15{slash}U0RTS{slash}ADC2_CH4{slash}XTAL_32K_P-Pad8)*%
X116800000Y-81360000D03*
%TO.P,U4,7,GPIO7/TOUCH7/ADC1_CH6*%
%TO.N,unconnected-(U4-GPIO7{slash}TOUCH7{slash}ADC1_CH6-Pad7)*%
X118070000Y-81360000D03*
%TO.P,U4,6,GPIO6/TOUCH6/ADC1_CH5*%
%TO.N,unconnected-(U4-GPIO6{slash}TOUCH6{slash}ADC1_CH5-Pad6)*%
X119340000Y-81360000D03*
%TO.P,U4,5,GPIO5/TOUCH5/ADC1_CH4*%
%TO.N,unconnected-(U4-GPIO5{slash}TOUCH5{slash}ADC1_CH4-Pad5)*%
X120610000Y-81360000D03*
%TO.P,U4,4,GPIO4/TOUCH4/ADC1_CH3*%
%TO.N,unconnected-(U4-GPIO4{slash}TOUCH4{slash}ADC1_CH3-Pad4)*%
X121880000Y-81360000D03*
%TO.P,U4,3,EN*%
%TO.N,/ESP32/EN*%
X123150000Y-81360000D03*
%TO.P,U4,2,3V3*%
%TO.N,/3V3*%
X124420000Y-81360000D03*
%TO.P,U4,1,GND*%
%TO.N,GND*%
X125690000Y-81360000D03*
%TD*%
D13*
%TO.P,FID5,*%
%TO.N,*%
X125270000Y-50310000D03*
%TD*%
%TO.P,FID6,*%
%TO.N,*%
X78750000Y-55900000D03*
%TD*%
%TO.P,FID7,*%
%TO.N,*%
X132260000Y-139060000D03*
%TD*%
%TO.P,FID8,*%
%TO.N,*%
X78850000Y-139070000D03*
%TD*%
D14*
%TO.P,J1,1*%
%TO.N,/5V*%
X88530000Y-72120000D03*
X82330000Y-72120000D03*
%TO.P,J1,2*%
%TO.N,GND*%
X82330000Y-61120000D03*
%TO.P,J1,3*%
X88530000Y-61120000D03*
%TD*%
D15*
%TO.P,J2,1,Pin_1*%
%TO.N,/ESP32/EN*%
X129400000Y-58365000D03*
%TO.P,J2,2,Pin_2*%
%TO.N,/3V3*%
X129400000Y-57095000D03*
%TO.P,J2,3,Pin_3*%
%TO.N,/ESP32/P_TX*%
X128130000Y-58365000D03*
%TO.P,J2,4,Pin_4*%
%TO.N,GND*%
X128130000Y-57095000D03*
%TO.P,J2,5,Pin_5*%
%TO.N,/ESP32/P_RX*%
X126860000Y-58365000D03*
%TO.P,J2,6,Pin_6*%
%TO.N,/ESP32/IO0*%
X126860000Y-57095000D03*
%TD*%
D16*
%TO.P,J5,A1,GND*%
%TO.N,GND*%
X84545000Y-86460000D03*
%TO.P,J5,A4,VBUS*%
%TO.N,unconnected-(J5-VBUS-PadA4)*%
X84545000Y-85660000D03*
D17*
%TO.P,J5,A5,CC1*%
%TO.N,unconnected-(J5-CC1-PadA5)*%
X84545000Y-84510000D03*
%TO.P,J5,A6,D+*%
%TO.N,/ESP32/USB_D+*%
X84545000Y-83510000D03*
%TO.P,J5,A7,D-*%
%TO.N,/ESP32/USB_D-*%
X84545000Y-83010000D03*
%TO.P,J5,A8,SBU1*%
%TO.N,unconnected-(J5-SBU1-PadA8)*%
X84545000Y-82010000D03*
D16*
%TO.P,J5,B1,GND*%
%TO.N,GND*%
X84545000Y-80060000D03*
%TO.P,J5,B4,VBUS*%
%TO.N,unconnected-(J5-VBUS-PadB4)*%
X84545000Y-80860000D03*
D17*
%TO.P,J5,B5,CC2*%
%TO.N,unconnected-(J5-CC2-PadB5)*%
X84545000Y-81510000D03*
%TO.P,J5,B6,D+*%
%TO.N,/ESP32/USB_D+*%
X84545000Y-82510000D03*
%TO.P,J5,B7,D-*%
%TO.N,/ESP32/USB_D-*%
X84545000Y-84010000D03*
%TO.P,J5,B8,SBU2*%
%TO.N,unconnected-(J5-SBU2-PadB8)*%
X84545000Y-85010000D03*
D18*
%TO.P,J5,S1,SHIELD*%
%TO.N,GND*%
X83970000Y-87580000D03*
D19*
X79790000Y-87580000D03*
D18*
X83970000Y-78940000D03*
D19*
X79790000Y-78940000D03*
%TD*%
D20*
%TO.P,J6,1,Pin_1*%
%TO.N,GND*%
X89621000Y-143622000D03*
%TO.P,J6,2,Pin_2*%
%TO.N,/5V*%
X92161000Y-143622000D03*
%TO.P,J6,3,Pin_3*%
%TO.N,/Fan/FAN_TACH*%
X94701000Y-143622000D03*
%TO.P,J6,4,Pin_4*%
%TO.N,/Fan/FAN_PWM*%
X97241000Y-143622000D03*
%TD*%
D21*
%TO.P,U2,41,PAD*%
%TO.N,GND*%
X92180000Y-78870000D03*
X93580000Y-78870000D03*
X94980000Y-78870000D03*
X91180000Y-77590000D03*
X92180000Y-77590000D03*
X93580000Y-77590000D03*
X94980000Y-77590000D03*
X95980000Y-77590000D03*
X92180000Y-76310000D03*
X93580000Y-76310000D03*
X94980000Y-76310000D03*
%TD*%
D22*
%TO.P,H1,1,1*%
%TO.N,GND*%
X127985010Y-51120990D03*
X128644020Y-49530000D03*
X128644020Y-52711980D03*
X130235010Y-48870990D03*
D23*
X130235010Y-51120990D03*
D22*
X130235010Y-53370990D03*
X131826000Y-49530000D03*
X131826000Y-52711980D03*
X132485010Y-51120990D03*
%TD*%
%TO.P,H3,1,1*%
%TO.N,GND*%
X128052000Y-143728000D03*
X128711010Y-142137010D03*
X128711010Y-145318990D03*
X130302000Y-141478000D03*
D23*
X130302000Y-143728000D03*
D22*
X130302000Y-145978000D03*
X131892990Y-142137010D03*
X131892990Y-145318990D03*
X132552000Y-143728000D03*
%TD*%
D24*
%TO.P,J4,1,Pin_1*%
%TO.N,/5V*%
X99171505Y-51054000D03*
D25*
%TO.P,J4,2,Pin_2*%
%TO.N,GND*%
X101711505Y-51054000D03*
%TO.P,J4,3,Pin_3*%
%TO.N,Net-(J4-Pin_3)*%
X104251505Y-51054000D03*
%TO.P,J4,4,Pin_4*%
%TO.N,Net-(J4-Pin_4)*%
X106791505Y-51054000D03*
%TO.P,J4,5,Pin_5*%
%TO.N,Net-(J4-Pin_5)*%
X109331505Y-51054000D03*
%TO.P,J4,6,Pin_6*%
%TO.N,Net-(J4-Pin_6)*%
X111871505Y-51054000D03*
%TD*%
D22*
%TO.P,H4,1,1*%
%TO.N,GND*%
X78455010Y-143830990D03*
X79114020Y-142240000D03*
X79114020Y-145421980D03*
X80705010Y-141580990D03*
D23*
X80705010Y-143830990D03*
D22*
X80705010Y-146080990D03*
X82296000Y-142240000D03*
X82296000Y-145421980D03*
X82955010Y-143830990D03*
%TD*%
%TO.P,H2,1,1*%
%TO.N,GND*%
X78558000Y-51054000D03*
X79217010Y-49463010D03*
X79217010Y-52644990D03*
X80808000Y-48804000D03*
D23*
X80808000Y-51054000D03*
D22*
X80808000Y-53304000D03*
X82398990Y-49463010D03*
X82398990Y-52644990D03*
X83058000Y-51054000D03*
%TD*%
D25*
%TO.P,J3,1,Pin_1*%
%TO.N,GND*%
X87005000Y-50292000D03*
D26*
%TO.P,J3,2,Pin_2*%
%TO.N,/3V3*%
X87405000Y-52832000D03*
%TO.P,J3,3,Pin_3*%
%TO.N,/SCL*%
X87005000Y-55372000D03*
%TO.P,J3,4,Pin_4*%
%TO.N,/SDA*%
X87405000Y-57912000D03*
%TD*%
D27*
%TO.P,U8,1,CLK*%
%TO.N,/KF1950/CLKI*%
X109508562Y-113009000D03*
%TO.P,U8,2,TXD*%
%TO.N,/KF1950/TXD*%
X109508562Y-113795000D03*
%TO.P,U8,3,CTSI*%
%TO.N,/KF1950/CTSI_1V8*%
X109508562Y-114581000D03*
%TO.P,U8,4,RXD*%
%TO.N,Net-(R28-Pad2)*%
X109508562Y-115367000D03*
%TO.P,U8,5,RST*%
%TO.N,Net-(C27-Pad2)*%
X109508562Y-116153000D03*
%TO.P,U8,6,0.9V*%
%TO.N,Net-(C31-Pad1)*%
X109508562Y-116939000D03*
%TO.P,U8,7,1V8*%
%TO.N,/KF1950/1V8*%
X109508562Y-117725000D03*
%TO.P,U8,8,DIR*%
X109508562Y-118511000D03*
%TO.P,U8,9,GND*%
%TO.N,/KF1950/LDO_GND*%
X109508562Y-119297000D03*
%TO.P,U8,10,GND*%
X109508562Y-120083000D03*
%TO.P,U8,11,GND*%
X101712562Y-120083000D03*
%TO.P,U8,12,GND*%
%TO.N,Net-(DIR_LO1-Pad1)*%
X101712562Y-119297000D03*
%TO.P,U8,13,DIR*%
%TO.N,Net-(DIR_HI1-Pad1)*%
X101712562Y-118511000D03*
%TO.P,U8,14,1V8*%
%TO.N,Net-(R38-Pad1)*%
X101712562Y-117725000D03*
%TO.P,U8,15,0.9V*%
%TO.N,Net-(0.9V1-Pad1)*%
X101712562Y-116939000D03*
%TO.P,U8,16,RST*%
%TO.N,Net-(Q1-E)*%
X101712562Y-116153000D03*
%TO.P,U8,17,RXD*%
%TO.N,Net-(RXD2-Pad1)*%
X101712562Y-115367000D03*
%TO.P,U8,18,CTSI*%
%TO.N,Net-(CTSI1-Pad1)*%
X101712562Y-114581000D03*
%TO.P,U8,19,TXD*%
%TO.N,Net-(R38-Pad2)*%
X101712562Y-113795000D03*
%TO.P,U8,20,CLK*%
%TO.N,Net-(TXD2-Pad1)*%
X101712562Y-113009000D03*
D21*
%TO.P,U8,21,VDD*%
%TO.N,/VDD*%
X108510562Y-112846000D03*
X108510562Y-113426000D03*
X107110562Y-115268511D03*
X107110562Y-117221000D03*
X106360562Y-114546000D03*
X106360562Y-115274627D03*
X106360562Y-116246000D03*
X106360562Y-117221000D03*
X106360562Y-117946000D03*
X105960562Y-112846000D03*
X105960562Y-113426000D03*
D28*
X105610562Y-113146000D03*
D29*
X105610562Y-116232230D03*
D21*
X105260562Y-112846000D03*
X105260562Y-113426000D03*
X104860562Y-114546000D03*
X104860562Y-115274627D03*
X104860562Y-116246000D03*
X104860562Y-117221000D03*
X104860562Y-117946000D03*
X104110562Y-115274627D03*
X104110562Y-117221000D03*
X102710562Y-112846000D03*
X102710562Y-113426000D03*
%TO.P,U8,22,VSS*%
%TO.N,GND*%
X108560562Y-116546000D03*
X108560562Y-119266000D03*
X108560562Y-120346000D03*
D30*
X108521562Y-116640000D03*
D21*
X105610562Y-119266000D03*
D31*
X105610562Y-119806000D03*
D21*
X105610562Y-120346000D03*
D30*
X102699562Y-116640000D03*
D21*
X102660562Y-116546000D03*
X102660562Y-119266000D03*
X102660562Y-120346000D03*
%TD*%
D32*
%TO.P,SW1,1*%
%TO.N,GND*%
X132246000Y-104448000D03*
%TO.P,SW1,2*%
%TO.N,/ESP32/EN*%
X128136000Y-104448000D03*
%TD*%
%TO.P,SW2,1*%
%TO.N,GND*%
X132142000Y-113155000D03*
%TO.P,SW2,2*%
%TO.N,/ESP32/IO0*%
X128032000Y-113155000D03*
%TD*%
D33*
%TO.P,J7,1,Pin_1*%
%TO.N,GND*%
X102000000Y-141675000D03*
%TO.P,J7,2,Pin_2*%
%TO.N,/5V*%
X103000000Y-141675000D03*
%TO.P,J7,3,Pin_3*%
%TO.N,/Fan/FAN_TACH*%
X104000000Y-141675000D03*
%TO.P,J7,4,Pin_4*%
%TO.N,/Fan/FAN_PWM*%
X105000000Y-141675000D03*
D34*
%TO.P,J7,MP,MountPin*%
%TO.N,unconnected-(J7-MountPin-PadMP)*%
X100700000Y-144200000D03*
%TO.N,unconnected-(J7-MountPin-PadMP)_1*%
X106300000Y-144200000D03*
%TD*%
D35*
%TO.N,GND*%
X91000000Y-71100000D03*
X99300000Y-110000000D03*
X98600000Y-108300000D03*
X99900000Y-106800000D03*
X98300000Y-106800000D03*
X98300000Y-105500000D03*
X98300000Y-103900000D03*
X98300000Y-102300000D03*
X99900000Y-108100000D03*
X105500000Y-121250000D03*
X113284000Y-96520000D03*
X104521009Y-124222568D03*
X102500000Y-122250000D03*
X113284000Y-98552000D03*
X104500000Y-122250000D03*
X100050000Y-61700000D03*
X103400000Y-78600000D03*
X113284000Y-92964000D03*
X100900000Y-78700000D03*
X113284000Y-100076000D03*
%TO.N,/VDD*%
X104900000Y-107400000D03*
%TO.N,GND*%
X101350000Y-62800000D03*
X124400000Y-121000000D03*
X109500000Y-121250000D03*
X97450000Y-60200000D03*
X112000000Y-85750000D03*
X108500000Y-124250000D03*
X100500000Y-65750000D03*
D36*
X116540000Y-70920000D03*
D35*
X101500000Y-125250000D03*
X113400000Y-104300000D03*
X125460000Y-62500000D03*
X118510000Y-111510000D03*
X103500000Y-123250000D03*
X112400000Y-122300000D03*
X100200000Y-111100000D03*
X114400000Y-122300000D03*
D36*
X82400000Y-62400000D03*
D35*
X120600000Y-99000000D03*
X103500000Y-121250000D03*
X101400000Y-61100000D03*
X100100000Y-63300000D03*
X113000000Y-108700000D03*
X100100000Y-60200000D03*
X107500000Y-125250000D03*
X107500000Y-121250000D03*
X99000000Y-78800000D03*
X101800000Y-75100000D03*
X96070000Y-137650000D03*
X122440000Y-112230000D03*
X110400000Y-122300000D03*
X119270000Y-54220000D03*
X128130000Y-56090000D03*
D36*
X80680000Y-61050000D03*
X104600000Y-143100000D03*
D35*
X103124000Y-76200000D03*
X100584000Y-67564000D03*
X114808000Y-84836000D03*
X99100000Y-64900000D03*
X91600000Y-87500000D03*
X113500000Y-85900000D03*
X110400000Y-124300000D03*
X100500000Y-102300000D03*
X113409725Y-123302118D03*
X112100000Y-89900000D03*
X98750000Y-61100000D03*
X122397194Y-116927014D03*
X113000000Y-106900000D03*
X96070000Y-141200000D03*
X102300000Y-77500000D03*
X98000000Y-111900000D03*
X113284000Y-89916000D03*
D36*
X117910000Y-70950000D03*
D35*
X101500000Y-123250000D03*
X126799059Y-104821612D03*
D36*
X80800000Y-62400000D03*
D35*
X109500000Y-123250000D03*
X111400000Y-123300000D03*
X113284000Y-91440000D03*
X112000000Y-87750000D03*
X98600000Y-72000000D03*
X113284000Y-94996000D03*
X113400000Y-121300000D03*
X100490000Y-76000000D03*
X113000000Y-110600000D03*
X101000000Y-70600000D03*
X98500000Y-76000000D03*
X100500000Y-72800000D03*
X114808000Y-88392000D03*
X112000000Y-83900000D03*
X90600000Y-85400000D03*
X92680000Y-133370000D03*
X106495762Y-124222568D03*
X131125000Y-107620000D03*
X107500000Y-123250000D03*
X112512000Y-61250000D03*
X106500000Y-122250000D03*
X104648000Y-75692000D03*
X109500000Y-125250000D03*
X111400000Y-125300000D03*
D36*
X119454234Y-70914234D03*
D35*
X112400000Y-124300000D03*
X89800000Y-87600000D03*
X103500000Y-125250000D03*
X102500000Y-124250000D03*
D36*
X126492000Y-83820000D03*
D35*
X101350000Y-64750000D03*
X108500000Y-122250000D03*
%TO.N,/VDD*%
X102500000Y-101300000D03*
%TO.N,GND*%
X114808000Y-89916000D03*
X105509725Y-123252118D03*
X104648000Y-77216000D03*
X101500000Y-121250000D03*
X111400000Y-121300000D03*
X98800000Y-70300000D03*
X132297000Y-108743000D03*
X124400000Y-118400000D03*
X99500000Y-74920000D03*
X114808000Y-86868000D03*
%TO.N,/VDD*%
X102500000Y-96750000D03*
X103750000Y-100100000D03*
X106300000Y-109200000D03*
X105000000Y-99000000D03*
X106200000Y-104800000D03*
X106250000Y-95550000D03*
X106150000Y-93150000D03*
X108800000Y-110600000D03*
X107500000Y-101300000D03*
X108200000Y-111200000D03*
D37*
X102200000Y-86600000D03*
D35*
X117200000Y-116200000D03*
X84500000Y-76160000D03*
X119500000Y-115900000D03*
X107450000Y-103700000D03*
X107500000Y-96750000D03*
X102500000Y-99000000D03*
D37*
X106400000Y-82400000D03*
D35*
X107400000Y-111800000D03*
X106250000Y-100100000D03*
X103700000Y-104800000D03*
D37*
X106200000Y-81400000D03*
X100600000Y-83000000D03*
D35*
X107500000Y-99000000D03*
X103700000Y-111500000D03*
X103200000Y-106600000D03*
D37*
X102200000Y-85400000D03*
D35*
X103750000Y-97900000D03*
X106250000Y-97900000D03*
D37*
X99780000Y-81020000D03*
D35*
X107450000Y-105900000D03*
X106200000Y-107100000D03*
D37*
X101000000Y-84400000D03*
D35*
X104900000Y-92000000D03*
D37*
X103100000Y-82500000D03*
D35*
X103650000Y-93150000D03*
X103700000Y-102550000D03*
D37*
X101400000Y-82600000D03*
X99800000Y-85400000D03*
D35*
X106200000Y-102550000D03*
X107500000Y-94400000D03*
X105300000Y-111400000D03*
D37*
X99800000Y-82600000D03*
X101000000Y-85400000D03*
X102200000Y-84400000D03*
X106400000Y-84200000D03*
D35*
X108800000Y-111800000D03*
X104950000Y-103700000D03*
D37*
X99800000Y-86600000D03*
D35*
X105000000Y-101300000D03*
D37*
X106400000Y-85400000D03*
D35*
X107400000Y-92000000D03*
X106700000Y-111400000D03*
D37*
X107200000Y-86200000D03*
D35*
X105000000Y-96750000D03*
X103750000Y-95550000D03*
D37*
X97400000Y-114600000D03*
X99800000Y-84400000D03*
X116199410Y-82499410D03*
X102300000Y-83000000D03*
D35*
X118200000Y-115778889D03*
X104400000Y-109200000D03*
D37*
X108000000Y-85400000D03*
D35*
X102400000Y-92000000D03*
D37*
X105200000Y-82400000D03*
D35*
X105000000Y-94400000D03*
X102400000Y-111500000D03*
X104950000Y-105900000D03*
D37*
X101000000Y-86600000D03*
D35*
X102500000Y-94400000D03*
D37*
%TO.N,/ESP32/EN*%
X122101300Y-70905000D03*
X129663000Y-104448000D03*
D35*
%TO.N,/5V*%
X93620000Y-68280000D03*
D36*
X81000000Y-69800000D03*
D35*
X92350000Y-66250000D03*
X93600000Y-69250000D03*
X93600000Y-71200000D03*
X92350000Y-68300000D03*
D38*
X109280000Y-61185155D03*
D35*
X108290000Y-131179000D03*
X93600000Y-67250000D03*
X92350000Y-70250000D03*
D36*
X80680000Y-70950000D03*
D35*
X93620000Y-70230000D03*
X92330000Y-71220000D03*
X92330000Y-69270000D03*
X98770000Y-138720000D03*
X93620000Y-66230000D03*
X92330000Y-67270000D03*
D37*
X104700000Y-139400000D03*
D36*
X82400000Y-69800000D03*
D35*
%TO.N,/3V3*%
X129830000Y-56090000D03*
D36*
X124500000Y-83750000D03*
D35*
X114250000Y-75500000D03*
X95550000Y-135970000D03*
D38*
X111440000Y-55180000D03*
D36*
X118400000Y-93600000D03*
D35*
X126786590Y-100888410D03*
X118711400Y-59800000D03*
X129685000Y-107630000D03*
D36*
X115370000Y-61560000D03*
D35*
X95560000Y-126330000D03*
D37*
%TO.N,/SCL*%
X94317599Y-134229617D03*
X105800000Y-65700000D03*
X88970000Y-81220000D03*
%TO.N,/Fan/FAN_PWM*%
X90900000Y-132800000D03*
%TO.N,Net-(U2-BP1V5)*%
X89200000Y-82980000D03*
X83660000Y-76570000D03*
%TO.N,/ESP32/P_TX*%
X124140000Y-60250000D03*
%TO.N,/ESP32/P_RX*%
X123040000Y-59730000D03*
%TO.N,/ESP32/IO0*%
X121244400Y-66945600D03*
X124830000Y-55100000D03*
X130600000Y-103600000D03*
%TO.N,Net-(U2-VDD5)*%
X92570000Y-74110000D03*
X96400000Y-70300000D03*
%TO.N,/Power/PGOOD*%
X89020000Y-82280000D03*
X112500000Y-74500000D03*
%TO.N,Net-(C27-Pad2)*%
X116786590Y-119638410D03*
%TO.N,/SDA*%
X82130000Y-73910000D03*
X94340000Y-133580000D03*
X88990000Y-80510000D03*
X82390000Y-75900000D03*
X106000000Y-68000000D03*
%TO.N,/Power/AGND*%
X89340000Y-73770000D03*
X89170000Y-77830000D03*
X90600000Y-72600000D03*
X89340000Y-74960000D03*
%TO.N,/Power/PMB_ALRT*%
X106200000Y-72100000D03*
X93330000Y-81550000D03*
%TO.N,/Fan/FAN_TACH*%
X93570000Y-136700000D03*
%TO.N,Net-(C31-Pad1)*%
X119786590Y-122200000D03*
%TO.N,Net-(Q1-E)*%
X100200000Y-116000000D03*
%TO.N,Net-(R28-Pad2)*%
X116786590Y-117638410D03*
%TO.N,Net-(R38-Pad2)*%
X98200000Y-115600000D03*
%TO.N,Net-(R38-Pad1)*%
X97000000Y-117254133D03*
%TO.N,Net-(U4-GPIO2{slash}TOUCH2{slash}ADC1_CH1)*%
X120850000Y-69510000D03*
X123750000Y-61500000D03*
%TO.N,/KF1950/LDO_GND*%
X116786590Y-122888410D03*
X95600000Y-118200000D03*
%TO.N,/KF1950/1V8*%
X121400000Y-115400000D03*
X124800000Y-99200000D03*
X116786590Y-121649410D03*
X122400000Y-121900000D03*
X121400000Y-116000000D03*
X122400000Y-122800000D03*
%TO.N,/KF1950/TXD*%
X117536590Y-109638410D03*
%TO.N,/ESP_RXD*%
X120000000Y-79600000D03*
%TO.N,/KF1950/CTSI_1V8*%
X116786590Y-116929889D03*
%TO.N,/KF1950/CLKI*%
X116400000Y-112800000D03*
%TO.N,/ESP_TXD*%
X120600000Y-80200000D03*
%TO.N,/ESP_RST*%
X121476817Y-70170000D03*
%TO.N,/ESP32/{slash}TPS_EN*%
X105600000Y-70600000D03*
%TO.N,Net-(0.9V1-Pad1)*%
X93100000Y-115900000D03*
%TO.N,Net-(CTSI1-Pad1)*%
X91300000Y-112400000D03*
%TO.N,Net-(DIR_HI1-Pad1)*%
X91400000Y-117200000D03*
%TO.N,Net-(DIR_LO1-Pad1)*%
X92900000Y-118600000D03*
%TO.N,Net-(RXD2-Pad1)*%
X91400000Y-114400000D03*
%TO.N,Net-(TXD2-Pad1)*%
X91300000Y-110400000D03*
%TD*%
D39*
%TO.N,GND*%
X102930816Y-143100000D02*
X102000000Y-142169184D01*
D40*
X132345000Y-104448000D02*
X132345000Y-108695000D01*
X125460000Y-62500000D02*
X125690000Y-62730000D01*
D39*
X125690000Y-82480000D02*
X125690000Y-81360000D01*
X126492000Y-83820000D02*
X126492000Y-83282000D01*
D40*
X125690000Y-62730000D02*
X125690000Y-63860000D01*
X132241000Y-108799000D02*
X132297000Y-108743000D01*
D41*
X80680000Y-61050000D02*
X80750000Y-61120000D01*
D40*
X117910000Y-70950000D02*
X117970000Y-71010000D01*
D39*
X126492000Y-83282000D02*
X125690000Y-82480000D01*
D40*
X132345000Y-108695000D02*
X132297000Y-108743000D01*
D39*
X104600000Y-143100000D02*
X102930816Y-143100000D01*
X128130000Y-56090000D02*
X128130000Y-57095000D01*
D41*
X80750000Y-61120000D02*
X82330000Y-61120000D01*
D39*
X84545000Y-79515000D02*
X83970000Y-78940000D01*
X84545000Y-80060000D02*
X84545000Y-79515000D01*
D40*
X132241000Y-113155000D02*
X132241000Y-108799000D01*
D39*
X84545000Y-86460000D02*
X84545000Y-87005000D01*
X102000000Y-142169184D02*
X102000000Y-141675000D01*
D40*
X119454234Y-70914234D02*
X119370000Y-70998468D01*
D39*
X84545000Y-87005000D02*
X83970000Y-87580000D01*
D42*
%TO.N,/VDD*%
X92270000Y-81770000D02*
X93040000Y-81000000D01*
D40*
X97400000Y-114600000D02*
X97400000Y-113600000D01*
D39*
X105610562Y-113146000D02*
X105610562Y-112178400D01*
D42*
X99760000Y-81000000D02*
X99780000Y-81020000D01*
X87900000Y-80960000D02*
X88710000Y-81770000D01*
X84750000Y-76160000D02*
X87900000Y-79310000D01*
D40*
X98821600Y-112178400D02*
X105610562Y-112178400D01*
D42*
X84500000Y-76160000D02*
X84750000Y-76160000D01*
X87900000Y-79310000D02*
X87900000Y-80960000D01*
D40*
X97400000Y-113600000D02*
X98821600Y-112178400D01*
D42*
X88710000Y-81770000D02*
X92270000Y-81770000D01*
X93040000Y-81000000D02*
X99760000Y-81000000D01*
D40*
%TO.N,/ESP32/EN*%
X127675000Y-61485000D02*
X129400000Y-59760000D01*
X122101300Y-70898700D02*
X126540000Y-66460000D01*
X123160000Y-71963700D02*
X122101300Y-70905000D01*
X126540000Y-66460000D02*
X126540000Y-62620000D01*
X129400000Y-59760000D02*
X129400000Y-58365000D01*
X126540000Y-62620000D02*
X127675000Y-61485000D01*
X122101300Y-70905000D02*
X122101300Y-70898700D01*
X128136000Y-104448000D02*
X129663000Y-104448000D01*
X123160000Y-81133600D02*
X123160000Y-71963700D01*
D39*
%TO.N,/5V*%
X103000000Y-141675000D02*
X103000000Y-141100000D01*
X103000000Y-141100000D02*
X104700000Y-139400000D01*
D41*
X81160000Y-70950000D02*
X82330000Y-72120000D01*
X80680000Y-70950000D02*
X81160000Y-70950000D01*
D40*
%TO.N,/3V3*%
X112160000Y-77550000D02*
X110115000Y-79595000D01*
D39*
X129830000Y-56090000D02*
X129400000Y-56520000D01*
X129400000Y-56520000D02*
X129400000Y-57095000D01*
X124500000Y-82940000D02*
X124420000Y-82860000D01*
X124500000Y-83750000D02*
X124500000Y-82940000D01*
D40*
X112200000Y-77550000D02*
X112160000Y-77550000D01*
X110115000Y-79595000D02*
X107930000Y-79595000D01*
D39*
X124420000Y-82860000D02*
X124420000Y-81360000D01*
D40*
X114250000Y-75500000D02*
X112200000Y-77550000D01*
D42*
%TO.N,/SCL*%
X81430000Y-74660000D02*
X79560000Y-72790000D01*
D40*
X105800000Y-65700000D02*
X105800000Y-65810000D01*
D42*
X79560000Y-72790000D02*
X79560000Y-58130000D01*
X79560000Y-58130000D02*
X82318000Y-55372000D01*
D40*
X106885000Y-66895000D02*
X106610000Y-66620000D01*
D42*
X88970000Y-81220000D02*
X88360000Y-80610000D01*
X88360000Y-80610000D02*
X88360000Y-78750000D01*
X88360000Y-78750000D02*
X84270000Y-74660000D01*
X94027216Y-134520000D02*
X90490000Y-134520000D01*
X82318000Y-55372000D02*
X87005000Y-55372000D01*
D40*
X107930000Y-66895000D02*
X106885000Y-66895000D01*
X106610000Y-66620000D02*
X105800000Y-65810000D01*
D42*
X94317599Y-134229617D02*
X94027216Y-134520000D01*
X81890000Y-125920000D02*
X81890000Y-74660000D01*
D40*
X105800000Y-58639183D02*
X102532817Y-55372000D01*
X102532817Y-55372000D02*
X87355000Y-55372000D01*
D42*
X81890000Y-74660000D02*
X81430000Y-74660000D01*
X84270000Y-74660000D02*
X81890000Y-74660000D01*
X90490000Y-134520000D02*
X81890000Y-125920000D01*
D40*
X105800000Y-65810000D02*
X105800000Y-58639183D01*
D42*
%TO.N,/Fan/FAN_PWM*%
X105501600Y-138975074D02*
X99226526Y-132700000D01*
X99226526Y-132700000D02*
X91000000Y-132700000D01*
X105000000Y-141675000D02*
X105501600Y-141173400D01*
X91000000Y-132700000D02*
X90900000Y-132800000D01*
X105501600Y-141173400D02*
X105501600Y-138975074D01*
%TO.N,/ESP32/USB_D+*%
X85320000Y-82510000D02*
X85450000Y-82640000D01*
X103530000Y-83510000D02*
X104080000Y-82960000D01*
X84545000Y-82510000D02*
X85320000Y-82510000D01*
X104080000Y-82960000D02*
X109271632Y-82960000D01*
X84545000Y-83510000D02*
X85450000Y-83510000D01*
X109530000Y-82701632D02*
X109530000Y-81710000D01*
X109271632Y-82960000D02*
X109530000Y-82701632D01*
X109530000Y-81710000D02*
X109180000Y-81360000D01*
X85450000Y-83510000D02*
X103530000Y-83510000D01*
X85450000Y-82640000D02*
X85450000Y-83510000D01*
%TO.N,/ESP32/USB_D-*%
X110100000Y-82630000D02*
X110100000Y-81710000D01*
X84545000Y-84010000D02*
X85690000Y-84010000D01*
X110100000Y-81710000D02*
X110450000Y-81360000D01*
X83770000Y-83010000D02*
X83690000Y-83090000D01*
X104240000Y-83320000D02*
X109410000Y-83320000D01*
X83810000Y-84010000D02*
X84545000Y-84010000D01*
X83690000Y-83090000D02*
X83690000Y-83890000D01*
X83690000Y-83890000D02*
X83810000Y-84010000D01*
X84545000Y-83010000D02*
X83770000Y-83010000D01*
X85690000Y-84010000D02*
X85837600Y-83862400D01*
X103697600Y-83862400D02*
X104240000Y-83320000D01*
X85837600Y-83862400D02*
X103697600Y-83862400D01*
X109410000Y-83320000D02*
X110100000Y-82630000D01*
%TO.N,Net-(U2-BP1V5)*%
X87420000Y-79290000D02*
X85030000Y-76900000D01*
X88880000Y-82980000D02*
X87420000Y-81520000D01*
X89200000Y-82980000D02*
X88880000Y-82980000D01*
X87420000Y-81520000D02*
X87420000Y-79290000D01*
X85030000Y-76900000D02*
X83990000Y-76900000D01*
X83990000Y-76900000D02*
X83660000Y-76570000D01*
D40*
%TO.N,/ESP32/P_TX*%
X126250000Y-60250000D02*
X128145000Y-58355000D01*
X121880000Y-62510000D02*
X121880000Y-63860000D01*
X124140000Y-60250000D02*
X126250000Y-60250000D01*
X124140000Y-60250000D02*
X121880000Y-62510000D01*
X128145000Y-58355000D02*
X128230000Y-58355000D01*
%TO.N,/ESP32/P_RX*%
X123040000Y-59730000D02*
X120610000Y-62160000D01*
X123040000Y-59730000D02*
X125050000Y-57720000D01*
X126325000Y-57720000D02*
X126960000Y-58355000D01*
X125050000Y-57720000D02*
X126325000Y-57720000D01*
X120610000Y-62160000D02*
X120610000Y-63860000D01*
%TO.N,/ESP32/IO0*%
X130495400Y-105304600D02*
X130495400Y-107750000D01*
X126830000Y-56955000D02*
X126960000Y-57085000D01*
D42*
X109180000Y-63860000D02*
X109180000Y-65190000D01*
X128032000Y-110218000D02*
X130500000Y-107750000D01*
X109180000Y-65190000D02*
X110935600Y-66945600D01*
D40*
X126310000Y-55100000D02*
X126830000Y-55620000D01*
X124830000Y-55100000D02*
X126310000Y-55100000D01*
D42*
X110935600Y-66945600D02*
X121244400Y-66945600D01*
D40*
X126830000Y-55620000D02*
X126830000Y-56955000D01*
D42*
X128032000Y-113155000D02*
X128032000Y-110218000D01*
D40*
X130600000Y-105200000D02*
X130495400Y-105304600D01*
X130600000Y-103600000D02*
X130600000Y-105200000D01*
%TO.N,Net-(U2-VDD5)*%
X92590000Y-74110000D02*
X92570000Y-74110000D01*
X96400000Y-70300000D02*
X92590000Y-74110000D01*
D42*
X92630000Y-74170000D02*
X92570000Y-74110000D01*
%TO.N,/Power/PGOOD*%
X106610000Y-80190000D02*
X106610000Y-74840000D01*
X106610000Y-74840000D02*
X106935000Y-74515000D01*
X112485000Y-74515000D02*
X107930000Y-74515000D01*
X93720000Y-81950000D02*
X104850000Y-81950000D01*
X93390000Y-82280000D02*
X93720000Y-81950000D01*
X106935000Y-74515000D02*
X107930000Y-74515000D01*
X112500000Y-74500000D02*
X112485000Y-74515000D01*
X89020000Y-82280000D02*
X93390000Y-82280000D01*
X104850000Y-81950000D02*
X106610000Y-80190000D01*
%TO.N,Net-(C27-Pad2)*%
X109508562Y-116153000D02*
X113301180Y-116153000D01*
X113301180Y-116153000D02*
X116786590Y-119638410D01*
%TO.N,/SDA*%
X90650000Y-134200000D02*
X82230000Y-125780000D01*
D40*
X107765000Y-68000000D02*
X107930000Y-68165000D01*
D42*
X93280000Y-134200000D02*
X90650000Y-134200000D01*
X82130000Y-73910000D02*
X82130000Y-74280000D01*
X88990000Y-80510000D02*
X88670000Y-80190000D01*
X82230000Y-125780000D02*
X82230000Y-76060000D01*
D40*
X105100000Y-67100000D02*
X106000000Y-68000000D01*
D42*
X93900000Y-133580000D02*
X93280000Y-134200000D01*
X88670000Y-80190000D02*
X88670000Y-78633474D01*
X82230000Y-76060000D02*
X82390000Y-75900000D01*
X81540000Y-74320000D02*
X79861600Y-72641600D01*
D40*
X87055000Y-57912000D02*
X87087000Y-57880000D01*
D42*
X81298000Y-57912000D02*
X87405000Y-57912000D01*
X82130000Y-74280000D02*
X82090000Y-74320000D01*
X94340000Y-133580000D02*
X93900000Y-133580000D01*
X82090000Y-74320000D02*
X81540000Y-74320000D01*
D40*
X87087000Y-57880000D02*
X104300000Y-57880000D01*
D42*
X88670000Y-78633474D02*
X84356526Y-74320000D01*
X79861600Y-72641600D02*
X79861600Y-59348400D01*
X82491600Y-75900000D02*
X82390000Y-75900000D01*
D40*
X104300000Y-57880000D02*
X105100000Y-58680000D01*
D42*
X84356526Y-74320000D02*
X82090000Y-74320000D01*
X79861600Y-59348400D02*
X81298000Y-57912000D01*
D40*
X105100000Y-58680000D02*
X105100000Y-67100000D01*
X106000000Y-68000000D02*
X107765000Y-68000000D01*
%TO.N,Net-(J4-Pin_3)*%
X115530000Y-63020000D02*
X116380000Y-62170000D01*
X112780000Y-54210000D02*
X107407505Y-54210000D01*
X115530000Y-63860000D02*
X115530000Y-63020000D01*
X107407505Y-54210000D02*
X104251505Y-51054000D01*
X116380000Y-62170000D02*
X116380000Y-57810000D01*
X116380000Y-57810000D02*
X112780000Y-54210000D01*
%TO.N,Net-(J4-Pin_6)*%
X119340000Y-63860000D02*
X119340000Y-55550000D01*
X119340000Y-55550000D02*
X114844000Y-51054000D01*
X114844000Y-51054000D02*
X111871505Y-51054000D01*
%TO.N,Net-(J4-Pin_5)*%
X110777505Y-52500000D02*
X109331505Y-51054000D01*
X118070000Y-63860000D02*
X118070000Y-56010000D01*
X114560000Y-52500000D02*
X110777505Y-52500000D01*
X118070000Y-56010000D02*
X114560000Y-52500000D01*
%TO.N,Net-(J4-Pin_4)*%
X113650000Y-53350000D02*
X109087505Y-53350000D01*
X116800000Y-63860000D02*
X116800000Y-62820000D01*
X117220000Y-56920000D02*
X113650000Y-53350000D01*
X116800000Y-62820000D02*
X117220000Y-62400000D01*
X109087505Y-53350000D02*
X106791505Y-51054000D01*
X117220000Y-62400000D02*
X117220000Y-56920000D01*
D42*
%TO.N,/Power/AGND*%
X89340000Y-74960000D02*
X89340000Y-77660000D01*
X90600000Y-72600000D02*
X89430000Y-73770000D01*
X89340000Y-77660000D02*
X89170000Y-77830000D01*
X89340000Y-73770000D02*
X89340000Y-74960000D01*
X89430000Y-73770000D02*
X89340000Y-73770000D01*
%TO.N,/Power/PMB_ALRT*%
X93330000Y-81550000D02*
X104720000Y-81550000D01*
X104720000Y-81550000D02*
X106230000Y-80040000D01*
X106230000Y-72130000D02*
X106200000Y-72100000D01*
X106230000Y-80040000D02*
X106230000Y-72130000D01*
D40*
X107805000Y-72100000D02*
X107930000Y-71975000D01*
X106200000Y-72100000D02*
X107805000Y-72100000D01*
D42*
%TO.N,/Fan/FAN_TACH*%
X105200000Y-140198606D02*
X104000000Y-141398606D01*
X93918400Y-137048400D02*
X103148400Y-137048400D01*
X105200000Y-139100000D02*
X105200000Y-140198606D01*
X103148400Y-137048400D02*
X105200000Y-139100000D01*
X104000000Y-141398606D02*
X104000000Y-141675000D01*
X93570000Y-136700000D02*
X93918400Y-137048400D01*
%TO.N,Net-(C31-Pad1)*%
X113201000Y-117001000D02*
X109570562Y-117001000D01*
X119786590Y-122200000D02*
X118400000Y-122200000D01*
X109570562Y-117001000D02*
X109508562Y-116939000D01*
X118400000Y-122200000D02*
X113201000Y-117001000D01*
D40*
%TO.N,Net-(Q1-E)*%
X101559562Y-116000000D02*
X101712562Y-116153000D01*
X100200000Y-116000000D02*
X101559562Y-116000000D01*
D42*
%TO.N,Net-(R28-Pad2)*%
X114515180Y-115367000D02*
X116786590Y-117638410D01*
X109508562Y-115367000D02*
X114515180Y-115367000D01*
D40*
%TO.N,Net-(R38-Pad2)*%
X98300000Y-115600000D02*
X98200000Y-115600000D01*
X100105000Y-113795000D02*
X98300000Y-115600000D01*
X101712562Y-113795000D02*
X100105000Y-113795000D01*
%TO.N,Net-(R38-Pad1)*%
X97000000Y-117254133D02*
X97000000Y-117300000D01*
X97425000Y-117725000D02*
X101712562Y-117725000D01*
X97000000Y-117300000D02*
X97425000Y-117725000D01*
%TO.N,Net-(U4-GPIO2{slash}TOUCH2{slash}ADC1_CH1)*%
X123150000Y-63860000D02*
X123150000Y-62100000D01*
X120870000Y-69510000D02*
X123150000Y-67230000D01*
X123150000Y-62100000D02*
X123750000Y-61500000D01*
X123150000Y-67230000D02*
X123150000Y-63860000D01*
X120850000Y-69510000D02*
X120870000Y-69510000D01*
D39*
%TO.N,/KF1950/LDO_GND*%
X100000000Y-126200000D02*
X101000000Y-127200000D01*
X113195180Y-119297000D02*
X116786590Y-122888410D01*
X109508562Y-120083000D02*
X112409180Y-120083000D01*
X112409180Y-120083000D02*
X113195180Y-119297000D01*
X101000000Y-127200000D02*
X112475000Y-127200000D01*
X97483000Y-120083000D02*
X95600000Y-118200000D01*
X101712562Y-120083000D02*
X100000000Y-120083000D01*
X100000000Y-120083000D02*
X100000000Y-126200000D01*
X100000000Y-120083000D02*
X97483000Y-120083000D01*
X112475000Y-127200000D02*
X116786590Y-122888410D01*
X109508562Y-119297000D02*
X113195180Y-119297000D01*
%TO.N,/KF1950/1V8*%
X113648180Y-118511000D02*
X116786590Y-121649410D01*
X109508562Y-117725000D02*
X112862180Y-117725000D01*
X112862180Y-117725000D02*
X113648180Y-118511000D01*
X109508562Y-118511000D02*
X113648180Y-118511000D01*
D42*
%TO.N,/KF1950/TXD*%
X116205000Y-113795000D02*
X117536590Y-112463410D01*
X117536590Y-112463410D02*
X117536590Y-109638410D01*
X109508562Y-113795000D02*
X116205000Y-113795000D01*
D40*
%TO.N,/ESP_RXD*%
X112990000Y-81010000D02*
X112990000Y-81360000D01*
X119600000Y-79600000D02*
X119200000Y-80000000D01*
X120000000Y-79600000D02*
X119600000Y-79600000D01*
X114000000Y-80000000D02*
X112990000Y-81010000D01*
X119200000Y-80000000D02*
X114000000Y-80000000D01*
D42*
%TO.N,/KF1950/CTSI_1V8*%
X114437701Y-114581000D02*
X116786590Y-116929889D01*
X109508562Y-114581000D02*
X114437701Y-114581000D01*
%TO.N,/KF1950/CLKI*%
X115125000Y-112800000D02*
X114925000Y-113000000D01*
X110741000Y-113009000D02*
X109508562Y-113009000D01*
X110750000Y-113000000D02*
X110741000Y-113009000D01*
X114925000Y-113000000D02*
X110750000Y-113000000D01*
X116400000Y-112800000D02*
X115125000Y-112800000D01*
D40*
%TO.N,/ESP_TXD*%
X120600000Y-80200000D02*
X119710800Y-80200000D01*
X114850000Y-80400000D02*
X114260000Y-80990000D01*
X119530400Y-80380400D02*
X114850400Y-80380400D01*
X114850400Y-80400000D02*
X114850000Y-80400000D01*
X119710800Y-80200000D02*
X119530400Y-80380400D01*
X114850400Y-80380400D02*
X114850400Y-80400000D01*
X114260000Y-80990000D02*
X114260000Y-81360000D01*
%TO.N,/ESP_RST*%
X121476817Y-70170000D02*
X124420000Y-67226817D01*
X124420000Y-67226817D02*
X124420000Y-63860000D01*
%TO.N,/ESP32/{slash}TPS_EN*%
X107930000Y-70705000D02*
X105705000Y-70705000D01*
X105705000Y-70705000D02*
X105600000Y-70600000D01*
D42*
%TO.N,Net-(0.9V1-Pad1)*%
X93800000Y-115900000D02*
X94653133Y-116753133D01*
X93100000Y-115900000D02*
X93800000Y-115900000D01*
X99362639Y-116945882D02*
X101705680Y-116945882D01*
X97400270Y-116945882D02*
X99362639Y-116945882D01*
X97207521Y-116753133D02*
X97400270Y-116945882D01*
X101705680Y-116945882D02*
X101712562Y-116939000D01*
X94653133Y-116753133D02*
X97207521Y-116753133D01*
%TO.N,Net-(CTSI1-Pad1)*%
X97469385Y-116120933D02*
X98779067Y-116120933D01*
X97287350Y-116120933D02*
X97469383Y-116120931D01*
X98779067Y-116120933D02*
X100300000Y-114600000D01*
X96420933Y-116120933D02*
X97287350Y-116120933D01*
X97469383Y-116120931D02*
X97469385Y-116120933D01*
X100300000Y-114600000D02*
X101693562Y-114600000D01*
X101693562Y-114600000D02*
X101712562Y-114581000D01*
X92700000Y-112400000D02*
X96420933Y-116120933D01*
X91300000Y-112400000D02*
X92700000Y-112400000D01*
%TO.N,Net-(DIR_HI1-Pad1)*%
X97036462Y-118500000D02*
X101701562Y-118500000D01*
X95736462Y-117200000D02*
X97036462Y-118500000D01*
X91400000Y-117200000D02*
X95736462Y-117200000D01*
X101701562Y-118500000D02*
X101712562Y-118511000D01*
%TO.N,Net-(DIR_LO1-Pad1)*%
X93801000Y-117699000D02*
X95807521Y-117699000D01*
X95807521Y-117699000D02*
X97408521Y-119300000D01*
X101709562Y-119300000D02*
X101712562Y-119297000D01*
X97408521Y-119300000D02*
X101709562Y-119300000D01*
X92900000Y-118600000D02*
X93801000Y-117699000D01*
%TO.N,Net-(RXD2-Pad1)*%
X91400000Y-114400000D02*
X93800000Y-114400000D01*
X100124479Y-115367000D02*
X101712562Y-115367000D01*
X99040946Y-116450533D02*
X100124479Y-115367000D01*
X93800000Y-114400000D02*
X95850533Y-116450533D01*
X95850533Y-116450533D02*
X99040946Y-116450533D01*
%TO.N,Net-(TXD2-Pad1)*%
X100800000Y-113000000D02*
X99708521Y-113000000D01*
X96200000Y-115300000D02*
X91300000Y-110400000D01*
X100809000Y-113009000D02*
X100800000Y-113000000D01*
X99708521Y-113000000D02*
X97408521Y-115300000D01*
X101712562Y-113009000D02*
X100809000Y-113009000D01*
X97408521Y-115300000D02*
X96200000Y-115300000D01*
%TD*%
%TA.AperFunction,Conductor*%
%TO.N,GND*%
G36*
X92497925Y-74505315D02*
G01*
X92517273Y-74510500D01*
X92622727Y-74510500D01*
X92641108Y-74505574D01*
X105904124Y-74529573D01*
X105971128Y-74549379D01*
X106016787Y-74602266D01*
X106027900Y-74653573D01*
X106027900Y-79904924D01*
X106008215Y-79971963D01*
X105991581Y-79992605D01*
X104903127Y-81081058D01*
X104841804Y-81114543D01*
X104815222Y-81117377D01*
X100304276Y-81109243D01*
X100237273Y-81089437D01*
X100191613Y-81036551D01*
X100180500Y-80985243D01*
X100180500Y-80967275D01*
X100180500Y-80967273D01*
X100153207Y-80865413D01*
X100100480Y-80774087D01*
X100025913Y-80699520D01*
X99934587Y-80646793D01*
X99832727Y-80619500D01*
X99727273Y-80619500D01*
X99625413Y-80646793D01*
X99625410Y-80646794D01*
X99534085Y-80699521D01*
X99472026Y-80761581D01*
X99410703Y-80795066D01*
X99384345Y-80797900D01*
X92999800Y-80797900D01*
X92987056Y-80803178D01*
X92956287Y-80815922D01*
X92956287Y-80815923D01*
X92936884Y-80823960D01*
X92925516Y-80828669D01*
X92695137Y-81059048D01*
X92633814Y-81092533D01*
X92607232Y-81095367D01*
X89752468Y-81090220D01*
X89685465Y-81070414D01*
X89639805Y-81017528D01*
X89628699Y-80967537D01*
X89627089Y-80815923D01*
X89569029Y-75350045D01*
X89587999Y-75282805D01*
X89605332Y-75261060D01*
X89660480Y-75205913D01*
X89713207Y-75114587D01*
X89740500Y-75012727D01*
X89740500Y-74907273D01*
X89713207Y-74805413D01*
X89660480Y-74714087D01*
X89658411Y-74712018D01*
X89657222Y-74709841D01*
X89655531Y-74707637D01*
X89655874Y-74707373D01*
X89624926Y-74650695D01*
X89629910Y-74581003D01*
X89671782Y-74525070D01*
X89737246Y-74500653D01*
X89746312Y-74500337D01*
X92497925Y-74505315D01*
G37*
%TD.AperFunction*%
%TD*%
%TA.AperFunction,Conductor*%
%TO.N,GND*%
G36*
X114010255Y-120619685D02*
G01*
X114030897Y-120636319D01*
X115363681Y-121969103D01*
X115397166Y-122030426D01*
X115400000Y-122056784D01*
X115400000Y-123720036D01*
X115380315Y-123787075D01*
X115363681Y-123807717D01*
X113207717Y-125963681D01*
X113146394Y-125997166D01*
X113120036Y-126000000D01*
X101124000Y-126000000D01*
X101056961Y-125980315D01*
X101011206Y-125927511D01*
X101000000Y-125876000D01*
X101000000Y-120724000D01*
X101019685Y-120656961D01*
X101072489Y-120611206D01*
X101124000Y-120600000D01*
X113943216Y-120600000D01*
X114010255Y-120619685D01*
G37*
%TD.AperFunction*%
%TD*%
%TA.AperFunction,Conductor*%
%TO.N,GND*%
G36*
X119916378Y-70319418D02*
G01*
X119983324Y-70339418D01*
X120028830Y-70392437D01*
X120039794Y-70443623D01*
X120037810Y-71640434D01*
X120018014Y-71707440D01*
X119965134Y-71753108D01*
X119900557Y-71763518D01*
X119867833Y-71760000D01*
X119620000Y-71760000D01*
X119620000Y-75386000D01*
X119600315Y-75453039D01*
X119547511Y-75498794D01*
X119496000Y-75510000D01*
X119370000Y-75510000D01*
X119370000Y-75636000D01*
X119350315Y-75703039D01*
X119297511Y-75748794D01*
X119246000Y-75760000D01*
X116694000Y-75760000D01*
X116626961Y-75740315D01*
X116581206Y-75687511D01*
X116570000Y-75636000D01*
X116570000Y-75510000D01*
X116444000Y-75510000D01*
X116376961Y-75490315D01*
X116331206Y-75437511D01*
X116320000Y-75386000D01*
X116320000Y-75260000D01*
X116820000Y-75260000D01*
X117720000Y-75260000D01*
X118220000Y-75260000D01*
X119120000Y-75260000D01*
X119120000Y-74360000D01*
X118220000Y-74360000D01*
X118220000Y-75260000D01*
X117720000Y-75260000D01*
X117720000Y-74360000D01*
X116820000Y-74360000D01*
X116820000Y-75260000D01*
X116320000Y-75260000D01*
X116320000Y-73860000D01*
X116820000Y-73860000D01*
X117720000Y-73860000D01*
X118220000Y-73860000D01*
X119120000Y-73860000D01*
X119120000Y-72960000D01*
X118220000Y-72960000D01*
X118220000Y-73860000D01*
X117720000Y-73860000D01*
X117720000Y-72960000D01*
X116820000Y-72960000D01*
X116820000Y-73860000D01*
X116320000Y-73860000D01*
X116320000Y-72460000D01*
X116820000Y-72460000D01*
X117720000Y-72460000D01*
X118220000Y-72460000D01*
X119120000Y-72460000D01*
X119120000Y-71760000D01*
X118872155Y-71760000D01*
X118812627Y-71766401D01*
X118812616Y-71766403D01*
X118713332Y-71803434D01*
X118643640Y-71808418D01*
X118626668Y-71803434D01*
X118527383Y-71766403D01*
X118527372Y-71766401D01*
X118467844Y-71760000D01*
X118220000Y-71760000D01*
X118220000Y-72460000D01*
X117720000Y-72460000D01*
X117720000Y-71760000D01*
X117472155Y-71760000D01*
X117412627Y-71766401D01*
X117412616Y-71766403D01*
X117313332Y-71803434D01*
X117243640Y-71808418D01*
X117226668Y-71803434D01*
X117127383Y-71766403D01*
X117127372Y-71766401D01*
X117067844Y-71760000D01*
X116820000Y-71760000D01*
X116820000Y-72460000D01*
X116320000Y-72460000D01*
X116320000Y-71760000D01*
X116072155Y-71760000D01*
X116012627Y-71766401D01*
X116012621Y-71766402D01*
X115955052Y-71787874D01*
X115885361Y-71792857D01*
X115824038Y-71759371D01*
X115790554Y-71698047D01*
X115787721Y-71671492D01*
X115789793Y-70424376D01*
X115809589Y-70357371D01*
X115862469Y-70311704D01*
X115914375Y-70300585D01*
X119916378Y-70319418D01*
G37*
%TD.AperFunction*%
%TD*%
%TA.AperFunction,Conductor*%
%TO.N,/5V*%
G36*
X94532607Y-65409727D02*
G01*
X94578402Y-65462497D01*
X94589645Y-65514446D01*
X94580000Y-68899823D01*
X94580000Y-71744640D01*
X94560315Y-71811679D01*
X94543681Y-71832321D01*
X94055549Y-72320452D01*
X93994226Y-72353937D01*
X93967214Y-72356769D01*
X90958010Y-72340907D01*
X90891076Y-72320870D01*
X90870983Y-72304590D01*
X90845914Y-72279521D01*
X90845913Y-72279520D01*
X90754587Y-72226793D01*
X90652727Y-72199500D01*
X90547273Y-72199500D01*
X90445413Y-72226793D01*
X90445410Y-72226794D01*
X90354087Y-72279519D01*
X90332775Y-72300831D01*
X90271451Y-72334315D01*
X90244441Y-72337146D01*
X81423346Y-72290650D01*
X81356412Y-72270613D01*
X81310936Y-72217568D01*
X81300000Y-72166652D01*
X81300000Y-71033897D01*
X90497900Y-71033897D01*
X90497900Y-71166102D01*
X90532117Y-71293805D01*
X90565168Y-71351050D01*
X90598220Y-71408297D01*
X90691703Y-71501780D01*
X90806196Y-71567883D01*
X90933897Y-71602100D01*
X90933899Y-71602100D01*
X91066101Y-71602100D01*
X91066103Y-71602100D01*
X91193804Y-71567883D01*
X91308297Y-71501780D01*
X91401780Y-71408297D01*
X91467883Y-71293804D01*
X91502100Y-71166103D01*
X91502100Y-71033897D01*
X91467883Y-70906196D01*
X91401780Y-70791703D01*
X91308297Y-70698220D01*
X91251050Y-70665168D01*
X91193805Y-70632117D01*
X91129953Y-70615008D01*
X91066103Y-70597900D01*
X90933897Y-70597900D01*
X90806194Y-70632117D01*
X90691703Y-70698220D01*
X90691700Y-70698222D01*
X90598222Y-70791700D01*
X90598220Y-70791703D01*
X90532117Y-70906194D01*
X90497900Y-71033897D01*
X81300000Y-71033897D01*
X81300000Y-67374995D01*
X81319685Y-67307956D01*
X81372489Y-67262201D01*
X81441647Y-67252257D01*
X81505203Y-67281282D01*
X81511681Y-67287314D01*
X81660342Y-67435975D01*
X81660345Y-67435977D01*
X81832402Y-67550941D01*
X82023580Y-67630130D01*
X82226530Y-67670499D01*
X82226534Y-67670500D01*
X82226535Y-67670500D01*
X82433466Y-67670500D01*
X82433467Y-67670499D01*
X82636420Y-67630130D01*
X82827598Y-67550941D01*
X82999655Y-67435977D01*
X83145977Y-67289655D01*
X83260941Y-67117598D01*
X83340130Y-66926420D01*
X83380500Y-66723465D01*
X83380500Y-66516535D01*
X83340130Y-66313580D01*
X83260941Y-66122402D01*
X83145977Y-65950345D01*
X83145975Y-65950342D01*
X82999657Y-65804024D01*
X82827596Y-65689057D01*
X82703050Y-65637469D01*
X82648647Y-65593628D01*
X82626582Y-65527334D01*
X82643861Y-65459634D01*
X82694999Y-65412024D01*
X82750407Y-65398908D01*
X86180808Y-65396327D01*
X86247861Y-65415961D01*
X86293656Y-65468731D01*
X86303651Y-65537882D01*
X86274674Y-65601459D01*
X86237198Y-65630810D01*
X86227004Y-65636004D01*
X86080505Y-65742441D01*
X86080500Y-65742445D01*
X85952445Y-65870500D01*
X85952441Y-65870505D01*
X85846006Y-66017002D01*
X85763788Y-66178360D01*
X85763787Y-66178363D01*
X85707829Y-66350589D01*
X85679500Y-66529448D01*
X85679500Y-66710551D01*
X85707829Y-66889410D01*
X85763787Y-67061636D01*
X85763788Y-67061639D01*
X85846006Y-67222997D01*
X85952441Y-67369494D01*
X85952445Y-67369499D01*
X86080500Y-67497554D01*
X86080505Y-67497558D01*
X86208287Y-67590396D01*
X86227006Y-67603996D01*
X86278299Y-67630131D01*
X86388360Y-67686211D01*
X86388363Y-67686212D01*
X86474476Y-67714191D01*
X86560591Y-67742171D01*
X86643429Y-67755291D01*
X86739449Y-67770500D01*
X86739454Y-67770500D01*
X86920551Y-67770500D01*
X87007259Y-67756765D01*
X87099409Y-67742171D01*
X87271639Y-67686211D01*
X87432994Y-67603996D01*
X87579501Y-67497553D01*
X87707553Y-67369501D01*
X87813996Y-67222994D01*
X87896211Y-67061639D01*
X87952171Y-66889409D01*
X87966765Y-66797259D01*
X87980500Y-66710551D01*
X87980500Y-66529448D01*
X87964019Y-66425397D01*
X87952171Y-66350591D01*
X87896211Y-66178361D01*
X87896211Y-66178360D01*
X87867698Y-66122402D01*
X87813996Y-66017006D01*
X87765562Y-65950342D01*
X87707558Y-65870505D01*
X87707554Y-65870500D01*
X87579499Y-65742445D01*
X87579494Y-65742441D01*
X87432995Y-65636004D01*
X87420891Y-65629837D01*
X87370095Y-65581863D01*
X87353299Y-65514042D01*
X87375836Y-65447907D01*
X87430551Y-65404455D01*
X87477091Y-65395352D01*
X94465555Y-65390093D01*
X94532607Y-65409727D01*
G37*
%TD.AperFunction*%
%TD*%
%TA.AperFunction,Conductor*%
%TO.N,unconnected-(J7-MountPin-PadMP)*%
G36*
X102754205Y-140419685D02*
G01*
X102799960Y-140472489D01*
X102809904Y-140541647D01*
X102780879Y-140605203D01*
X102774846Y-140611682D01*
X102733442Y-140653085D01*
X102724424Y-140659636D01*
X102712378Y-140669990D01*
X102707358Y-140673186D01*
X102611658Y-140721950D01*
X102578074Y-140755533D01*
X102566616Y-140762832D01*
X102499497Y-140782244D01*
X102432538Y-140762288D01*
X102412319Y-140745926D01*
X102388347Y-140721954D01*
X102388344Y-140721952D01*
X102388342Y-140721950D01*
X102311517Y-140682805D01*
X102275301Y-140664352D01*
X102181524Y-140649500D01*
X101818482Y-140649500D01*
X101737519Y-140662323D01*
X101724696Y-140664354D01*
X101611658Y-140721950D01*
X101611657Y-140721951D01*
X101611652Y-140721954D01*
X101521954Y-140811652D01*
X101521951Y-140811657D01*
X101464352Y-140924698D01*
X101449500Y-141018475D01*
X101449500Y-142331517D01*
X101460292Y-142399657D01*
X101464354Y-142425304D01*
X101521950Y-142538342D01*
X101521952Y-142538344D01*
X101521954Y-142538347D01*
X101611652Y-142628045D01*
X101611654Y-142628046D01*
X101611658Y-142628050D01*
X101724696Y-142685646D01*
X101777932Y-142694077D01*
X101841064Y-142724005D01*
X101846214Y-142728869D01*
X102621046Y-143503701D01*
X102736087Y-143570120D01*
X102830013Y-143595286D01*
X102830015Y-143595287D01*
X102830016Y-143595287D01*
X102839229Y-143597755D01*
X102864397Y-143604500D01*
X102864398Y-143604500D01*
X102997235Y-143604500D01*
X103991771Y-143604500D01*
X104058810Y-143624185D01*
X104079453Y-143640820D01*
X104121580Y-143682948D01*
X104121584Y-143682951D01*
X104244498Y-143765080D01*
X104244511Y-143765087D01*
X104381082Y-143821656D01*
X104381087Y-143821658D01*
X104381091Y-143821658D01*
X104381092Y-143821659D01*
X104526079Y-143850500D01*
X104526082Y-143850500D01*
X104673920Y-143850500D01*
X104771462Y-143831096D01*
X104818913Y-143821658D01*
X104955495Y-143765084D01*
X105078416Y-143682951D01*
X105182951Y-143578416D01*
X105222398Y-143519379D01*
X105276009Y-143474574D01*
X105345334Y-143465867D01*
X105408362Y-143496021D01*
X105445082Y-143555464D01*
X105449500Y-143588270D01*
X105449500Y-144897870D01*
X105449501Y-144897876D01*
X105455908Y-144957483D01*
X105506202Y-145092328D01*
X105506206Y-145092335D01*
X105592452Y-145207544D01*
X105592455Y-145207547D01*
X105707664Y-145293793D01*
X105707671Y-145293797D01*
X105842517Y-145344091D01*
X105842516Y-145344091D01*
X105849444Y-145344835D01*
X105902127Y-145350500D01*
X106697872Y-145350499D01*
X106757483Y-145344091D01*
X106892331Y-145293796D01*
X107007546Y-145207546D01*
X107093796Y-145092331D01*
X107144091Y-144957483D01*
X107150500Y-144897873D01*
X107150499Y-143502128D01*
X107144091Y-143442517D01*
X107093796Y-143307669D01*
X107093795Y-143307668D01*
X107093793Y-143307664D01*
X107007547Y-143192455D01*
X107007544Y-143192452D01*
X106892335Y-143106206D01*
X106892328Y-143106202D01*
X106757482Y-143055908D01*
X106757483Y-143055908D01*
X106697883Y-143049501D01*
X106697881Y-143049500D01*
X106697873Y-143049500D01*
X106697864Y-143049500D01*
X105902129Y-143049500D01*
X105902123Y-143049501D01*
X105842516Y-143055908D01*
X105707671Y-143106202D01*
X105707664Y-143106206D01*
X105592455Y-143192452D01*
X105573766Y-143217418D01*
X105517832Y-143259288D01*
X105448140Y-143264272D01*
X105386818Y-143230786D01*
X105353333Y-143169462D01*
X105350500Y-143143106D01*
X105350500Y-143026079D01*
X105321659Y-142881092D01*
X105321658Y-142881091D01*
X105321658Y-142881087D01*
X105290597Y-142806101D01*
X105283129Y-142736632D01*
X105314404Y-142674153D01*
X105348862Y-142648165D01*
X105388342Y-142628050D01*
X105478050Y-142538342D01*
X105535646Y-142425304D01*
X105535646Y-142425302D01*
X105535647Y-142425301D01*
X105550499Y-142331524D01*
X105550500Y-142331519D01*
X105550499Y-141671543D01*
X105570183Y-141604505D01*
X105586818Y-141583863D01*
X105782070Y-141388612D01*
X105828214Y-141308688D01*
X105852100Y-141219543D01*
X105852100Y-141127256D01*
X105852100Y-140524000D01*
X105871785Y-140456961D01*
X105924589Y-140411206D01*
X105976100Y-140400000D01*
X108476000Y-140400000D01*
X108543039Y-140419685D01*
X108588794Y-140472489D01*
X108600000Y-140524000D01*
X108600000Y-147076000D01*
X108580315Y-147143039D01*
X108527511Y-147188794D01*
X108476000Y-147200000D01*
X99024000Y-147200000D01*
X98956961Y-147180315D01*
X98911206Y-147127511D01*
X98900000Y-147076000D01*
X98900000Y-140524000D01*
X98919685Y-140456961D01*
X98972489Y-140411206D01*
X99024000Y-140400000D01*
X102687166Y-140400000D01*
X102754205Y-140419685D01*
G37*
%TD.AperFunction*%
%TD*%
%TA.AperFunction,Conductor*%
%TO.N,GND*%
G36*
X102442700Y-59519870D02*
G01*
X102488626Y-59572525D01*
X102500000Y-59624403D01*
X102500000Y-66376000D01*
X102480315Y-66443039D01*
X102427511Y-66488794D01*
X102376000Y-66500000D01*
X95374000Y-66500000D01*
X95306961Y-66480315D01*
X95261206Y-66427511D01*
X95250000Y-66376000D01*
X95250000Y-64750000D01*
X81122809Y-64750000D01*
X81055770Y-64730315D01*
X81010015Y-64677511D01*
X80998815Y-64627197D01*
X80979791Y-62656364D01*
X80951204Y-59694788D01*
X80970240Y-59627564D01*
X81022600Y-59581301D01*
X81074792Y-59569594D01*
X102375597Y-59500404D01*
X102442700Y-59519870D01*
G37*
%TD.AperFunction*%
%TD*%
%TA.AperFunction,Conductor*%
%TO.N,/VDD*%
G36*
X109641603Y-89920002D02*
G01*
X109688096Y-89973658D01*
X109699481Y-90026516D01*
X109607406Y-112492916D01*
X109587125Y-112560955D01*
X109533279Y-112607227D01*
X109481407Y-112618400D01*
X109215524Y-112618400D01*
X109160507Y-112629344D01*
X109160505Y-112629344D01*
X109098103Y-112671041D01*
X109056406Y-112733443D01*
X109056406Y-112733445D01*
X109045462Y-112788462D01*
X109045462Y-113229537D01*
X109056406Y-113284554D01*
X109056407Y-113284558D01*
X109088106Y-113331998D01*
X109109321Y-113399751D01*
X109090538Y-113468217D01*
X109088106Y-113472002D01*
X109056407Y-113519441D01*
X109056406Y-113519445D01*
X109045462Y-113574462D01*
X109045462Y-113889770D01*
X109025460Y-113957891D01*
X108971804Y-114004384D01*
X108901530Y-114014488D01*
X108894894Y-114013352D01*
X108892620Y-114012900D01*
X108150508Y-114012900D01*
X108120723Y-114018824D01*
X108120720Y-114018825D01*
X108086953Y-114041388D01*
X108064385Y-114075163D01*
X108058462Y-114104942D01*
X108058462Y-114163376D01*
X108038460Y-114231497D01*
X107984804Y-114277990D01*
X107931659Y-114289373D01*
X103287858Y-114259794D01*
X103219866Y-114239359D01*
X103173716Y-114185408D01*
X103162661Y-114133797D01*
X103162661Y-114104946D01*
X103162660Y-114104942D01*
X103156738Y-114075163D01*
X103156737Y-114075161D01*
X103156736Y-114075158D01*
X103134173Y-114041391D01*
X103100398Y-114018823D01*
X103070617Y-114012900D01*
X102328506Y-114012900D01*
X102326233Y-114013353D01*
X102325018Y-114013244D01*
X102322349Y-114013507D01*
X102322299Y-114013000D01*
X102255519Y-114007019D01*
X102199456Y-113963460D01*
X102175842Y-113896505D01*
X102175662Y-113889772D01*
X102175662Y-113574469D01*
X102175661Y-113574462D01*
X102172981Y-113560993D01*
X102164717Y-113519442D01*
X102133016Y-113472000D01*
X102111802Y-113404251D01*
X102130584Y-113335784D01*
X102132988Y-113332042D01*
X102164717Y-113284558D01*
X102175662Y-113229532D01*
X102175662Y-112788468D01*
X102164717Y-112733442D01*
X102123021Y-112671041D01*
X102060620Y-112629345D01*
X102060617Y-112629344D01*
X102005599Y-112618400D01*
X102005594Y-112618400D01*
X101879853Y-112618400D01*
X101811732Y-112598398D01*
X101765239Y-112544742D01*
X101753853Y-112492124D01*
X101768223Y-105935328D01*
X101803093Y-90025722D01*
X101823245Y-89957647D01*
X101877002Y-89911272D01*
X101929093Y-89900000D01*
X109573482Y-89900000D01*
X109641603Y-89920002D01*
G37*
%TD.AperFunction*%
%TD*%
M02*
