%TF.GenerationSoftware,KiCad,Pcbnew,9.0.2*%
%TF.CreationDate,2025-06-20T12:19:23+03:00*%
%TF.ProjectId,BitshokaNiniV1.1,42697473-686f-46b6-914e-696e6956312e,rev?*%
%TF.SameCoordinates,Original*%
%TF.FileFunction,Copper,L1,Top*%
%TF.FilePolarity,Positive*%
%FSLAX46Y46*%
G04 Gerber Fmt 4.6, Leading zero omitted, Abs format (unit mm)*
G04 Created by KiCad (PCBNEW 9.0.2) date 2025-06-20 12:19:23*
%MOMM*%
%LPD*%
G01*
G04 APERTURE LIST*
G04 Aperture macros list*
%AMRoundRect*
0 Rectangle with rounded corners*
0 $1 Rounding radius*
0 $2 $3 $4 $5 $6 $7 $8 $9 X,Y pos of 4 corners*
0 Add a 4 corners polygon primitive as box body*
4,1,4,$2,$3,$4,$5,$6,$7,$8,$9,$2,$3,0*
0 Add four circle primitives for the rounded corners*
1,1,$1+$1,$2,$3*
1,1,$1+$1,$4,$5*
1,1,$1+$1,$6,$7*
1,1,$1+$1,$8,$9*
0 Add four rect primitives between the rounded corners*
20,1,$1+$1,$2,$3,$4,$5,0*
20,1,$1+$1,$4,$5,$6,$7,0*
20,1,$1+$1,$6,$7,$8,$9,0*
20,1,$1+$1,$8,$9,$2,$3,0*%
G04 Aperture macros list end*
%TA.AperFunction,EtchedComponent*%
%ADD10C,0.000100*%
%TD*%
%TA.AperFunction,SMDPad,CuDef*%
%ADD11RoundRect,0.250000X-0.325000X-0.650000X0.325000X-0.650000X0.325000X0.650000X-0.325000X0.650000X0*%
%TD*%
%TA.AperFunction,SMDPad,CuDef*%
%ADD12RoundRect,0.250000X0.325000X0.650000X-0.325000X0.650000X-0.325000X-0.650000X0.325000X-0.650000X0*%
%TD*%
%TA.AperFunction,SMDPad,CuDef*%
%ADD13RoundRect,0.250000X0.650000X-0.325000X0.650000X0.325000X-0.650000X0.325000X-0.650000X-0.325000X0*%
%TD*%
%TA.AperFunction,SMDPad,CuDef*%
%ADD14RoundRect,0.195000X-1.005000X0.455000X-1.005000X-0.455000X1.005000X-0.455000X1.005000X0.455000X0*%
%TD*%
%TA.AperFunction,SMDPad,CuDef*%
%ADD15RoundRect,0.495000X1.155000X1.220000X-1.155000X1.220000X-1.155000X-1.220000X1.155000X-1.220000X0*%
%TD*%
%TA.AperFunction,SMDPad,CuDef*%
%ADD16C,1.500000*%
%TD*%
%TA.AperFunction,SMDPad,CuDef*%
%ADD17C,1.000000*%
%TD*%
%TA.AperFunction,ComponentPad*%
%ADD18O,2.100000X1.000000*%
%TD*%
%TA.AperFunction,ComponentPad*%
%ADD19O,1.800000X1.000000*%
%TD*%
%TA.AperFunction,ComponentPad*%
%ADD20C,1.574800*%
%TD*%
%TA.AperFunction,SMDPad,CuDef*%
%ADD21RoundRect,0.062500X0.062500X-0.337500X0.062500X0.337500X-0.062500X0.337500X-0.062500X-0.337500X0*%
%TD*%
%TA.AperFunction,SMDPad,CuDef*%
%ADD22RoundRect,0.062500X0.337500X-0.062500X0.337500X0.062500X-0.337500X0.062500X-0.337500X-0.062500X0*%
%TD*%
%TA.AperFunction,ComponentPad*%
%ADD23C,0.400000*%
%TD*%
%TA.AperFunction,SMDPad,CuDef*%
%ADD24R,5.300000X3.300000*%
%TD*%
%TA.AperFunction,SMDPad,CuDef*%
%ADD25RoundRect,0.135000X0.185000X-0.135000X0.185000X0.135000X-0.185000X0.135000X-0.185000X-0.135000X0*%
%TD*%
%TA.AperFunction,SMDPad,CuDef*%
%ADD26RoundRect,0.135000X0.135000X0.185000X-0.135000X0.185000X-0.135000X-0.185000X0.135000X-0.185000X0*%
%TD*%
%TA.AperFunction,SMDPad,CuDef*%
%ADD27RoundRect,0.195000X0.455000X1.005000X-0.455000X1.005000X-0.455000X-1.005000X0.455000X-1.005000X0*%
%TD*%
%TA.AperFunction,SMDPad,CuDef*%
%ADD28RoundRect,0.250000X-1.100000X0.325000X-1.100000X-0.325000X1.100000X-0.325000X1.100000X0.325000X0*%
%TD*%
%TA.AperFunction,SMDPad,CuDef*%
%ADD29RoundRect,0.140000X-0.140000X-0.170000X0.140000X-0.170000X0.140000X0.170000X-0.140000X0.170000X0*%
%TD*%
%TA.AperFunction,SMDPad,CuDef*%
%ADD30RoundRect,0.135000X-0.135000X-0.185000X0.135000X-0.185000X0.135000X0.185000X-0.135000X0.185000X0*%
%TD*%
%TA.AperFunction,SMDPad,CuDef*%
%ADD31R,0.250000X0.250000*%
%TD*%
%TA.AperFunction,SMDPad,CuDef*%
%ADD32RoundRect,0.140000X0.140000X0.170000X-0.140000X0.170000X-0.140000X-0.170000X0.140000X-0.170000X0*%
%TD*%
%TA.AperFunction,SMDPad,CuDef*%
%ADD33RoundRect,0.135000X-0.185000X0.135000X-0.185000X-0.135000X0.185000X-0.135000X0.185000X0.135000X0*%
%TD*%
%TA.AperFunction,SMDPad,CuDef*%
%ADD34RoundRect,0.250000X0.625000X-0.312500X0.625000X0.312500X-0.625000X0.312500X-0.625000X-0.312500X0*%
%TD*%
%TA.AperFunction,SMDPad,CuDef*%
%ADD35RoundRect,0.140000X-0.170000X0.140000X-0.170000X-0.140000X0.170000X-0.140000X0.170000X0.140000X0*%
%TD*%
%TA.AperFunction,SMDPad,CuDef*%
%ADD36RoundRect,0.250000X-0.250000X-0.475000X0.250000X-0.475000X0.250000X0.475000X-0.250000X0.475000X0*%
%TD*%
%TA.AperFunction,SMDPad,CuDef*%
%ADD37RoundRect,0.150000X0.150000X-0.587500X0.150000X0.587500X-0.150000X0.587500X-0.150000X-0.587500X0*%
%TD*%
%TA.AperFunction,SMDPad,CuDef*%
%ADD38RoundRect,0.250000X-0.325000X-1.100000X0.325000X-1.100000X0.325000X1.100000X-0.325000X1.100000X0*%
%TD*%
%TA.AperFunction,SMDPad,CuDef*%
%ADD39R,1.300000X1.100000*%
%TD*%
%TA.AperFunction,ComponentPad*%
%ADD40C,0.800000*%
%TD*%
%TA.AperFunction,ComponentPad*%
%ADD41C,6.000000*%
%TD*%
%TA.AperFunction,SMDPad,CuDef*%
%ADD42RoundRect,0.225000X-0.250000X0.225000X-0.250000X-0.225000X0.250000X-0.225000X0.250000X0.225000X0*%
%TD*%
%TA.AperFunction,SMDPad,CuDef*%
%ADD43R,0.400000X1.100000*%
%TD*%
%TA.AperFunction,SMDPad,CuDef*%
%ADD44RoundRect,0.150000X-0.512500X-0.150000X0.512500X-0.150000X0.512500X0.150000X-0.512500X0.150000X0*%
%TD*%
%TA.AperFunction,SMDPad,CuDef*%
%ADD45RoundRect,0.150000X-0.587500X-0.150000X0.587500X-0.150000X0.587500X0.150000X-0.587500X0.150000X0*%
%TD*%
%TA.AperFunction,ComponentPad*%
%ADD46R,1.700000X1.700000*%
%TD*%
%TA.AperFunction,ComponentPad*%
%ADD47C,1.700000*%
%TD*%
%TA.AperFunction,SMDPad,CuDef*%
%ADD48RoundRect,0.100000X-0.637500X-0.100000X0.637500X-0.100000X0.637500X0.100000X-0.637500X0.100000X0*%
%TD*%
%TA.AperFunction,SMDPad,CuDef*%
%ADD49RoundRect,0.140000X0.170000X-0.140000X0.170000X0.140000X-0.170000X0.140000X-0.170000X-0.140000X0*%
%TD*%
%TA.AperFunction,SMDPad,CuDef*%
%ADD50RoundRect,0.100000X-0.100000X0.637500X-0.100000X-0.637500X0.100000X-0.637500X0.100000X0.637500X0*%
%TD*%
%TA.AperFunction,SMDPad,CuDef*%
%ADD51RoundRect,0.250000X0.475000X-0.250000X0.475000X0.250000X-0.475000X0.250000X-0.475000X-0.250000X0*%
%TD*%
%TA.AperFunction,SMDPad,CuDef*%
%ADD52R,0.952500X0.558800*%
%TD*%
%TA.AperFunction,ComponentPad*%
%ADD53O,1.700000X1.700000*%
%TD*%
%TA.AperFunction,ViaPad*%
%ADD54C,0.800000*%
%TD*%
%TA.AperFunction,ViaPad*%
%ADD55C,1.000000*%
%TD*%
%TA.AperFunction,ViaPad*%
%ADD56C,0.500000*%
%TD*%
%TA.AperFunction,ViaPad*%
%ADD57C,1.200000*%
%TD*%
%TA.AperFunction,Conductor*%
%ADD58C,0.508000*%
%TD*%
%TA.AperFunction,Conductor*%
%ADD59C,0.200000*%
%TD*%
%TA.AperFunction,Conductor*%
%ADD60C,1.000000*%
%TD*%
%TA.AperFunction,Conductor*%
%ADD61C,0.254000*%
%TD*%
%TA.AperFunction,Conductor*%
%ADD62C,0.506000*%
%TD*%
%TA.AperFunction,Conductor*%
%ADD63C,1.500000*%
%TD*%
G04 APERTURE END LIST*
%TO.C,T1*%
D10*
X90654500Y-77715000D02*
X90724500Y-77715000D01*
X90724500Y-77965000D01*
X90654500Y-77965000D01*
X90654500Y-77715000D01*
%TA.AperFunction,EtchedComponent*%
G36*
X90654500Y-77715000D02*
G01*
X90724500Y-77715000D01*
X90724500Y-77965000D01*
X90654500Y-77965000D01*
X90654500Y-77715000D01*
G37*
%TD.AperFunction*%
%TD*%
D11*
%TO.P,C35,1*%
%TO.N,/VDD*%
X109050000Y-104300000D03*
%TO.P,C35,2*%
%TO.N,GND*%
X112000000Y-104300000D03*
%TD*%
D12*
%TO.P,C43,1*%
%TO.N,/VDD*%
X103050000Y-104300000D03*
%TO.P,C43,2*%
%TO.N,GND*%
X100100000Y-104300000D03*
%TD*%
D11*
%TO.P,C17,1*%
%TO.N,/VDD*%
X109050000Y-97100000D03*
%TO.P,C17,2*%
%TO.N,GND*%
X112000000Y-97100000D03*
%TD*%
%TO.P,C16,1*%
%TO.N,/VDD*%
X109050000Y-93800000D03*
%TO.P,C16,2*%
%TO.N,GND*%
X112000000Y-93800000D03*
%TD*%
%TO.P,C15,1*%
%TO.N,/VDD*%
X109050000Y-100400000D03*
%TO.P,C15,2*%
%TO.N,GND*%
X112000000Y-100400000D03*
%TD*%
D13*
%TO.P,C14,1*%
%TO.N,/VDD*%
X99600000Y-80250000D03*
%TO.P,C14,2*%
%TO.N,GND*%
X99600000Y-77300000D03*
%TD*%
D14*
%TO.P,C18,1*%
%TO.N,/VDD*%
X104000000Y-80250000D03*
%TO.P,C18,2*%
%TO.N,GND*%
X104000000Y-74250000D03*
%TD*%
D15*
%TO.P,L1,1,1*%
%TO.N,/Power/SW*%
X96300000Y-85600000D03*
%TO.P,L1,2,2*%
%TO.N,/VDD*%
X104200000Y-85600000D03*
%TD*%
D16*
%TO.P,VIN1,1,1*%
%TO.N,/5V*%
X82600000Y-69800000D03*
%TD*%
%TO.P,VDD1,1,1*%
%TO.N,/VDD*%
X100900000Y-91900000D03*
%TD*%
D17*
%TO.P,TXD2,1,1*%
%TO.N,Net-(TXD2-Pad1)*%
X91200000Y-110300000D03*
%TD*%
D16*
%TO.P,TXD1,1,1*%
%TO.N,/KF1950/TXD*%
X116200000Y-109900000D03*
%TD*%
%TO.P,TEMP_P1,1,1*%
%TO.N,/Fan/TEMP_P*%
X96300000Y-123800000D03*
%TD*%
%TO.P,TEMP_N1,1,1*%
%TO.N,/Fan/TEMP_N*%
X91600000Y-123900000D03*
%TD*%
D17*
%TO.P,RXD2,1,1*%
%TO.N,Net-(RXD2-Pad1)*%
X91400000Y-114400000D03*
%TD*%
D16*
%TO.P,RXD1,1,1*%
%TO.N,/KF1950/RXD*%
X125800000Y-112500000D03*
%TD*%
%TO.P,RST1,1,1*%
%TO.N,/KF1950/{slash}RST*%
X128700000Y-112500000D03*
%TD*%
%TO.P,P_TX1,1,1*%
%TO.N,/ESP32/P_TX*%
X122400000Y-62400000D03*
%TD*%
%TO.P,P_RX1,1,1*%
%TO.N,/ESP32/P_RX*%
X122500000Y-58500000D03*
%TD*%
%TO.P,PROG_3V3,1,1*%
%TO.N,/3V3*%
X118500000Y-58200000D03*
%TD*%
%TO.P,LO1,1,1*%
%TO.N,Net-(U9-A4)*%
X122600000Y-107400000D03*
%TD*%
%TO.P,HI1,1,1*%
%TO.N,Net-(U9-B4)*%
X125200000Y-107300000D03*
%TD*%
%TO.P,GND3,1,1*%
%TO.N,GND*%
X118400000Y-55400000D03*
%TD*%
%TO.P,GND2,1,1*%
%TO.N,GND*%
X82300000Y-62500000D03*
%TD*%
%TO.P,GND1,1,1*%
%TO.N,GND*%
X113600000Y-78700000D03*
%TD*%
%TO.P,FANTACH1,1,1*%
%TO.N,/Fan/FAN_TACH*%
X93700000Y-139200000D03*
%TD*%
%TO.P,FANPWM1,1,1*%
%TO.N,/Fan/FAN_PWM*%
X91300000Y-141200000D03*
%TD*%
%TO.P,ESP_3V3,1,1*%
%TO.N,/3V3*%
X124500000Y-82000000D03*
%TD*%
%TO.P,EN1,1,1*%
%TO.N,/ESP32/EN*%
X118500000Y-62200000D03*
%TD*%
D17*
%TO.P,DIR_LO1,1,1*%
%TO.N,Net-(DIR_LO1-Pad1)*%
X92900000Y-118600000D03*
%TD*%
%TO.P,DIR_HI1,1,1*%
%TO.N,Net-(DIR_HI1-Pad1)*%
X91400000Y-117100000D03*
%TD*%
%TO.P,CTSI1,1,1*%
%TO.N,Net-(CTSI1-Pad1)*%
X91200000Y-112400000D03*
%TD*%
D16*
%TO.P,CLK1,1,1*%
%TO.N,/KF1950/CLKI*%
X116300000Y-112600000D03*
%TD*%
D17*
%TO.P,0.9V1,1,1*%
%TO.N,Net-(0.9V1-Pad1)*%
X93100000Y-115900000D03*
%TD*%
%TO.P,FID1,*%
%TO.N,*%
X78740000Y-55905400D03*
%TD*%
%TO.P,FID2,*%
%TO.N,*%
X125272800Y-50292000D03*
%TD*%
%TO.P,FID3,*%
%TO.N,*%
X78841600Y-139065000D03*
%TD*%
%TO.P,FID4,*%
%TO.N,*%
X132257800Y-139065000D03*
%TD*%
D18*
%TO.P,J5,S1,SHIELD*%
%TO.N,GND*%
X83970000Y-87580000D03*
D19*
X79790000Y-87580000D03*
D18*
X83970000Y-78940000D03*
D19*
X79790000Y-78940000D03*
%TD*%
D20*
%TO.P,J6,1,Pin_1*%
%TO.N,GND*%
X89621000Y-143622000D03*
%TO.P,J6,2,Pin_2*%
%TO.N,/5V*%
X92161000Y-143622000D03*
%TO.P,J6,3,Pin_3*%
%TO.N,/Fan/FAN_TACH*%
X94701000Y-143622000D03*
%TO.P,J6,4,Pin_4*%
%TO.N,/Fan/FAN_PWM*%
X97241000Y-143622000D03*
%TD*%
D21*
%TO.P,U2,1,PGD*%
%TO.N,/Power/PGOOD*%
X90830000Y-80090000D03*
%TO.P,U2,2,PMB_DATA*%
%TO.N,/SDA*%
X91330000Y-80090000D03*
%TO.P,U2,3,PMB_CLK*%
%TO.N,/SCL*%
X91830000Y-80090000D03*
%TO.P,U2,4,BP1V5*%
%TO.N,Net-(U2-BP1V5)*%
X92330000Y-80090000D03*
%TO.P,U2,5,DRTN*%
%TO.N,Net-(U2-DRTN)*%
X92830000Y-80090000D03*
%TO.P,U2,6,SMB_ALRT*%
%TO.N,/Power/PMB_ALRT*%
X93330000Y-80090000D03*
%TO.P,U2,7,BOOT*%
%TO.N,Net-(U2-BOOT)*%
X93830000Y-80090000D03*
%TO.P,U2,8,SW*%
%TO.N,/Power/SW*%
X94330000Y-80090000D03*
%TO.P,U2,9,SW*%
X94830000Y-80090000D03*
%TO.P,U2,10,SW*%
X95330000Y-80090000D03*
%TO.P,U2,11,SW*%
X95830000Y-80090000D03*
%TO.P,U2,12,SW*%
X96330000Y-80090000D03*
D22*
%TO.P,U2,13,PGND*%
%TO.N,GND*%
X97080000Y-79340000D03*
%TO.P,U2,14,PGND*%
X97080000Y-78840000D03*
%TO.P,U2,15,PGND*%
X97080000Y-78340000D03*
%TO.P,U2,16,PGND*%
X97080000Y-77840000D03*
%TO.P,U2,17,PGND*%
X97080000Y-77340000D03*
%TO.P,U2,18,PGND*%
X97080000Y-76840000D03*
%TO.P,U2,19,PGND*%
X97080000Y-76340000D03*
%TO.P,U2,20,PGND*%
X97080000Y-75840000D03*
D21*
%TO.P,U2,21,PVIN*%
%TO.N,/5V*%
X96330000Y-75090000D03*
%TO.P,U2,22,PVIN*%
X95830000Y-75090000D03*
%TO.P,U2,23,PVIN*%
X95330000Y-75090000D03*
%TO.P,U2,24,PVIN*%
X94830000Y-75090000D03*
%TO.P,U2,25,PVIN*%
X94330000Y-75090000D03*
%TO.P,U2,26,AVIN*%
%TO.N,Net-(U2-AVIN)*%
X93830000Y-75090000D03*
%TO.P,U2,27,EN/UVLO*%
%TO.N,Net-(Q4-C)*%
X93330000Y-75090000D03*
%TO.P,U2,28,VDD5*%
%TO.N,Net-(U2-VDD5)*%
X92830000Y-75090000D03*
%TO.P,U2,29,MSEL2*%
%TO.N,Net-(U2-MSEL2)*%
X92330000Y-75090000D03*
%TO.P,U2,30,VSEL*%
%TO.N,Net-(U2-VSEL)*%
X91830000Y-75090000D03*
%TO.P,U2,31,ADRSEL*%
%TO.N,Net-(U2-ADRSEL)*%
X91330000Y-75090000D03*
%TO.P,U2,32,MSEL1*%
%TO.N,Net-(U2-MSEL1)*%
X90830000Y-75090000D03*
D22*
%TO.P,U2,33,VOSNS*%
%TO.N,Net-(U2-VOSNS)*%
X90080000Y-75840000D03*
%TO.P,U2,34,GOSNS*%
%TO.N,Net-(U2-GOSNS)*%
X90080000Y-76340000D03*
%TO.P,U2,35,VSHARE*%
%TO.N,unconnected-(U2-VSHARE-Pad35)*%
X90080000Y-76840000D03*
%TO.P,U2,36,NC*%
%TO.N,unconnected-(U2-NC-Pad36)*%
X90080000Y-77340000D03*
%TO.P,U2,37,AGND*%
%TO.N,/Power/AGND*%
X90080000Y-77840000D03*
%TO.P,U2,38,SYNC*%
%TO.N,unconnected-(U2-SYNC-Pad38)*%
X90080000Y-78340000D03*
%TO.P,U2,39,BCX_CLK*%
%TO.N,unconnected-(U2-BCX_CLK-Pad39)*%
X90080000Y-78840000D03*
%TO.P,U2,40,BCX_DAT*%
%TO.N,unconnected-(U2-BCX_DAT-Pad40)*%
X90080000Y-79340000D03*
D23*
%TO.P,U2,41,PAD*%
%TO.N,GND*%
X92180000Y-78870000D03*
X93580000Y-78870000D03*
X94980000Y-78870000D03*
X91180000Y-77590000D03*
X92180000Y-77590000D03*
X93580000Y-77590000D03*
D24*
X93580000Y-77590000D03*
D23*
X94980000Y-77590000D03*
X95980000Y-77590000D03*
X92180000Y-76310000D03*
X93580000Y-76310000D03*
X94980000Y-76310000D03*
%TD*%
D25*
%TO.P,R77,1*%
%TO.N,/KF1950/1V8*%
X120536590Y-108408410D03*
%TO.P,R77,2*%
%TO.N,Net-(U9-DIR3)*%
X120536590Y-107388410D03*
%TD*%
D26*
%TO.P,R74,1*%
%TO.N,Net-(U4-GPIO2{slash}TOUCH2{slash}ADC1_CH1)*%
X118270000Y-83250000D03*
%TO.P,R74,2*%
%TO.N,Net-(U23A--)*%
X117250000Y-83250000D03*
%TD*%
D27*
%TO.P,C20,1*%
%TO.N,/VDD*%
X107500000Y-84100000D03*
%TO.P,C20,2*%
%TO.N,GND*%
X113500000Y-84100000D03*
%TD*%
D26*
%TO.P,R21,1*%
%TO.N,GND*%
X128036590Y-105638410D03*
%TO.P,R21,2*%
%TO.N,Net-(U9-OE)*%
X127016590Y-105638410D03*
%TD*%
D28*
%TO.P,C51,1*%
%TO.N,/5V*%
X102045000Y-139815000D03*
%TO.P,C51,2*%
%TO.N,GND*%
X102045000Y-142765000D03*
%TD*%
D29*
%TO.P,C9,1*%
%TO.N,/5V*%
X96090000Y-73000000D03*
%TO.P,C9,2*%
%TO.N,GND*%
X97050000Y-73000000D03*
%TD*%
D30*
%TO.P,R80,1*%
%TO.N,/3V3*%
X103800000Y-69600000D03*
%TO.P,R80,2*%
%TO.N,/Power/PMB_ALRT*%
X104820000Y-69600000D03*
%TD*%
D26*
%TO.P,R35,1*%
%TO.N,/KF1950/LDO_GND*%
X110500000Y-127750000D03*
%TO.P,R35,2*%
%TO.N,GND*%
X109480000Y-127750000D03*
%TD*%
D31*
%TO.P,T1,1*%
%TO.N,/Power/AGND*%
X90535000Y-77840000D03*
%TO.P,T1,2*%
%TO.N,GND*%
X90845000Y-77840000D03*
%TD*%
D25*
%TO.P,R38,1*%
%TO.N,Net-(R38-Pad1)*%
X96500000Y-116770000D03*
%TO.P,R38,2*%
%TO.N,Net-(R38-Pad2)*%
X96500000Y-115750000D03*
%TD*%
D32*
%TO.P,C40,1*%
%TO.N,/VDD*%
X102100000Y-107400000D03*
%TO.P,C40,2*%
%TO.N,GND*%
X101140000Y-107400000D03*
%TD*%
D33*
%TO.P,R23,1,1*%
%TO.N,/Fan/TEMP_P*%
X94520000Y-123850000D03*
%TO.P,R23,2,2*%
%TO.N,/Fan/TEMP_DP*%
X94520000Y-124870000D03*
%TD*%
D25*
%TO.P,R33,1*%
%TO.N,Net-(C31-Pad1)*%
X121286590Y-122888410D03*
%TO.P,R33,2*%
%TO.N,/KF1950/1V8*%
X121286590Y-121868410D03*
%TD*%
D29*
%TO.P,C39,1*%
%TO.N,/VDD*%
X109840000Y-107400000D03*
%TO.P,C39,2*%
%TO.N,GND*%
X110800000Y-107400000D03*
%TD*%
D34*
%TO.P,R12,1*%
%TO.N,GND*%
X90600000Y-86525000D03*
%TO.P,R12,2*%
%TO.N,Net-(C11-Pad1)*%
X90600000Y-83600000D03*
%TD*%
D25*
%TO.P,R78,1*%
%TO.N,GND*%
X119536590Y-108408410D03*
%TO.P,R78,2*%
%TO.N,Net-(U9-DIR4)*%
X119536590Y-107388410D03*
%TD*%
D35*
%TO.P,C13,1*%
%TO.N,Net-(U2-VOSNS)*%
X87630000Y-77010000D03*
%TO.P,C13,2*%
%TO.N,Net-(U2-GOSNS)*%
X87630000Y-77970000D03*
%TD*%
D26*
%TO.P,R29,1*%
%TO.N,GND*%
X121306590Y-117888410D03*
%TO.P,R29,2*%
%TO.N,Net-(R28-Pad2)*%
X120286590Y-117888410D03*
%TD*%
D30*
%TO.P,R1,1*%
%TO.N,Net-(U2-BP1V5)*%
X85590000Y-75500000D03*
%TO.P,R1,2*%
%TO.N,Net-(U2-MSEL1)*%
X86610000Y-75500000D03*
%TD*%
D26*
%TO.P,R11,1*%
%TO.N,/5V*%
X94390000Y-72930000D03*
%TO.P,R11,2*%
%TO.N,Net-(U2-AVIN)*%
X93370000Y-72930000D03*
%TD*%
D36*
%TO.P,C24,1*%
%TO.N,/3V3*%
X124750000Y-86250000D03*
%TO.P,C24,2*%
%TO.N,GND*%
X126650000Y-86250000D03*
%TD*%
D29*
%TO.P,C10,1*%
%TO.N,Net-(U2-VDD5)*%
X96105636Y-70993183D03*
%TO.P,C10,2*%
%TO.N,GND*%
X97065636Y-70993183D03*
%TD*%
D26*
%TO.P,R31,1*%
%TO.N,/KF1950/{slash}RST*%
X121286590Y-119888410D03*
%TO.P,R31,2*%
%TO.N,Net-(C27-Pad2)*%
X120266590Y-119888410D03*
%TD*%
D30*
%TO.P,R72,1*%
%TO.N,GND*%
X115230000Y-83250000D03*
%TO.P,R72,2*%
%TO.N,Net-(U23A--)*%
X116250000Y-83250000D03*
%TD*%
%TO.P,R2,1*%
%TO.N,Net-(U2-BP1V5)*%
X85110000Y-72100000D03*
%TO.P,R2,2*%
%TO.N,Net-(U2-MSEL2)*%
X86130000Y-72100000D03*
%TD*%
D37*
%TO.P,Q4,1,B*%
%TO.N,Net-(Q4-B)*%
X88800000Y-68250000D03*
%TO.P,Q4,2,E*%
%TO.N,GND*%
X90700000Y-68250000D03*
%TO.P,Q4,3,C*%
%TO.N,Net-(Q4-C)*%
X89750000Y-66375000D03*
%TD*%
D38*
%TO.P,C4,1*%
%TO.N,/5V*%
X95125000Y-66550000D03*
%TO.P,C4,2*%
%TO.N,GND*%
X98075000Y-66550000D03*
%TD*%
D29*
%TO.P,C6,1*%
%TO.N,/5V*%
X96090000Y-74000000D03*
%TO.P,C6,2*%
%TO.N,GND*%
X97050000Y-74000000D03*
%TD*%
D26*
%TO.P,R30,1*%
%TO.N,GND*%
X123286590Y-118888410D03*
%TO.P,R30,2*%
%TO.N,/KF1950/{slash}RST*%
X122266590Y-118888410D03*
%TD*%
D29*
%TO.P,C25,1*%
%TO.N,/3V3*%
X125290000Y-84750000D03*
%TO.P,C25,2*%
%TO.N,GND*%
X126250000Y-84750000D03*
%TD*%
D39*
%TO.P,U7,1,EN*%
%TO.N,/KF1950/1V8*%
X120800000Y-112600000D03*
%TO.P,U7,2,GND*%
%TO.N,GND*%
X118500000Y-112600000D03*
%TO.P,U7,3,OUT*%
%TO.N,/KF1950/CLKI*%
X118500000Y-114500000D03*
%TO.P,U7,4,VIN*%
%TO.N,/KF1950/1V8*%
X120800000Y-114500000D03*
%TD*%
D32*
%TO.P,C27,1*%
%TO.N,/KF1950/LDO_GND*%
X118960000Y-119800000D03*
%TO.P,C27,2*%
%TO.N,Net-(C27-Pad2)*%
X118000000Y-119800000D03*
%TD*%
D40*
%TO.P,H1,1,1*%
%TO.N,GND*%
X127985010Y-51120990D03*
X128644020Y-49530000D03*
X128644020Y-52711980D03*
X130235010Y-48870990D03*
D41*
X130235010Y-51120990D03*
D40*
X130235010Y-53370990D03*
X131826000Y-49530000D03*
X131826000Y-52711980D03*
X132485010Y-51120990D03*
%TD*%
D26*
%TO.P,R7,1*%
%TO.N,Net-(U2-ADRSEL)*%
X88520000Y-74320000D03*
%TO.P,R7,2*%
%TO.N,/Power/AGND*%
X87500000Y-74320000D03*
%TD*%
D35*
%TO.P,C29,1*%
%TO.N,GND*%
X122680000Y-113010000D03*
%TO.P,C29,2*%
%TO.N,/KF1950/1V8*%
X122680000Y-113970000D03*
%TD*%
D25*
%TO.P,R36,1*%
%TO.N,/VDD*%
X95500000Y-114770000D03*
%TO.P,R36,2*%
%TO.N,Net-(Q1-B)*%
X95500000Y-113750000D03*
%TD*%
D42*
%TO.P,C12,1*%
%TO.N,Net-(C12-Pad1)*%
X93400000Y-84500000D03*
%TO.P,C12,2*%
%TO.N,/Power/SW*%
X93400000Y-86050000D03*
%TD*%
D30*
%TO.P,R19,1*%
%TO.N,/ESP_TXD*%
X127036590Y-103888410D03*
%TO.P,R19,2*%
%TO.N,/KF1950/RXD*%
X128056590Y-103888410D03*
%TD*%
D16*
%TO.P,TXD_LO1,1,1*%
%TO.N,/KF1950/TXD_1V8*%
X118600000Y-95400000D03*
%TD*%
D25*
%TO.P,R25,1*%
%TO.N,/Fan/FAN_PWM*%
X98640000Y-141260000D03*
%TO.P,R25,2*%
%TO.N,/5V*%
X98640000Y-140240000D03*
%TD*%
D35*
%TO.P,C22,1*%
%TO.N,/ESP32/EN*%
X131105000Y-105770000D03*
%TO.P,C22,2*%
%TO.N,GND*%
X131105000Y-106730000D03*
%TD*%
D29*
%TO.P,C74,1*%
%TO.N,Net-(U4-GPIO2{slash}TOUCH2{slash}ADC1_CH1)*%
X124500000Y-61500000D03*
%TO.P,C74,2*%
%TO.N,GND*%
X125460000Y-61500000D03*
%TD*%
D43*
%TO.P,U10,1,VDD*%
%TO.N,/3V3*%
X94870000Y-127840000D03*
%TO.P,U10,2,DP*%
%TO.N,/Fan/TEMP_DP*%
X94220000Y-127840000D03*
%TO.P,U10,3,DN*%
%TO.N,/Fan/TEMP_DN*%
X93570000Y-127840000D03*
%TO.P,U10,4,FAN*%
%TO.N,/Fan/FAN_PWM*%
X92920000Y-127840000D03*
%TO.P,U10,5,GND*%
%TO.N,GND*%
X92920000Y-132140000D03*
%TO.P,U10,6,ALERT/TACH*%
%TO.N,/Fan/FAN_TACH*%
X93570000Y-132140000D03*
%TO.P,U10,7,SMDATA*%
%TO.N,/SDA*%
X94220000Y-132140000D03*
%TO.P,U10,8,SMCLK*%
%TO.N,/SCL*%
X94870000Y-132140000D03*
%TD*%
D29*
%TO.P,C8,1*%
%TO.N,Net-(Q4-C)*%
X89080000Y-71130000D03*
%TO.P,C8,2*%
%TO.N,GND*%
X90040000Y-71130000D03*
%TD*%
D30*
%TO.P,R5,1*%
%TO.N,/Power/AGND*%
X87490000Y-75720000D03*
%TO.P,R5,2*%
%TO.N,Net-(U2-MSEL1)*%
X88510000Y-75720000D03*
%TD*%
D26*
%TO.P,R6,1*%
%TO.N,Net-(U2-MSEL2)*%
X88510000Y-72100000D03*
%TO.P,R6,2*%
%TO.N,/Power/AGND*%
X87490000Y-72100000D03*
%TD*%
D30*
%TO.P,R82,1*%
%TO.N,/3V3*%
X103780000Y-67600000D03*
%TO.P,R82,2*%
%TO.N,/SCL*%
X104800000Y-67600000D03*
%TD*%
D44*
%TO.P,U5,1,IN*%
%TO.N,/5V*%
X109843500Y-129279000D03*
%TO.P,U5,2,GND*%
%TO.N,/KF1950/LDO_GND*%
X109843500Y-130229000D03*
%TO.P,U5,3,EN*%
%TO.N,/5V*%
X109843500Y-131179000D03*
%TO.P,U5,4,BP*%
%TO.N,unconnected-(U5-BP-Pad4)*%
X112118500Y-131179000D03*
%TO.P,U5,5,OUT*%
%TO.N,/KF1950/1V8*%
X112118500Y-129279000D03*
%TD*%
D40*
%TO.P,H3,1,1*%
%TO.N,GND*%
X128052000Y-143728000D03*
X128711010Y-142137010D03*
X128711010Y-145318990D03*
X130302000Y-141478000D03*
D41*
X130302000Y-143728000D03*
D40*
X130302000Y-145978000D03*
X131892990Y-142137010D03*
X131892990Y-145318990D03*
X132552000Y-143728000D03*
%TD*%
D29*
%TO.P,C49,1*%
%TO.N,/3V3*%
X127036590Y-101888410D03*
%TO.P,C49,2*%
%TO.N,GND*%
X127996590Y-101888410D03*
%TD*%
D32*
%TO.P,C73,1*%
%TO.N,/3V3*%
X118364000Y-92456000D03*
%TO.P,C73,2*%
%TO.N,GND*%
X117404000Y-92456000D03*
%TD*%
D45*
%TO.P,Q3,1,B*%
%TO.N,/Fan/TEMP_N*%
X105002600Y-125450000D03*
%TO.P,Q3,2,E*%
%TO.N,/Fan/TEMP_P*%
X105002600Y-127350000D03*
%TO.P,Q3,3,C*%
%TO.N,/Fan/TEMP_N*%
X106877600Y-126400000D03*
%TD*%
D26*
%TO.P,R9,1*%
%TO.N,/5V*%
X94400000Y-73990000D03*
%TO.P,R9,2*%
%TO.N,Net-(Q4-C)*%
X93380000Y-73990000D03*
%TD*%
D29*
%TO.P,C38,1*%
%TO.N,/VDD*%
X109840000Y-106400000D03*
%TO.P,C38,2*%
%TO.N,GND*%
X110800000Y-106400000D03*
%TD*%
D32*
%TO.P,C23,1*%
%TO.N,/3V3*%
X114200000Y-60030000D03*
%TO.P,C23,2*%
%TO.N,GND*%
X113240000Y-60030000D03*
%TD*%
D14*
%TO.P,C19,1*%
%TO.N,/VDD*%
X109300000Y-80250000D03*
%TO.P,C19,2*%
%TO.N,GND*%
X109300000Y-74250000D03*
%TD*%
D30*
%TO.P,R4,1*%
%TO.N,Net-(U2-BP1V5)*%
X85590000Y-73360000D03*
%TO.P,R4,2*%
%TO.N,Net-(U2-VSEL)*%
X86610000Y-73360000D03*
%TD*%
D25*
%TO.P,R17,1*%
%TO.N,GND*%
X118536590Y-108408410D03*
%TO.P,R17,2*%
%TO.N,Net-(U9-A4)*%
X118536590Y-107388410D03*
%TD*%
D29*
%TO.P,C7,1*%
%TO.N,/5V*%
X96110000Y-72000000D03*
%TO.P,C7,2*%
%TO.N,GND*%
X97070000Y-72000000D03*
%TD*%
D46*
%TO.P,J4,1,Pin_1*%
%TO.N,/5V*%
X99171505Y-51054000D03*
D47*
%TO.P,J4,2,Pin_2*%
%TO.N,GND*%
X101711505Y-51054000D03*
%TO.P,J4,3,Pin_3*%
%TO.N,Net-(J4-Pin_3)*%
X104251505Y-51054000D03*
%TO.P,J4,4,Pin_4*%
%TO.N,Net-(J4-Pin_4)*%
X106791505Y-51054000D03*
%TO.P,J4,5,Pin_5*%
%TO.N,Net-(J4-Pin_5)*%
X109331505Y-51054000D03*
%TO.P,J4,6,Pin_6*%
%TO.N,Net-(J4-Pin_6)*%
X111871505Y-51054000D03*
%TD*%
D40*
%TO.P,H4,1,1*%
%TO.N,GND*%
X78455010Y-143830990D03*
X79114020Y-142240000D03*
X79114020Y-145421980D03*
X80705010Y-141580990D03*
D41*
X80705010Y-143830990D03*
D40*
X80705010Y-146080990D03*
X82296000Y-142240000D03*
X82296000Y-145421980D03*
X82955010Y-143830990D03*
%TD*%
D26*
%TO.P,R13,1*%
%TO.N,Net-(U2-GOSNS)*%
X86600000Y-77640000D03*
%TO.P,R13,2*%
%TO.N,GND*%
X85580000Y-77640000D03*
%TD*%
D35*
%TO.P,C53,1*%
%TO.N,/5V*%
X97200000Y-140250000D03*
%TO.P,C53,2*%
%TO.N,GND*%
X97200000Y-141210000D03*
%TD*%
D26*
%TO.P,R27,1*%
%TO.N,GND*%
X121306590Y-116888410D03*
%TO.P,R27,2*%
%TO.N,/KF1950/CTSI_1V8*%
X120286590Y-116888410D03*
%TD*%
D16*
%TO.P,RST_LO1,1,1*%
%TO.N,/KF1950/RST_N_1V8*%
X118600000Y-98000000D03*
%TD*%
D30*
%TO.P,R73,1*%
%TO.N,/VDD*%
X117230000Y-82250000D03*
%TO.P,R73,2*%
%TO.N,Net-(U4-GPIO2{slash}TOUCH2{slash}ADC1_CH1)*%
X118250000Y-82250000D03*
%TD*%
D32*
%TO.P,C28,1*%
%TO.N,GND*%
X123246590Y-120888410D03*
%TO.P,C28,2*%
%TO.N,Net-(C27-Pad2)*%
X122286590Y-120888410D03*
%TD*%
D48*
%TO.P,U9,1,DIR1*%
%TO.N,Net-(U9-DIR1)*%
X119464090Y-100993410D03*
%TO.P,U9,2,DIR2*%
%TO.N,Net-(U9-DIR2)*%
X119464090Y-101643410D03*
%TO.P,U9,3,A1*%
%TO.N,/KF1950/RST_N_1V8*%
X119464090Y-102293410D03*
%TO.P,U9,4,A2*%
%TO.N,/KF1950/TXD_1V8*%
X119464090Y-102943410D03*
%TO.P,U9,5,A3*%
%TO.N,/KF1950/RXD_1V8*%
X119464090Y-103593410D03*
%TO.P,U9,6,A4*%
%TO.N,Net-(U9-A4)*%
X119464090Y-104243410D03*
%TO.P,U9,7,DIR3*%
%TO.N,Net-(U9-DIR3)*%
X119464090Y-104893410D03*
%TO.P,U9,8,DIR4*%
%TO.N,Net-(U9-DIR4)*%
X119464090Y-105543410D03*
%TO.P,U9,9,OE*%
%TO.N,Net-(U9-OE)*%
X125189090Y-105543410D03*
%TO.P,U9,10,GND*%
%TO.N,GND*%
X125189090Y-104893410D03*
%TO.P,U9,11,B4*%
%TO.N,Net-(U9-B4)*%
X125189090Y-104243410D03*
%TO.P,U9,12,B3*%
%TO.N,/ESP_RXD*%
X125189090Y-103593410D03*
%TO.P,U9,13,B2*%
%TO.N,/ESP_TXD*%
X125189090Y-102943410D03*
%TO.P,U9,14,B1*%
%TO.N,/ESP_RST*%
X125189090Y-102293410D03*
%TO.P,U9,15,VCCB*%
%TO.N,/3V3*%
X125189090Y-101643410D03*
%TO.P,U9,16,VCCA*%
%TO.N,/KF1950/1V8*%
X125189090Y-100993410D03*
%TD*%
D26*
%TO.P,R18,1*%
%TO.N,/ESP32/{slash}TPS_EN*%
X104820000Y-70600000D03*
%TO.P,R18,2*%
%TO.N,Net-(Q4-B)*%
X103800000Y-70600000D03*
%TD*%
D25*
%TO.P,R34,1*%
%TO.N,/KF1950/LDO_GND*%
X119286590Y-122888410D03*
%TO.P,R34,2*%
%TO.N,Net-(C31-Pad1)*%
X119286590Y-121868410D03*
%TD*%
D26*
%TO.P,R28,1*%
%TO.N,/KF1950/RXD*%
X121286590Y-118888410D03*
%TO.P,R28,2*%
%TO.N,Net-(R28-Pad2)*%
X120266590Y-118888410D03*
%TD*%
D25*
%TO.P,R37,1*%
%TO.N,Net-(Q1-C)*%
X95250000Y-108770000D03*
%TO.P,R37,2*%
%TO.N,/KF1950/RST_DET*%
X95250000Y-107750000D03*
%TD*%
D30*
%TO.P,R24,1*%
%TO.N,/Fan/FAN_TACH*%
X93560000Y-135710000D03*
%TO.P,R24,2*%
%TO.N,/3V3*%
X94580000Y-135710000D03*
%TD*%
%TO.P,R76,1*%
%TO.N,GND*%
X121037721Y-99888127D03*
%TO.P,R76,2*%
%TO.N,Net-(U9-DIR2)*%
X122057721Y-99888127D03*
%TD*%
D32*
%TO.P,C5,1*%
%TO.N,Net-(U2-AVIN)*%
X92399253Y-72919077D03*
%TO.P,C5,2*%
%TO.N,/Power/AGND*%
X91439253Y-72919077D03*
%TD*%
D49*
%TO.P,C34,1*%
%TO.N,/KF1950/LDO_GND*%
X95500000Y-116750000D03*
%TO.P,C34,2*%
%TO.N,/VDD*%
X95500000Y-115790000D03*
%TD*%
D25*
%TO.P,R22,1,1*%
%TO.N,/Fan/TEMP_DN*%
X93380000Y-124870000D03*
%TO.P,R22,2,2*%
%TO.N,/Fan/TEMP_N*%
X93380000Y-123850000D03*
%TD*%
D30*
%TO.P,R32,1*%
%TO.N,Net-(C27-Pad2)*%
X122286590Y-119888410D03*
%TO.P,R32,2*%
%TO.N,GND*%
X123306590Y-119888410D03*
%TD*%
D29*
%TO.P,C26,1*%
%TO.N,/5V*%
X109440000Y-132739000D03*
%TO.P,C26,2*%
%TO.N,/KF1950/LDO_GND*%
X110400000Y-132739000D03*
%TD*%
D50*
%TO.P,U23,1*%
%TO.N,Net-(U4-GPIO2{slash}TOUCH2{slash}ADC1_CH1)*%
X118400000Y-85000000D03*
%TO.P,U23,2,-*%
%TO.N,Net-(U23A--)*%
X117750000Y-85000000D03*
%TO.P,U23,3,+*%
%TO.N,/VDD*%
X117100000Y-85000000D03*
%TO.P,U23,4,V-*%
%TO.N,GND*%
X116450000Y-85000000D03*
%TO.P,U23,5,+*%
%TO.N,unconnected-(U23B-+-Pad5)*%
X116450000Y-90725000D03*
%TO.P,U23,6,-*%
%TO.N,GND*%
X117100000Y-90725000D03*
%TO.P,U23,7*%
%TO.N,unconnected-(U23-Pad7)*%
X117750000Y-90725000D03*
%TO.P,U23,8,V+*%
%TO.N,/3V3*%
X118400000Y-90725000D03*
%TD*%
D29*
%TO.P,C47,1*%
%TO.N,/KF1950/1V8*%
X124826590Y-99888410D03*
%TO.P,C47,2*%
%TO.N,GND*%
X125786590Y-99888410D03*
%TD*%
D51*
%TO.P,C33,1*%
%TO.N,/KF1950/LDO_GND*%
X118536590Y-118388410D03*
%TO.P,C33,2*%
%TO.N,/VDD*%
X118536590Y-116488410D03*
%TD*%
D40*
%TO.P,H2,1,1*%
%TO.N,GND*%
X78558000Y-51054000D03*
X79217010Y-49463010D03*
X79217010Y-52644990D03*
X80808000Y-48804000D03*
D41*
X80808000Y-51054000D03*
D40*
X80808000Y-53304000D03*
X82398990Y-49463010D03*
X82398990Y-52644990D03*
X83058000Y-51054000D03*
%TD*%
D32*
%TO.P,C37,1*%
%TO.N,/VDD*%
X102100000Y-106400000D03*
%TO.P,C37,2*%
%TO.N,GND*%
X101140000Y-106400000D03*
%TD*%
%TO.P,C1,1*%
%TO.N,Net-(U2-DRTN)*%
X92650000Y-82220000D03*
%TO.P,C1,2*%
%TO.N,Net-(U2-BP1V5)*%
X91690000Y-82220000D03*
%TD*%
D30*
%TO.P,R26,1*%
%TO.N,/ESP_RST*%
X127036590Y-102888410D03*
%TO.P,R26,2*%
%TO.N,/KF1950/{slash}RST*%
X128056590Y-102888410D03*
%TD*%
D33*
%TO.P,R79,1*%
%TO.N,/KF1950/RXD_1V8*%
X117536590Y-107388410D03*
%TO.P,R79,2*%
%TO.N,/KF1950/TXD*%
X117536590Y-108408410D03*
%TD*%
D16*
%TO.P,RST_DET1,1,1*%
%TO.N,/KF1950/RST_DET*%
X95400000Y-105800000D03*
%TD*%
D37*
%TO.P,Q1,1,B*%
%TO.N,Net-(Q1-B)*%
X94250000Y-112250000D03*
%TO.P,Q1,2,E*%
%TO.N,Net-(Q1-E)*%
X96150000Y-112250000D03*
%TO.P,Q1,3,C*%
%TO.N,Net-(Q1-C)*%
X95200000Y-110375000D03*
%TD*%
D30*
%TO.P,R15,1*%
%TO.N,/Power/PGOOD*%
X113230000Y-74500000D03*
%TO.P,R15,2*%
%TO.N,/3V3*%
X114250000Y-74500000D03*
%TD*%
D27*
%TO.P,C72,1*%
%TO.N,/VDD*%
X107500000Y-89400000D03*
%TO.P,C72,2*%
%TO.N,GND*%
X113500000Y-89400000D03*
%TD*%
D38*
%TO.P,C3,1*%
%TO.N,/5V*%
X95125000Y-63300000D03*
%TO.P,C3,2*%
%TO.N,GND*%
X98075000Y-63300000D03*
%TD*%
D30*
%TO.P,R3,1*%
%TO.N,Net-(U2-BP1V5)*%
X85590000Y-74330000D03*
%TO.P,R3,2*%
%TO.N,Net-(U2-ADRSEL)*%
X86610000Y-74330000D03*
%TD*%
D32*
%TO.P,C50,1*%
%TO.N,/Fan/TEMP_DP*%
X94440000Y-125940000D03*
%TO.P,C50,2*%
%TO.N,/Fan/TEMP_DN*%
X93480000Y-125940000D03*
%TD*%
D26*
%TO.P,R10,1*%
%TO.N,Net-(U2-VSEL)*%
X88520000Y-73170000D03*
%TO.P,R10,2*%
%TO.N,/Power/AGND*%
X87500000Y-73170000D03*
%TD*%
D49*
%TO.P,C32,1*%
%TO.N,/KF1950/LDO_GND*%
X118286590Y-122888410D03*
%TO.P,C32,2*%
%TO.N,/KF1950/1V8*%
X118286590Y-121928410D03*
%TD*%
D26*
%TO.P,R75,1*%
%TO.N,GND*%
X120056590Y-99888410D03*
%TO.P,R75,2*%
%TO.N,Net-(U9-DIR1)*%
X119036590Y-99888410D03*
%TD*%
D30*
%TO.P,R81,1*%
%TO.N,/3V3*%
X103800000Y-68600000D03*
%TO.P,R81,2*%
%TO.N,/SDA*%
X104820000Y-68600000D03*
%TD*%
D25*
%TO.P,R20,1*%
%TO.N,Net-(C12-Pad1)*%
X93600000Y-83320000D03*
%TO.P,R20,2*%
%TO.N,Net-(U2-BOOT)*%
X93600000Y-82300000D03*
%TD*%
%TO.P,R16,1*%
%TO.N,/3V3*%
X129675000Y-106770000D03*
%TO.P,R16,2*%
%TO.N,/ESP32/EN*%
X129675000Y-105750000D03*
%TD*%
D32*
%TO.P,C52,1*%
%TO.N,/5V*%
X98040000Y-137640000D03*
%TO.P,C52,2*%
%TO.N,GND*%
X97080000Y-137640000D03*
%TD*%
D35*
%TO.P,C11,1*%
%TO.N,Net-(C11-Pad1)*%
X92200000Y-83240000D03*
%TO.P,C11,2*%
%TO.N,/Power/SW*%
X92200000Y-84200000D03*
%TD*%
D29*
%TO.P,C21,1*%
%TO.N,/5V*%
X111140000Y-60030000D03*
%TO.P,C21,2*%
%TO.N,GND*%
X112100000Y-60030000D03*
%TD*%
D30*
%TO.P,R14,1*%
%TO.N,/VDD*%
X85580000Y-76570000D03*
%TO.P,R14,2*%
%TO.N,Net-(U2-VOSNS)*%
X86600000Y-76570000D03*
%TD*%
D35*
%TO.P,C30,1*%
%TO.N,/KF1950/1V8*%
X114240000Y-129200000D03*
%TO.P,C30,2*%
%TO.N,/KF1950/LDO_GND*%
X114240000Y-130160000D03*
%TD*%
D16*
%TO.P,1V8,1,1*%
%TO.N,/KF1950/1V8*%
X116300000Y-129500000D03*
%TD*%
D36*
%TO.P,C2,1*%
%TO.N,/5V*%
X95650000Y-69350000D03*
%TO.P,C2,2*%
%TO.N,GND*%
X97550000Y-69350000D03*
%TD*%
D52*
%TO.P,U3,1,VIN*%
%TO.N,/5V*%
X111185050Y-62440200D03*
%TO.P,U3,2,GND*%
%TO.N,GND*%
X111185050Y-63380000D03*
%TO.P,U3,3,EN*%
%TO.N,/5V*%
X111185050Y-64319800D03*
%TO.P,U3,4,NC*%
%TO.N,unconnected-(U3-NC-Pad4)*%
X113940950Y-64319800D03*
%TO.P,U3,5,VOUT*%
%TO.N,/3V3*%
X113940950Y-62440200D03*
%TD*%
D35*
%TO.P,C31,1*%
%TO.N,Net-(C31-Pad1)*%
X120286590Y-121888410D03*
%TO.P,C31,2*%
%TO.N,/KF1950/LDO_GND*%
X120286590Y-122848410D03*
%TD*%
D47*
%TO.P,J3,1,Pin_1*%
%TO.N,GND*%
X87005000Y-50292000D03*
D53*
%TO.P,J3,2,Pin_2*%
%TO.N,/3V3*%
X87405000Y-52832000D03*
%TO.P,J3,3,Pin_3*%
%TO.N,/SCL*%
X87005000Y-55372000D03*
%TO.P,J3,4,Pin_4*%
%TO.N,/SDA*%
X87405000Y-57912000D03*
%TD*%
D23*
%TO.P,U8,21,VDD*%
%TO.N,/VDD*%
X108510562Y-112846000D03*
X108510562Y-113426000D03*
X107110562Y-115268511D03*
X107110562Y-117221000D03*
X106360562Y-114546000D03*
X106360562Y-115274627D03*
X106360562Y-116246000D03*
X106360562Y-117221000D03*
X106360562Y-117946000D03*
X105960562Y-112846000D03*
X105960562Y-113426000D03*
X105260562Y-112846000D03*
X105260562Y-113426000D03*
X104860562Y-114546000D03*
X104860562Y-115274627D03*
X104860562Y-116246000D03*
X104860562Y-117221000D03*
X104860562Y-117946000D03*
X104110562Y-115274627D03*
X104110562Y-117221000D03*
X102710562Y-112846000D03*
X102710562Y-113426000D03*
%TO.P,U8,22,VSS*%
%TO.N,GND*%
X108560562Y-116546000D03*
X108560562Y-119266000D03*
X108560562Y-120346000D03*
X105610562Y-119266000D03*
X105610562Y-120346000D03*
X102660562Y-116546000D03*
X102660562Y-119266000D03*
X102660562Y-120346000D03*
%TD*%
D16*
%TO.P,IO0,1,1*%
%TO.N,/ESP32/IO0*%
X122500000Y-55100000D03*
%TD*%
D30*
%TO.P,R8,1*%
%TO.N,Net-(Q4-C)*%
X89050000Y-70100000D03*
%TO.P,R8,2*%
%TO.N,GND*%
X90070000Y-70100000D03*
%TD*%
D54*
%TO.N,GND*%
X91000000Y-71100000D03*
X99300000Y-110000000D03*
X98600000Y-108300000D03*
X99900000Y-106800000D03*
X98300000Y-106800000D03*
X98300000Y-105500000D03*
X98300000Y-103900000D03*
X98300000Y-102300000D03*
X99900000Y-108100000D03*
X105500000Y-121250000D03*
X113284000Y-96520000D03*
X104521009Y-124222568D03*
X102500000Y-122250000D03*
X113284000Y-98552000D03*
X104500000Y-122250000D03*
X100050000Y-61700000D03*
X103400000Y-78600000D03*
X113284000Y-92964000D03*
X100900000Y-78700000D03*
X113284000Y-100076000D03*
%TO.N,/VDD*%
X104900000Y-107400000D03*
%TO.N,GND*%
X101350000Y-62800000D03*
X124400000Y-121000000D03*
X109500000Y-121250000D03*
X97450000Y-60200000D03*
X112000000Y-85750000D03*
X108500000Y-124250000D03*
X100500000Y-65750000D03*
D55*
X116540000Y-70920000D03*
D54*
X101500000Y-125250000D03*
X113400000Y-104300000D03*
X125460000Y-62500000D03*
X118510000Y-111510000D03*
X103500000Y-123250000D03*
X112400000Y-122300000D03*
X100200000Y-111100000D03*
X114400000Y-122300000D03*
D55*
X82400000Y-62400000D03*
D54*
X120600000Y-99000000D03*
X103500000Y-121250000D03*
X101400000Y-61100000D03*
X100100000Y-63300000D03*
X113000000Y-108700000D03*
X100100000Y-60200000D03*
X107500000Y-125250000D03*
X107500000Y-121250000D03*
X99000000Y-78800000D03*
X101800000Y-75100000D03*
X96070000Y-137650000D03*
X122440000Y-112230000D03*
X110400000Y-122300000D03*
X119270000Y-54220000D03*
X128130000Y-56090000D03*
D55*
X80680000Y-61050000D03*
X104600000Y-143100000D03*
D54*
X103124000Y-76200000D03*
X100584000Y-67564000D03*
X114808000Y-84836000D03*
X99100000Y-64900000D03*
X91600000Y-87500000D03*
X113500000Y-85900000D03*
X110400000Y-124300000D03*
X100500000Y-102300000D03*
X113409725Y-123302118D03*
X112100000Y-89900000D03*
X98750000Y-61100000D03*
X122397194Y-116927014D03*
X113000000Y-106900000D03*
X96070000Y-141200000D03*
X102300000Y-77500000D03*
X98000000Y-111900000D03*
X113284000Y-89916000D03*
D55*
X117910000Y-70950000D03*
D54*
X101500000Y-123250000D03*
X126799059Y-104821612D03*
D55*
X80800000Y-62400000D03*
D54*
X109500000Y-123250000D03*
X111400000Y-123300000D03*
X113284000Y-91440000D03*
X112000000Y-87750000D03*
X98600000Y-72000000D03*
X113284000Y-94996000D03*
X113400000Y-121300000D03*
X100490000Y-76000000D03*
X113000000Y-110600000D03*
X101000000Y-70600000D03*
X98500000Y-76000000D03*
X100500000Y-72800000D03*
X114808000Y-88392000D03*
X112000000Y-83900000D03*
X90600000Y-85400000D03*
X92680000Y-133370000D03*
X106495762Y-124222568D03*
X131125000Y-107620000D03*
X107500000Y-123250000D03*
X112512000Y-61250000D03*
X106500000Y-122250000D03*
X104648000Y-75692000D03*
X109500000Y-125250000D03*
X111400000Y-125300000D03*
D55*
X119454234Y-70914234D03*
D54*
X112400000Y-124300000D03*
X89800000Y-87600000D03*
X103500000Y-125250000D03*
X102500000Y-124250000D03*
D55*
X126492000Y-83820000D03*
D54*
X101350000Y-64750000D03*
X108500000Y-122250000D03*
%TO.N,/VDD*%
X102500000Y-101300000D03*
%TO.N,GND*%
X114808000Y-89916000D03*
X105509725Y-123252118D03*
X104648000Y-77216000D03*
X101500000Y-121250000D03*
X111400000Y-121300000D03*
X98800000Y-70300000D03*
X132297000Y-108743000D03*
X124400000Y-118400000D03*
X99500000Y-74920000D03*
X114808000Y-86868000D03*
%TO.N,/VDD*%
X102500000Y-96750000D03*
X103750000Y-100100000D03*
X106300000Y-109200000D03*
X105000000Y-99000000D03*
X106200000Y-104800000D03*
X106250000Y-95550000D03*
X106150000Y-93150000D03*
X108800000Y-110600000D03*
X107500000Y-101300000D03*
X108200000Y-111200000D03*
D56*
X102200000Y-86600000D03*
D54*
X117200000Y-116200000D03*
X84500000Y-76160000D03*
X119500000Y-115900000D03*
X107450000Y-103700000D03*
X107500000Y-96750000D03*
X102500000Y-99000000D03*
D56*
X106400000Y-82400000D03*
D54*
X107400000Y-111800000D03*
X106250000Y-100100000D03*
X103700000Y-104800000D03*
D56*
X106200000Y-81400000D03*
X100600000Y-83000000D03*
D54*
X107500000Y-99000000D03*
X103700000Y-111500000D03*
X103200000Y-106600000D03*
D56*
X102200000Y-85400000D03*
D54*
X103750000Y-97900000D03*
X106250000Y-97900000D03*
D56*
X99780000Y-81020000D03*
D54*
X107450000Y-105900000D03*
X106200000Y-107100000D03*
D56*
X101000000Y-84400000D03*
D54*
X104900000Y-92000000D03*
D56*
X103100000Y-82500000D03*
D54*
X103650000Y-93150000D03*
X103700000Y-102550000D03*
D56*
X101400000Y-82600000D03*
X99800000Y-85400000D03*
D54*
X106200000Y-102550000D03*
X107500000Y-94400000D03*
X105300000Y-111400000D03*
D56*
X99800000Y-82600000D03*
X101000000Y-85400000D03*
X102200000Y-84400000D03*
X106400000Y-84200000D03*
D54*
X108800000Y-111800000D03*
X104950000Y-103700000D03*
D56*
X99800000Y-86600000D03*
D54*
X105000000Y-101300000D03*
D56*
X106400000Y-85400000D03*
D54*
X107400000Y-92000000D03*
X106700000Y-111400000D03*
D56*
X107200000Y-86200000D03*
D54*
X105000000Y-96750000D03*
X103750000Y-95550000D03*
D56*
X97400000Y-114600000D03*
X99800000Y-84400000D03*
X116199410Y-82499410D03*
X102300000Y-83000000D03*
D54*
X118200000Y-115778889D03*
X104400000Y-109200000D03*
D56*
X108000000Y-85400000D03*
D54*
X102400000Y-92000000D03*
D56*
X105200000Y-82400000D03*
D54*
X105000000Y-94400000D03*
X102400000Y-111500000D03*
X104950000Y-105900000D03*
D56*
X101000000Y-86600000D03*
D54*
X102500000Y-94400000D03*
D56*
%TO.N,/ESP32/EN*%
X122101300Y-70905000D03*
X129663000Y-104448000D03*
D54*
%TO.N,/5V*%
X93620000Y-68280000D03*
D55*
X81000000Y-69800000D03*
D54*
X92350000Y-66250000D03*
X93600000Y-69250000D03*
X93600000Y-71200000D03*
X92350000Y-68300000D03*
D57*
X109280000Y-61185155D03*
D54*
X108290000Y-131179000D03*
X93600000Y-67250000D03*
X92350000Y-70250000D03*
D55*
X80680000Y-70950000D03*
D54*
X93620000Y-70230000D03*
X92330000Y-71220000D03*
X92330000Y-69270000D03*
X98770000Y-138720000D03*
X93620000Y-66230000D03*
X92330000Y-67270000D03*
D56*
X104700000Y-139400000D03*
D55*
X82400000Y-69800000D03*
D54*
%TO.N,/3V3*%
X129830000Y-56090000D03*
D55*
X124500000Y-83750000D03*
D54*
X114250000Y-75500000D03*
X95550000Y-135970000D03*
D57*
X111440000Y-55180000D03*
D55*
X118400000Y-93600000D03*
D54*
X126786590Y-100888410D03*
X118711400Y-59800000D03*
X129685000Y-107630000D03*
D55*
X115370000Y-61560000D03*
D54*
X95560000Y-126330000D03*
D56*
%TO.N,/SCL*%
X94317599Y-134229617D03*
X105800000Y-65700000D03*
X88970000Y-81220000D03*
%TO.N,/Fan/FAN_PWM*%
X90900000Y-132800000D03*
%TO.N,Net-(U2-BP1V5)*%
X89200000Y-82980000D03*
X83660000Y-76570000D03*
%TO.N,/ESP32/P_TX*%
X124140000Y-60250000D03*
%TO.N,/ESP32/P_RX*%
X123040000Y-59730000D03*
%TO.N,/ESP32/IO0*%
X121244400Y-66945600D03*
X124830000Y-55100000D03*
X130600000Y-103600000D03*
%TO.N,Net-(U2-VDD5)*%
X92570000Y-74110000D03*
X96400000Y-70300000D03*
%TO.N,/Power/PGOOD*%
X89020000Y-82280000D03*
X112500000Y-74500000D03*
%TO.N,Net-(C27-Pad2)*%
X116786590Y-119638410D03*
%TO.N,/SDA*%
X82130000Y-73910000D03*
X94340000Y-133580000D03*
X88990000Y-80510000D03*
X82390000Y-75900000D03*
X106000000Y-68000000D03*
%TO.N,/Power/AGND*%
X89340000Y-73770000D03*
X89170000Y-77830000D03*
X90600000Y-72600000D03*
X89340000Y-74960000D03*
%TO.N,/Power/PMB_ALRT*%
X106200000Y-72100000D03*
X93330000Y-81550000D03*
%TO.N,/Fan/FAN_TACH*%
X93570000Y-136700000D03*
%TO.N,Net-(C31-Pad1)*%
X119786590Y-122200000D03*
%TO.N,Net-(Q1-E)*%
X100200000Y-116000000D03*
%TO.N,Net-(R28-Pad2)*%
X116786590Y-117638410D03*
%TO.N,Net-(R38-Pad2)*%
X98200000Y-115600000D03*
%TO.N,Net-(R38-Pad1)*%
X97000000Y-117254133D03*
%TO.N,Net-(U4-GPIO2{slash}TOUCH2{slash}ADC1_CH1)*%
X120850000Y-69510000D03*
X123750000Y-61500000D03*
%TO.N,/KF1950/LDO_GND*%
X116786590Y-122888410D03*
X95600000Y-118200000D03*
%TO.N,/KF1950/1V8*%
X121400000Y-115400000D03*
X124800000Y-99200000D03*
X116786590Y-121649410D03*
X122400000Y-121900000D03*
X121400000Y-116000000D03*
X122400000Y-122800000D03*
%TO.N,/KF1950/TXD*%
X117536590Y-109638410D03*
%TO.N,/ESP_RXD*%
X120000000Y-79600000D03*
%TO.N,/KF1950/CTSI_1V8*%
X116786590Y-116929889D03*
%TO.N,/KF1950/CLKI*%
X116400000Y-112800000D03*
%TO.N,/ESP_TXD*%
X120600000Y-80200000D03*
%TO.N,/ESP_RST*%
X121476817Y-70170000D03*
%TO.N,/ESP32/{slash}TPS_EN*%
X105600000Y-70600000D03*
%TO.N,Net-(0.9V1-Pad1)*%
X93100000Y-115900000D03*
%TO.N,Net-(CTSI1-Pad1)*%
X91300000Y-112400000D03*
%TO.N,Net-(DIR_HI1-Pad1)*%
X91400000Y-117200000D03*
%TO.N,Net-(DIR_LO1-Pad1)*%
X92900000Y-118600000D03*
%TO.N,Net-(RXD2-Pad1)*%
X91400000Y-114400000D03*
%TO.N,Net-(TXD2-Pad1)*%
X91300000Y-110400000D03*
%TD*%
D58*
%TO.N,GND*%
X90070000Y-71100000D02*
X90070000Y-70100000D01*
X90970000Y-71130000D02*
X90040000Y-71130000D01*
X91000000Y-71100000D02*
X90970000Y-71130000D01*
X90100000Y-70100000D02*
X90700000Y-69500000D01*
X90700000Y-69500000D02*
X90700000Y-68250000D01*
D59*
X90070000Y-70100000D02*
X90100000Y-70100000D01*
X90040000Y-70130000D02*
X90070000Y-70100000D01*
D58*
X90040000Y-71130000D02*
X90040000Y-70130000D01*
%TO.N,/KF1950/1V8*%
X122368410Y-121868410D02*
X122400000Y-121900000D01*
X121286590Y-121868410D02*
X122368410Y-121868410D01*
D60*
X122400000Y-123600000D02*
X122400000Y-122800000D01*
X116400000Y-129600000D02*
X122400000Y-123600000D01*
D61*
%TO.N,/Fan/FAN_PWM*%
X91200000Y-133100000D02*
X90900000Y-132800000D01*
X91144000Y-143200744D02*
X91200000Y-143144744D01*
X91200000Y-143144744D02*
X91200000Y-133100000D01*
X90900000Y-144090000D02*
X91144000Y-143846000D01*
X91144000Y-143846000D02*
X91144000Y-143200744D01*
D59*
%TO.N,Net-(U9-A4)*%
X120504070Y-104243410D02*
X119464090Y-104243410D01*
X122600000Y-106339340D02*
X120504070Y-104243410D01*
X122600000Y-107400000D02*
X122600000Y-106339340D01*
%TO.N,Net-(U9-B4)*%
X124248990Y-104351010D02*
X124356590Y-104243410D01*
X124248990Y-106348990D02*
X124248990Y-104351010D01*
X124356590Y-104243410D02*
X125189090Y-104243410D01*
X125200000Y-107300000D02*
X124248990Y-106348990D01*
D61*
%TO.N,GND*%
X126727261Y-104893410D02*
X125189090Y-104893410D01*
X126799059Y-104821612D02*
X126727261Y-104893410D01*
D59*
%TO.N,/KF1950/RXD*%
X128509190Y-104341010D02*
X128056590Y-103888410D01*
X128509190Y-109790810D02*
X128509190Y-104341010D01*
X125786590Y-112513410D02*
X128509190Y-109790810D01*
X125786590Y-114388410D02*
X125786590Y-112513410D01*
X121286590Y-118888410D02*
X125786590Y-114388410D01*
%TO.N,/KF1950/{slash}RST*%
X128900000Y-103731820D02*
X128056590Y-102888410D01*
X128900000Y-112255000D02*
X128900000Y-103731820D01*
X122266590Y-118888410D02*
X128900000Y-112255000D01*
D58*
%TO.N,GND*%
X126856584Y-99888410D02*
X127996590Y-101028416D01*
D59*
X112640000Y-61122000D02*
X112512000Y-61250000D01*
D58*
X111185050Y-63380000D02*
X111189050Y-63376000D01*
X104265000Y-142765000D02*
X102045000Y-142765000D01*
X125786590Y-99888410D02*
X126856584Y-99888410D01*
D61*
X127536190Y-104648810D02*
X127536190Y-102348810D01*
D58*
X114800000Y-89924000D02*
X114800000Y-92600000D01*
X115344000Y-92456000D02*
X117404000Y-92456000D01*
X120600000Y-99000000D02*
X120600000Y-99888410D01*
D61*
X85580000Y-77640000D02*
X84680000Y-77640000D01*
D59*
X123306590Y-119888410D02*
X123306590Y-120828410D01*
D58*
X120600000Y-99345000D02*
X120056590Y-99888410D01*
X126250000Y-84250000D02*
X126250000Y-84750000D01*
X114808000Y-89916000D02*
X114800000Y-89924000D01*
D61*
X97200000Y-141210000D02*
X96080000Y-141210000D01*
X118480000Y-55010000D02*
X119270000Y-54220000D01*
D59*
X123358180Y-121000000D02*
X123246590Y-120888410D01*
D58*
X111189050Y-63376000D02*
X111824000Y-63376000D01*
D61*
X121037438Y-99888410D02*
X121037721Y-99888127D01*
D58*
X91600000Y-87500000D02*
X91575000Y-87500000D01*
X118536590Y-111483410D02*
X121693410Y-111483410D01*
D59*
X125460000Y-62500000D02*
X125460000Y-61500000D01*
X118536590Y-111483410D02*
X118510000Y-111510000D01*
D60*
X80680000Y-61050000D02*
X80680000Y-61080000D01*
D59*
X114980000Y-83250000D02*
X113750000Y-83250000D01*
D58*
X89800000Y-87600000D02*
X89800000Y-87325000D01*
D61*
X121345194Y-116927014D02*
X121306590Y-116888410D01*
D58*
X83850000Y-87700000D02*
X83970000Y-87580000D01*
D61*
X83970000Y-78350000D02*
X83970000Y-78940000D01*
D59*
X121306590Y-117888410D02*
X121306590Y-116888410D01*
D61*
X84680000Y-77640000D02*
X83970000Y-78350000D01*
D58*
X120600000Y-99000000D02*
X120600000Y-99345000D01*
X122680000Y-113010000D02*
X122680000Y-112470000D01*
X114808000Y-84836000D02*
X116286000Y-84836000D01*
D60*
X80800000Y-61170000D02*
X80680000Y-61050000D01*
D61*
X118480000Y-55140000D02*
X118480000Y-55010000D01*
D58*
X126250000Y-84750000D02*
X126250000Y-85850000D01*
D61*
X112650000Y-60030000D02*
X112650000Y-61112000D01*
D58*
X109480000Y-125270000D02*
X109500000Y-125250000D01*
D61*
X112100000Y-60030000D02*
X112650000Y-60030000D01*
D59*
X124400000Y-121000000D02*
X123358180Y-121000000D01*
D62*
X118536590Y-108408410D02*
X118536590Y-111483410D01*
D58*
X124400000Y-118400000D02*
X123775000Y-118400000D01*
D61*
X120600000Y-99888410D02*
X121037438Y-99888410D01*
D58*
X126250000Y-85850000D02*
X126650000Y-86250000D01*
X115200000Y-92600000D02*
X115344000Y-92456000D01*
X109480000Y-127750000D02*
X109480000Y-125270000D01*
D61*
X127291590Y-104893410D02*
X128036590Y-105638410D01*
D58*
X91575000Y-87500000D02*
X90600000Y-86525000D01*
D60*
X80800000Y-62400000D02*
X80800000Y-61170000D01*
D58*
X123775000Y-118400000D02*
X123286590Y-118888410D01*
D61*
X131105000Y-106730000D02*
X131105000Y-107600000D01*
X96080000Y-141210000D02*
X96070000Y-141200000D01*
D59*
X118536590Y-108408410D02*
X119536590Y-108408410D01*
X123306590Y-120828410D02*
X123246590Y-120888410D01*
D61*
X92920000Y-133130000D02*
X92680000Y-133370000D01*
D58*
X89800000Y-87325000D02*
X90600000Y-86525000D01*
D61*
X112650000Y-61112000D02*
X112512000Y-61250000D01*
D60*
X81700000Y-62100000D02*
X82310000Y-62100000D01*
D61*
X120056590Y-99888410D02*
X120600000Y-99888410D01*
D59*
X123286590Y-118888410D02*
X123286590Y-119868410D01*
D58*
X126492000Y-84008000D02*
X126250000Y-84250000D01*
D61*
X127291590Y-104893410D02*
X127536190Y-104648810D01*
D58*
X112512000Y-62688000D02*
X112512000Y-61250000D01*
X116286000Y-84836000D02*
X116450000Y-85000000D01*
D61*
X112650000Y-60030000D02*
X113240000Y-60030000D01*
D60*
X80680000Y-61080000D02*
X81700000Y-62100000D01*
D61*
X127536190Y-102348810D02*
X127996590Y-101888410D01*
D59*
X131105000Y-107600000D02*
X131125000Y-107620000D01*
D61*
X97070000Y-137650000D02*
X97080000Y-137640000D01*
D59*
X123286590Y-119868410D02*
X123306590Y-119888410D01*
X113750000Y-83250000D02*
X113500000Y-83500000D01*
D61*
X125189090Y-104893410D02*
X127291590Y-104893410D01*
D58*
X104600000Y-143100000D02*
X104265000Y-142765000D01*
D61*
X122397194Y-116927014D02*
X121345194Y-116927014D01*
D58*
X90600000Y-85400000D02*
X90600000Y-86525000D01*
D61*
X92920000Y-132140000D02*
X92920000Y-133130000D01*
D60*
X80800000Y-62400000D02*
X82010000Y-62400000D01*
D58*
X117404000Y-92456000D02*
X117100000Y-92152000D01*
X118510000Y-111510000D02*
X118510000Y-112590000D01*
X117100000Y-92152000D02*
X117100000Y-90725000D01*
X126492000Y-83820000D02*
X126492000Y-84008000D01*
X122680000Y-112470000D02*
X122440000Y-112230000D01*
D60*
X82010000Y-62400000D02*
X82310000Y-62100000D01*
D61*
X96070000Y-137650000D02*
X97070000Y-137650000D01*
D58*
X114800000Y-92600000D02*
X115200000Y-92600000D01*
X111824000Y-63376000D02*
X112512000Y-62688000D01*
X121693410Y-111483410D02*
X122440000Y-112230000D01*
X127996590Y-101028416D02*
X127996590Y-101888410D01*
%TO.N,/VDD*%
X117200000Y-116200000D02*
X117778889Y-116200000D01*
X118200000Y-115778889D02*
X119378889Y-115778889D01*
X119500000Y-116100000D02*
X119111590Y-116488410D01*
D61*
X97230000Y-114770000D02*
X97400000Y-114600000D01*
D58*
X119500000Y-115900000D02*
X119500000Y-116100000D01*
D59*
X115750000Y-83551180D02*
X115750000Y-82948820D01*
X116198820Y-84000000D02*
X115750000Y-83551180D01*
D61*
X95500000Y-114770000D02*
X97230000Y-114770000D01*
D59*
X116448820Y-82250000D02*
X117230000Y-82250000D01*
D58*
X119378889Y-115778889D02*
X119500000Y-115900000D01*
D59*
X84910000Y-76570000D02*
X84500000Y-76160000D01*
D58*
X119111590Y-116488410D02*
X118536590Y-116488410D01*
X117778889Y-116200000D02*
X118200000Y-115778889D01*
D59*
X117100000Y-85000000D02*
X117100000Y-84262501D01*
D61*
X95500000Y-115790000D02*
X95500000Y-114770000D01*
D59*
X115750000Y-82948820D02*
X116448820Y-82250000D01*
X85580000Y-76570000D02*
X84910000Y-76570000D01*
X116837499Y-84000000D02*
X116198820Y-84000000D01*
X117100000Y-84262501D02*
X116837499Y-84000000D01*
D61*
%TO.N,/ESP32/EN*%
X122101300Y-70905000D02*
X122428000Y-71231700D01*
X122428000Y-87178000D02*
X128750000Y-93500000D01*
X131105000Y-105770000D02*
X129695000Y-105770000D01*
X122101300Y-68911300D02*
X122101300Y-70905000D01*
X129663000Y-103747575D02*
X129663000Y-104448000D01*
X129695000Y-105770000D02*
X129675000Y-105750000D01*
X129663000Y-105738000D02*
X129675000Y-105750000D01*
X118460000Y-65270000D02*
X122101300Y-68911300D01*
X122428000Y-71231700D02*
X122428000Y-87178000D01*
X128750000Y-93500000D02*
X128750000Y-102834575D01*
X128750000Y-102834575D02*
X129663000Y-103747575D01*
X129663000Y-104448000D02*
X129663000Y-105738000D01*
X118460000Y-62540000D02*
X118460000Y-65270000D01*
%TO.N,/5V*%
X98500000Y-137640000D02*
X98770000Y-137910000D01*
X111051000Y-64453850D02*
X111185050Y-64319800D01*
X111140000Y-60030000D02*
X111140000Y-60850000D01*
D58*
X109280000Y-63317000D02*
X110282800Y-64319800D01*
D61*
X98640000Y-140240000D02*
X98640000Y-138850000D01*
X98770000Y-137910000D02*
X98770000Y-138720000D01*
D60*
X81250000Y-69800000D02*
X82390000Y-70940000D01*
X81000000Y-69800000D02*
X81000000Y-70630000D01*
D61*
X97200000Y-140250000D02*
X98630000Y-140250000D01*
X98630000Y-140250000D02*
X98640000Y-140240000D01*
D60*
X81000000Y-70630000D02*
X80680000Y-70950000D01*
X81000000Y-69800000D02*
X82400000Y-69800000D01*
X82400000Y-69800000D02*
X82400000Y-70930000D01*
D58*
X109843500Y-131179000D02*
X109440000Y-131582500D01*
X108290000Y-131179000D02*
X108290000Y-129730000D01*
D61*
X98640000Y-138850000D02*
X98770000Y-138720000D01*
D60*
X81000000Y-69800000D02*
X81250000Y-69800000D01*
D58*
X108290000Y-129730000D02*
X108741000Y-129279000D01*
D60*
X82400000Y-70930000D02*
X82390000Y-70940000D01*
D58*
X110282800Y-64319800D02*
X111185050Y-64319800D01*
X102045000Y-139815000D02*
X100950000Y-138720000D01*
X100950000Y-138720000D02*
X98770000Y-138720000D01*
D60*
X80690000Y-70940000D02*
X80680000Y-70950000D01*
D58*
X109440000Y-131582500D02*
X109440000Y-132739000D01*
X108290000Y-131179000D02*
X109843500Y-131179000D01*
D61*
X111140000Y-60850000D02*
X111150000Y-60860000D01*
X98040000Y-137640000D02*
X98500000Y-137640000D01*
D58*
X108741000Y-129279000D02*
X109843500Y-129279000D01*
D60*
X82390000Y-70940000D02*
X80690000Y-70940000D01*
D58*
X109280000Y-61185155D02*
X109280000Y-63317000D01*
%TO.N,/3V3*%
X126786590Y-100888410D02*
X126786590Y-101638410D01*
X125290000Y-84750000D02*
X125290000Y-84540000D01*
D59*
X126786590Y-101638410D02*
X126781590Y-101643410D01*
D58*
X125290000Y-84540000D02*
X124500000Y-83750000D01*
D61*
X94870000Y-127840000D02*
X94870000Y-127020000D01*
D63*
X91132000Y-52832000D02*
X93480000Y-55180000D01*
D58*
X118400000Y-93600000D02*
X118400000Y-92492000D01*
D59*
X114250000Y-74500000D02*
X114250000Y-75500000D01*
D58*
X124750000Y-86250000D02*
X124750000Y-85290000D01*
X103780000Y-67600000D02*
X103780000Y-68580000D01*
D61*
X129685000Y-106780000D02*
X129675000Y-106770000D01*
X103780000Y-67600000D02*
X103780000Y-55400000D01*
D58*
X118400000Y-92492000D02*
X118364000Y-92456000D01*
X118364000Y-92456000D02*
X118364000Y-90761000D01*
X118364000Y-90761000D02*
X118400000Y-90725000D01*
D61*
X118480000Y-59568600D02*
X118711400Y-59800000D01*
D63*
X93480000Y-55180000D02*
X104000000Y-55180000D01*
D61*
X94870000Y-127020000D02*
X95560000Y-126330000D01*
X114200000Y-60030000D02*
X114200000Y-60910000D01*
D59*
X124460000Y-82296000D02*
X124460000Y-83710000D01*
D61*
X95550000Y-135970000D02*
X95290000Y-135710000D01*
X118480000Y-58690000D02*
X118480000Y-59568600D01*
D63*
X104000000Y-55180000D02*
X111440000Y-55180000D01*
X91132000Y-52832000D02*
X87355000Y-52832000D01*
D58*
X103800000Y-68600000D02*
X103800000Y-69600000D01*
X126781590Y-101643410D02*
X125189090Y-101643410D01*
D61*
X95290000Y-135710000D02*
X94580000Y-135710000D01*
D58*
X124750000Y-85290000D02*
X125290000Y-84750000D01*
D59*
X124460000Y-83710000D02*
X124500000Y-83750000D01*
D61*
X129685000Y-107630000D02*
X129685000Y-106780000D01*
D58*
X103780000Y-55400000D02*
X104000000Y-55180000D01*
X103780000Y-68580000D02*
X103800000Y-68600000D01*
D59*
%TO.N,/SCL*%
X88970000Y-81220000D02*
X89070000Y-81320000D01*
X94397490Y-134229617D02*
X94317599Y-134229617D01*
X89070000Y-81320000D02*
X91310000Y-81320000D01*
X94870000Y-133757107D02*
X94397490Y-134229617D01*
X94870000Y-132140000D02*
X94870000Y-133757107D01*
D61*
X104800000Y-67600000D02*
X104800000Y-66700000D01*
D59*
X91310000Y-81320000D02*
X91830000Y-80800000D01*
D61*
X104800000Y-66700000D02*
X105800000Y-65700000D01*
D59*
X91830000Y-80800000D02*
X91830000Y-80090000D01*
D61*
%TO.N,/Fan/FAN_PWM*%
X90900000Y-144171600D02*
X90900000Y-144090000D01*
X98640000Y-142223000D02*
X97241000Y-143622000D01*
X96153000Y-144710000D02*
X97241000Y-143622000D01*
X90900000Y-144090000D02*
X90900000Y-144310000D01*
X90900000Y-131800000D02*
X92920000Y-129780000D01*
X91300000Y-144710000D02*
X96153000Y-144710000D01*
X92920000Y-129780000D02*
X92920000Y-127840000D01*
X98640000Y-141260000D02*
X98640000Y-142223000D01*
X90900000Y-132800000D02*
X90900000Y-131800000D01*
X90900000Y-144310000D02*
X91300000Y-144710000D01*
D58*
%TO.N,/Power/SW*%
X95500000Y-86050000D02*
X92550000Y-86050000D01*
D59*
X96280000Y-85270000D02*
X96295000Y-85255000D01*
D58*
X96295000Y-85255000D02*
X95500000Y-86050000D01*
D59*
X95990000Y-85560000D02*
X96295000Y-85255000D01*
D58*
X92550000Y-86050000D02*
X92200000Y-85700000D01*
X92200000Y-85700000D02*
X92200000Y-84200000D01*
D59*
X95800000Y-85750000D02*
X96295000Y-85255000D01*
D58*
X95865000Y-84800000D02*
X96320000Y-85255000D01*
D61*
X95950000Y-85600000D02*
X96295000Y-85255000D01*
D59*
%TO.N,Net-(U2-DRTN)*%
X92830000Y-82040000D02*
X92650000Y-82220000D01*
X92830000Y-80090000D02*
X92830000Y-82040000D01*
%TO.N,Net-(U2-BP1V5)*%
X85590000Y-74330000D02*
X85590000Y-75500000D01*
X83660000Y-75850000D02*
X83660000Y-76570000D01*
X85590000Y-73360000D02*
X85590000Y-74330000D01*
X84010000Y-75500000D02*
X83660000Y-75850000D01*
X89200000Y-82980000D02*
X89960000Y-82220000D01*
X85110000Y-72100000D02*
X85110000Y-72880000D01*
X85110000Y-72880000D02*
X85590000Y-73360000D01*
X92330000Y-80090000D02*
X92330000Y-81020000D01*
X89960000Y-82220000D02*
X91690000Y-82220000D01*
X92330000Y-81020000D02*
X91690000Y-81660000D01*
X91690000Y-81660000D02*
X91690000Y-82220000D01*
X85590000Y-75500000D02*
X84010000Y-75500000D01*
%TO.N,Net-(U2-AVIN)*%
X93830000Y-75090000D02*
X93851600Y-75068400D01*
D58*
X92399253Y-72919077D02*
X93359077Y-72919077D01*
D59*
X93851600Y-73411600D02*
X93370000Y-72930000D01*
D58*
X93359077Y-72919077D02*
X93370000Y-72930000D01*
D59*
X93851600Y-75068400D02*
X93851600Y-73411600D01*
%TO.N,Net-(Q4-C)*%
X91614043Y-73433208D02*
X90633208Y-73433208D01*
X89847400Y-71897400D02*
X89080000Y-71130000D01*
X90633208Y-73433208D02*
X89847400Y-72647400D01*
X89847400Y-72647400D02*
X89847400Y-71897400D01*
X89080000Y-71130000D02*
X89080000Y-70130000D01*
X93330000Y-75090000D02*
X93330000Y-74040000D01*
X93330000Y-74040000D02*
X93380000Y-73990000D01*
X89750000Y-69400000D02*
X89750000Y-66375000D01*
X89080000Y-71340000D02*
X89080000Y-71130000D01*
X92900000Y-73510000D02*
X91690835Y-73510000D01*
X93380000Y-73990000D02*
X92900000Y-73510000D01*
X89050000Y-71100000D02*
X89080000Y-71130000D01*
X89050000Y-70100000D02*
X89750000Y-69400000D01*
X89080000Y-70130000D02*
X89050000Y-70100000D01*
X89080000Y-71130000D02*
X89080000Y-71240000D01*
X89080000Y-71130000D02*
X88925200Y-70975200D01*
X91690835Y-73510000D02*
X91614043Y-73433208D01*
D61*
%TO.N,/ESP32/P_TX*%
X123105000Y-61865000D02*
X122430000Y-62540000D01*
X124140000Y-60250000D02*
X123105000Y-61285000D01*
X123105000Y-61285000D02*
X123105000Y-61865000D01*
%TO.N,/ESP32/P_RX*%
X123040000Y-59730000D02*
X123040000Y-59450000D01*
X123040000Y-59450000D02*
X122420000Y-58830000D01*
%TO.N,/ESP32/IO0*%
X120440000Y-66141200D02*
X120440000Y-58060000D01*
X124260000Y-55677000D02*
X124260000Y-55670000D01*
X124260000Y-55670000D02*
X124830000Y-55100000D01*
X124830000Y-55100000D02*
X122450000Y-55100000D01*
X122936000Y-86936000D02*
X122936000Y-68637200D01*
X130600000Y-103200000D02*
X130500000Y-103100000D01*
X130500000Y-103100000D02*
X130500000Y-94500000D01*
X130600000Y-103600000D02*
X130600000Y-103200000D01*
X130500000Y-94500000D02*
X122936000Y-86936000D01*
X122450000Y-55100000D02*
X122440000Y-55090000D01*
X121244400Y-66945600D02*
X120440000Y-66141200D01*
X123037000Y-56900000D02*
X124260000Y-55677000D01*
X121600000Y-56900000D02*
X123037000Y-56900000D01*
X122936000Y-68637200D02*
X121244400Y-66945600D01*
X120440000Y-58060000D02*
X121600000Y-56900000D01*
%TO.N,Net-(U2-VDD5)*%
X96105636Y-70993183D02*
X96105636Y-70594364D01*
D59*
X92830000Y-75090000D02*
X92830000Y-74370000D01*
X92830000Y-74370000D02*
X92570000Y-74110000D01*
D61*
X96105636Y-70594364D02*
X96400000Y-70300000D01*
D59*
%TO.N,/Power/PGOOD*%
X90830000Y-80090000D02*
X89870000Y-80090000D01*
X88470000Y-81730000D02*
X89020000Y-82280000D01*
X113230000Y-74500000D02*
X112500000Y-74500000D01*
X88470000Y-80300000D02*
X88470000Y-81730000D01*
X89700000Y-79920000D02*
X88850000Y-79920000D01*
X89870000Y-80090000D02*
X89700000Y-79920000D01*
X88850000Y-79920000D02*
X88470000Y-80300000D01*
%TO.N,Net-(C27-Pad2)*%
X119842400Y-120312600D02*
X120266590Y-119888410D01*
X118000000Y-119800000D02*
X118512600Y-120312600D01*
X122286590Y-120888410D02*
X122286590Y-119888410D01*
X121266590Y-120888410D02*
X122286590Y-120888410D01*
X116948180Y-119800000D02*
X118000000Y-119800000D01*
X120266590Y-119888410D02*
X121266590Y-120888410D01*
X116786590Y-119638410D02*
X116948180Y-119800000D01*
X118512600Y-120312600D02*
X119842400Y-120312600D01*
%TO.N,/SDA*%
X89430000Y-80950000D02*
X91100000Y-80950000D01*
D61*
X104820000Y-68600000D02*
X105400000Y-68600000D01*
X105400000Y-68600000D02*
X106000000Y-68000000D01*
D59*
X94220000Y-133460000D02*
X94340000Y-133580000D01*
X91330000Y-80720000D02*
X91330000Y-80090000D01*
X88990000Y-80510000D02*
X89430000Y-80950000D01*
X94220000Y-132140000D02*
X94220000Y-133460000D01*
X82390000Y-75900000D02*
X82390000Y-74170000D01*
X91100000Y-80950000D02*
X91330000Y-80720000D01*
X82390000Y-74170000D02*
X82130000Y-73910000D01*
%TO.N,Net-(U2-BOOT)*%
X93600000Y-82300000D02*
X93830000Y-82070000D01*
X93830000Y-82070000D02*
X93830000Y-80090000D01*
%TO.N,Net-(U2-VOSNS)*%
X90080000Y-75840000D02*
X89480000Y-75840000D01*
X87040000Y-77010000D02*
X86600000Y-76570000D01*
X89480000Y-75840000D02*
X88310000Y-77010000D01*
X88310000Y-77010000D02*
X87630000Y-77010000D01*
X87630000Y-77010000D02*
X87040000Y-77010000D01*
%TO.N,Net-(U2-GOSNS)*%
X87190000Y-77970000D02*
X86860000Y-77640000D01*
X87630000Y-77970000D02*
X87190000Y-77970000D01*
X86860000Y-77640000D02*
X86600000Y-77640000D01*
X89600000Y-76340000D02*
X87970000Y-77970000D01*
X90080000Y-76340000D02*
X89600000Y-76340000D01*
X87970000Y-77970000D02*
X87630000Y-77970000D01*
%TO.N,Net-(U2-MSEL1)*%
X88720000Y-75510000D02*
X88510000Y-75720000D01*
X88510000Y-75720000D02*
X88510000Y-76020000D01*
X90820000Y-75080000D02*
X90010000Y-75080000D01*
X88510000Y-76020000D02*
X88140000Y-76390000D01*
X87270000Y-76390000D02*
X86610000Y-75730000D01*
X89580000Y-75510000D02*
X88720000Y-75510000D01*
X88140000Y-76390000D02*
X87270000Y-76390000D01*
X90830000Y-75090000D02*
X90820000Y-75080000D01*
X90010000Y-75080000D02*
X89580000Y-75510000D01*
X86610000Y-75730000D02*
X86610000Y-75500000D01*
%TO.N,Net-(U2-MSEL2)*%
X86513200Y-71276800D02*
X86130000Y-71660000D01*
X90143600Y-73437137D02*
X89672862Y-72966400D01*
X91455882Y-73800000D02*
X91450681Y-73794800D01*
X91450681Y-73794800D02*
X90487300Y-73794800D01*
X90487300Y-73794800D02*
X90143600Y-73451100D01*
X90143600Y-73451100D02*
X90143600Y-73437137D01*
X91552893Y-73800000D02*
X91455882Y-73800000D01*
X92330000Y-75090000D02*
X92330000Y-74577107D01*
X88510000Y-72100000D02*
X88510000Y-71780001D01*
X86130000Y-71660000D02*
X86130000Y-72100000D01*
X88510000Y-71780001D02*
X88006799Y-71276800D01*
X92330000Y-74577107D02*
X91552893Y-73800000D01*
X88006799Y-71276800D02*
X86513200Y-71276800D01*
X89658900Y-72966400D02*
X88792500Y-72100000D01*
X89672862Y-72966400D02*
X89658900Y-72966400D01*
X88792500Y-72100000D02*
X88510000Y-72100000D01*
%TO.N,Net-(U2-ADRSEL)*%
X87710000Y-74940000D02*
X87000000Y-74940000D01*
X86610000Y-74550000D02*
X86610000Y-74330000D01*
X88600000Y-74400000D02*
X88520000Y-74320000D01*
X88330000Y-74320000D02*
X87710000Y-74940000D01*
X88520000Y-74320000D02*
X88330000Y-74320000D01*
X91200000Y-74400000D02*
X88600000Y-74400000D01*
X91330000Y-75090000D02*
X91330000Y-74530000D01*
X91330000Y-74530000D02*
X91200000Y-74400000D01*
X87000000Y-74940000D02*
X86610000Y-74550000D01*
%TO.N,Net-(U2-VSEL)*%
X87971600Y-71781834D02*
X87768166Y-71578400D01*
X89841000Y-73581000D02*
X89841000Y-73562479D01*
X89529000Y-73269000D02*
X89240000Y-72980000D01*
X87211834Y-71578400D02*
X86800000Y-71990234D01*
X86800000Y-73170000D02*
X86610000Y-73360000D01*
X88520000Y-73170000D02*
X87971600Y-72621600D01*
X90357400Y-74097400D02*
X89841000Y-73581000D01*
X91632600Y-74404658D02*
X91325341Y-74097400D01*
X87768166Y-71578400D02*
X87211834Y-71578400D01*
X91632600Y-74406074D02*
X91632600Y-74404658D01*
X89240000Y-72980000D02*
X88530000Y-72980000D01*
X91325341Y-74097400D02*
X90357400Y-74097400D01*
X89547521Y-73269000D02*
X89529000Y-73269000D01*
X89841000Y-73562479D02*
X89547521Y-73269000D01*
X86800000Y-71990234D02*
X86800000Y-73170000D01*
X87971600Y-72621600D02*
X87971600Y-71781834D01*
X91830000Y-74603474D02*
X91632600Y-74406074D01*
X91830000Y-75090000D02*
X91830000Y-74603474D01*
D61*
%TO.N,Net-(U9-OE)*%
X126921590Y-105543410D02*
X127016590Y-105638410D01*
X125189090Y-105543410D02*
X126921590Y-105543410D01*
D59*
%TO.N,/Fan/TEMP_N*%
X93852600Y-124322600D02*
X94749010Y-124322600D01*
X105927600Y-125450000D02*
X106877600Y-126400000D01*
X91650000Y-123880000D02*
X93350000Y-123880000D01*
X94749010Y-124322600D02*
X94823810Y-124397400D01*
X106300000Y-128100000D02*
X106877600Y-127522400D01*
X95042600Y-124616190D02*
X98526410Y-128100000D01*
X93350000Y-123880000D02*
X93380000Y-123850000D01*
X93380000Y-123850000D02*
X93852600Y-124322600D01*
X94848580Y-124397400D02*
X95042600Y-124591420D01*
X94823810Y-124397400D02*
X94848580Y-124397400D01*
X106877600Y-127522400D02*
X106877600Y-126400000D01*
X105002600Y-125450000D02*
X105927600Y-125450000D01*
X98526410Y-128100000D02*
X106300000Y-128100000D01*
X95042600Y-124591420D02*
X95042600Y-124616190D01*
%TO.N,/Fan/TEMP_P*%
X94520000Y-123850000D02*
X94560000Y-123890000D01*
X94560000Y-123890000D02*
X95690000Y-123890000D01*
X99150000Y-127350000D02*
X105002600Y-127350000D01*
X95690000Y-123890000D02*
X99150000Y-127350000D01*
%TO.N,/Power/AGND*%
X88216527Y-75050000D02*
X89250000Y-75050000D01*
X87500000Y-73750000D02*
X87500000Y-74320000D01*
X87500000Y-73750000D02*
X89320000Y-73750000D01*
X90070000Y-77830000D02*
X90080000Y-77840000D01*
X87500000Y-73170000D02*
X87500000Y-73750000D01*
X87490000Y-75720000D02*
X87546527Y-75720000D01*
%TO.N,GND*%
X90070000Y-70100000D02*
X90070000Y-69930000D01*
%TO.N,/Power/AGND*%
X89250000Y-75050000D02*
X89340000Y-74960000D01*
X87490000Y-72100000D02*
X87490000Y-73160000D01*
X87546527Y-75720000D02*
X88216527Y-75050000D01*
X89170000Y-77830000D02*
X90070000Y-77830000D01*
X90919077Y-72919077D02*
X91439253Y-72919077D01*
X90600000Y-72600000D02*
X90919077Y-72919077D01*
X89320000Y-73750000D02*
X89340000Y-73770000D01*
X87490000Y-73160000D02*
X87500000Y-73170000D01*
%TO.N,GND*%
X90070000Y-71100000D02*
X90040000Y-71130000D01*
D61*
%TO.N,/Power/PMB_ALRT*%
X105346705Y-69600000D02*
X106200000Y-70453295D01*
D59*
X93330000Y-80090000D02*
X93330000Y-81550000D01*
D61*
X106200000Y-70453295D02*
X106200000Y-72100000D01*
X104820000Y-69600000D02*
X105346705Y-69600000D01*
D58*
%TO.N,Net-(C11-Pad1)*%
X90960000Y-83240000D02*
X92200000Y-83240000D01*
X90600000Y-83600000D02*
X90960000Y-83240000D01*
D59*
%TO.N,/Fan/TEMP_DP*%
X94520000Y-125860000D02*
X94440000Y-125940000D01*
X94220000Y-126160000D02*
X94440000Y-125940000D01*
X94220000Y-127840000D02*
X94220000Y-126160000D01*
X94520000Y-124870000D02*
X94520000Y-125860000D01*
%TO.N,/Fan/TEMP_DN*%
X93380000Y-124870000D02*
X93380000Y-125840000D01*
X93380000Y-125840000D02*
X93480000Y-125940000D01*
X93570000Y-127840000D02*
X93570000Y-126030000D01*
X93570000Y-126030000D02*
X93480000Y-125940000D01*
D61*
%TO.N,/Fan/FAN_TACH*%
X93570000Y-136700000D02*
X93570000Y-132140000D01*
X93570000Y-140270000D02*
X94701000Y-141401000D01*
X93570000Y-136700000D02*
X93570000Y-140270000D01*
X94701000Y-141401000D02*
X94701000Y-143622000D01*
D59*
%TO.N,Net-(C31-Pad1)*%
X120286590Y-121888410D02*
X121286590Y-122888410D01*
X120266590Y-121868410D02*
X120286590Y-121888410D01*
X119786590Y-122200000D02*
X119455000Y-121868410D01*
X119455000Y-121868410D02*
X119286590Y-121868410D01*
X119286590Y-121868410D02*
X120266590Y-121868410D01*
D61*
%TO.N,Net-(Q1-B)*%
X95500000Y-113500000D02*
X94250000Y-112250000D01*
X95500000Y-113750000D02*
X95500000Y-113500000D01*
%TO.N,Net-(Q1-C)*%
X95200000Y-110375000D02*
X95200000Y-108820000D01*
X95200000Y-108820000D02*
X95250000Y-108770000D01*
%TO.N,Net-(Q1-E)*%
X99900000Y-116000000D02*
X96150000Y-112250000D01*
X100200000Y-116000000D02*
X99900000Y-116000000D01*
D59*
%TO.N,Net-(R28-Pad2)*%
X120286590Y-118868410D02*
X120266590Y-118888410D01*
X120286590Y-117888410D02*
X120286590Y-118868410D01*
X116786590Y-117638410D02*
X120036590Y-117638410D01*
X120036590Y-117638410D02*
X120286590Y-117888410D01*
D61*
%TO.N,Net-(R38-Pad2)*%
X98050000Y-115750000D02*
X98200000Y-115600000D01*
X96500000Y-115750000D02*
X98050000Y-115750000D01*
%TO.N,Net-(R38-Pad1)*%
X97000000Y-117254133D02*
X96515867Y-116770000D01*
X96515867Y-116770000D02*
X96500000Y-116770000D01*
D59*
%TO.N,Net-(U23A--)*%
X117750000Y-83750000D02*
X117750000Y-85000000D01*
X116250000Y-83250000D02*
X117250000Y-83250000D01*
X117250000Y-83250000D02*
X117750000Y-83750000D01*
D61*
%TO.N,Net-(U4-GPIO2{slash}TOUCH2{slash}ADC1_CH1)*%
X120850000Y-71650000D02*
X119400000Y-73100000D01*
X119400000Y-81100000D02*
X118250000Y-82250000D01*
D59*
X118270000Y-82270000D02*
X118250000Y-82250000D01*
X124500000Y-61500000D02*
X123750000Y-61500000D01*
X118270000Y-83250000D02*
X118270000Y-82270000D01*
D61*
X120850000Y-69510000D02*
X120850000Y-71650000D01*
D59*
X118400000Y-83380000D02*
X118270000Y-83250000D01*
D61*
X120850000Y-69510000D02*
X120840000Y-69500000D01*
D59*
X118400000Y-85000000D02*
X118400000Y-83380000D01*
D61*
X119400000Y-73100000D02*
X119400000Y-81100000D01*
D58*
%TO.N,/KF1950/LDO_GND*%
X111000000Y-128250000D02*
X116361590Y-122888410D01*
X111000000Y-132139000D02*
X111000000Y-130220000D01*
X116786590Y-122888410D02*
X118286590Y-122888410D01*
X111000000Y-128250000D02*
X111000000Y-130220000D01*
X118286590Y-122888410D02*
X119286590Y-122888410D01*
X113180000Y-130220000D02*
X114180000Y-130220000D01*
X118960000Y-118811820D02*
X118960000Y-119800000D01*
X109852500Y-130220000D02*
X109843500Y-130229000D01*
X110400000Y-132739000D02*
X111000000Y-132139000D01*
X116131590Y-122233410D02*
X116786590Y-122888410D01*
D59*
X120246590Y-122888410D02*
X120286590Y-122848410D01*
D58*
X116131590Y-119367100D02*
X116131590Y-122233410D01*
X118536590Y-118388410D02*
X118960000Y-118811820D01*
X118536590Y-118388410D02*
X117110280Y-118388410D01*
X111000000Y-130220000D02*
X109852500Y-130220000D01*
X117110280Y-118388410D02*
X116131590Y-119367100D01*
X113180000Y-130220000D02*
X111000000Y-130220000D01*
X116361590Y-122888410D02*
X116786590Y-122888410D01*
X110500000Y-127750000D02*
X111000000Y-128250000D01*
D61*
X95500000Y-118100000D02*
X95600000Y-118200000D01*
D58*
X114180000Y-130220000D02*
X114240000Y-130160000D01*
X119286590Y-122888410D02*
X120246590Y-122888410D01*
D61*
X95500000Y-116750000D02*
X95500000Y-118100000D01*
D58*
%TO.N,/KF1950/1V8*%
X122440000Y-114140000D02*
X122090000Y-114490000D01*
X117065590Y-121928410D02*
X118286590Y-121928410D01*
D61*
X116340000Y-129540000D02*
X116400000Y-129600000D01*
D58*
X112118500Y-129279000D02*
X114161000Y-129279000D01*
D61*
X120800000Y-114500000D02*
X120800000Y-112600000D01*
D58*
X124826590Y-99888410D02*
X124826590Y-100630910D01*
X122090000Y-114490000D02*
X120810000Y-114490000D01*
X114161000Y-129279000D02*
X114240000Y-129200000D01*
X116000000Y-129200000D02*
X116400000Y-129600000D01*
X118286590Y-121928410D02*
X118286590Y-121849440D01*
X116786590Y-121649410D02*
X117065590Y-121928410D01*
X123170000Y-113970000D02*
X122680000Y-113970000D01*
X120536590Y-108408410D02*
X123346600Y-111218420D01*
X118286590Y-121849440D02*
X119136030Y-121000000D01*
X120810000Y-114490000D02*
X120800000Y-114500000D01*
X114240000Y-129200000D02*
X116000000Y-129200000D01*
X121400000Y-115100000D02*
X120800000Y-114500000D01*
X123346600Y-111218420D02*
X123346600Y-113793400D01*
X124826590Y-99888410D02*
X124826590Y-99226590D01*
X120536590Y-112336590D02*
X120800000Y-112600000D01*
X124826590Y-99226590D02*
X124800000Y-99200000D01*
X119136030Y-121000000D02*
X120418180Y-121000000D01*
X120418180Y-121000000D02*
X121286590Y-121868410D01*
X124826590Y-100630910D02*
X125189090Y-100993410D01*
X121400000Y-116000000D02*
X121400000Y-115100000D01*
X123346600Y-113793400D02*
X123170000Y-113970000D01*
D61*
%TO.N,Net-(Q4-B)*%
X92800000Y-59000000D02*
X102600000Y-59000000D01*
X102600000Y-59000000D02*
X103000000Y-59400000D01*
X103000000Y-59400000D02*
X103000000Y-69800000D01*
X88800000Y-63000000D02*
X92800000Y-59000000D01*
X88800000Y-68250000D02*
X88800000Y-63000000D01*
X103000000Y-69800000D02*
X103800000Y-70600000D01*
%TO.N,/KF1950/TXD*%
X117375000Y-109800000D02*
X117536590Y-109638410D01*
D59*
X117536590Y-109638410D02*
X117536590Y-108408410D01*
D61*
X116400000Y-110000000D02*
X116600000Y-109800000D01*
X116600000Y-109800000D02*
X117375000Y-109800000D01*
%TO.N,/KF1950/TXD_1V8*%
X121931112Y-101358409D02*
X121786590Y-101358409D01*
X121786590Y-101358409D02*
X120201589Y-102943410D01*
X122913921Y-100375600D02*
X121931112Y-101358409D01*
X122913921Y-98453261D02*
X122913921Y-100375600D01*
X120201589Y-102943410D02*
X119464090Y-102943410D01*
X119860660Y-95400000D02*
X122913921Y-98453261D01*
X118800000Y-95400000D02*
X119860660Y-95400000D01*
D59*
%TO.N,/KF1950/{slash}RST*%
X121286590Y-119888410D02*
X121286590Y-119868410D01*
X121286590Y-119868410D02*
X122266590Y-118888410D01*
D61*
%TO.N,/ESP_RXD*%
X124379600Y-103593410D02*
X125189090Y-103593410D01*
X120000000Y-93600000D02*
X123443400Y-97043400D01*
X120000000Y-79600000D02*
X120000000Y-93600000D01*
X123443400Y-102657210D02*
X124379600Y-103593410D01*
X123443400Y-97043400D02*
X123443400Y-102657210D01*
D59*
%TO.N,/KF1950/CTSI_1V8*%
X117047711Y-117191010D02*
X116786590Y-116929889D01*
X119983990Y-117191010D02*
X117047711Y-117191010D01*
X120286590Y-116888410D02*
X119983990Y-117191010D01*
D61*
%TO.N,/KF1950/RST_DET*%
X95400000Y-107600000D02*
X95250000Y-107750000D01*
X95400000Y-105800000D02*
X95400000Y-107600000D01*
D59*
%TO.N,Net-(U9-DIR1)*%
X119036590Y-100565910D02*
X119464090Y-100993410D01*
X119036590Y-99888410D02*
X119036590Y-100565910D01*
D61*
%TO.N,Net-(U9-DIR2)*%
X122057721Y-99888127D02*
X120302438Y-101643410D01*
X120302438Y-101643410D02*
X119464090Y-101643410D01*
D59*
%TO.N,Net-(U9-DIR3)*%
X118781590Y-104893410D02*
X119134490Y-104893410D01*
X119464090Y-104893410D02*
X120201589Y-104893410D01*
X120536590Y-105228411D02*
X120536590Y-107388410D01*
X120201589Y-104893410D02*
X120536590Y-105228411D01*
%TO.N,Net-(U9-DIR4)*%
X119536590Y-105615910D02*
X119464090Y-105543410D01*
X119464090Y-107315910D02*
X119536590Y-107388410D01*
X119464090Y-105543410D02*
X119464090Y-107315910D01*
D61*
%TO.N,/KF1950/CLKI*%
X116400000Y-112800000D02*
X117200000Y-113600000D01*
X117200000Y-113600000D02*
X117600000Y-113600000D01*
X117600000Y-113600000D02*
X118500000Y-114500000D01*
D59*
%TO.N,/KF1950/RXD_1V8*%
X118698478Y-103840810D02*
X118726190Y-103840810D01*
X117536590Y-107388410D02*
X117536590Y-105030410D01*
X118973590Y-103593410D02*
X119464090Y-103593410D01*
X117536590Y-105030410D02*
X118176390Y-104390610D01*
X118556249Y-103940810D02*
X118598478Y-103940810D01*
X118726190Y-103840810D02*
X118973590Y-103593410D01*
D61*
X119419690Y-103637810D02*
X119464090Y-103593410D01*
D59*
X118598478Y-103940810D02*
X118698478Y-103840810D01*
X118176390Y-104320668D02*
X118556249Y-103940810D01*
D61*
%TO.N,/KF1950/RST_N_1V8*%
X121008958Y-98000000D02*
X122557321Y-99548363D01*
X122557321Y-99548363D02*
X122557321Y-100227891D01*
D59*
X119464090Y-102293410D02*
X118726591Y-102293410D01*
D61*
X118800000Y-98000000D02*
X121008958Y-98000000D01*
X121956589Y-100538410D02*
X120201589Y-102293410D01*
X122200000Y-100538410D02*
X121956589Y-100538410D01*
X122557321Y-100227891D02*
X122246802Y-100538410D01*
X122246802Y-100538410D02*
X122200000Y-100538410D01*
X120201589Y-102293410D02*
X119464090Y-102293410D01*
%TO.N,/ESP_TXD*%
X125189090Y-102943410D02*
X124357281Y-102943410D01*
X124357281Y-102943410D02*
X123800000Y-102386129D01*
X126091590Y-102943410D02*
X127036590Y-103888410D01*
X123800000Y-96704308D02*
X120600000Y-93504308D01*
X125189090Y-102943410D02*
X126091590Y-102943410D01*
X123800000Y-102386129D02*
X123800000Y-96704308D01*
X120600000Y-93504308D02*
X120600000Y-80200000D01*
%TO.N,/ESP_RST*%
X126441590Y-102293410D02*
X127036590Y-102888410D01*
X124211590Y-96611590D02*
X121410000Y-93810000D01*
X125189090Y-102293410D02*
X126441590Y-102293410D01*
X124211590Y-102293410D02*
X124211590Y-96611590D01*
X125189090Y-102293410D02*
X124211590Y-102293410D01*
X121410000Y-93810000D02*
X121410000Y-70236817D01*
X121410000Y-70236817D02*
X121476817Y-70170000D01*
D59*
%TO.N,Net-(U9-A4)*%
X118681590Y-104243410D02*
X118478990Y-104446010D01*
X119464090Y-104243410D02*
X118681590Y-104243410D01*
X118478990Y-104446010D02*
X118478990Y-107330810D01*
D61*
%TO.N,/ESP32/{slash}TPS_EN*%
X104820000Y-70600000D02*
X105600000Y-70600000D01*
%TO.N,Net-(C12-Pad1)*%
X93400000Y-83520000D02*
X93600000Y-83320000D01*
X93400000Y-84500000D02*
X93400000Y-83520000D01*
%TD*%
%TA.AperFunction,Conductor*%
%TO.N,/3V3*%
G36*
X116122098Y-60569891D02*
G01*
X116168042Y-60622531D01*
X116179431Y-60675009D01*
X116170559Y-62627001D01*
X116150570Y-62693950D01*
X116097558Y-62739464D01*
X116047000Y-62750436D01*
X113476148Y-62759552D01*
X113409039Y-62740105D01*
X113363097Y-62687464D01*
X113351720Y-62633862D01*
X113378338Y-60681872D01*
X113398934Y-60615107D01*
X113452357Y-60570077D01*
X113501879Y-60559564D01*
X116054990Y-60550446D01*
X116122098Y-60569891D01*
G37*
%TD.AperFunction*%
%TD*%
%TA.AperFunction,Conductor*%
%TO.N,/5V*%
G36*
X96081130Y-61880842D02*
G01*
X96127911Y-61932739D01*
X96140148Y-61986307D01*
X96149463Y-69932634D01*
X96129857Y-69999696D01*
X96113146Y-70020458D01*
X96079520Y-70054084D01*
X96026794Y-70145410D01*
X96026793Y-70145413D01*
X95999500Y-70247273D01*
X95999500Y-70325139D01*
X95979815Y-70392178D01*
X95977251Y-70396011D01*
X95970961Y-70405041D01*
X95911414Y-70464589D01*
X95890039Y-70516194D01*
X95884902Y-70528595D01*
X95884901Y-70528597D01*
X95871862Y-70560077D01*
X95870568Y-70559541D01*
X95844356Y-70609642D01*
X95824023Y-70626634D01*
X95791091Y-70648638D01*
X95737583Y-70728720D01*
X95737581Y-70728724D01*
X95723536Y-70799334D01*
X95723536Y-71187031D01*
X95737581Y-71257641D01*
X95737582Y-71257644D01*
X95737583Y-71257646D01*
X95744134Y-71267450D01*
X95791091Y-71337727D01*
X95823167Y-71359159D01*
X95871173Y-71391236D01*
X95871176Y-71391236D01*
X95871177Y-71391237D01*
X95941787Y-71405282D01*
X95941790Y-71405283D01*
X95941792Y-71405283D01*
X96269481Y-71405283D01*
X96288281Y-71401543D01*
X96330395Y-71393166D01*
X96399986Y-71399393D01*
X96455164Y-71442255D01*
X96478409Y-71508145D01*
X96478587Y-71515050D01*
X96470265Y-75376808D01*
X96450436Y-75443805D01*
X96397533Y-75489446D01*
X96346809Y-75500540D01*
X94314544Y-75509453D01*
X94247419Y-75490062D01*
X94201433Y-75437460D01*
X94190000Y-75385454D01*
X94190000Y-72320000D01*
X94189999Y-72320000D01*
X91802944Y-72329510D01*
X91735827Y-72310093D01*
X91689862Y-72257471D01*
X91678460Y-72207064D01*
X91669707Y-71508145D01*
X91551541Y-62073111D01*
X91570384Y-62005834D01*
X91622611Y-61959422D01*
X91673098Y-61947586D01*
X96013717Y-61862476D01*
X96081130Y-61880842D01*
G37*
%TD.AperFunction*%
%TD*%
%TA.AperFunction,Conductor*%
%TO.N,/Power/SW*%
G36*
X95876343Y-79697320D02*
G01*
X95890193Y-79701452D01*
X95904633Y-79700717D01*
X95937442Y-79713726D01*
X95941135Y-79715842D01*
X95951668Y-79722880D01*
X95952152Y-79722154D01*
X95959964Y-79726630D01*
X95968290Y-79733719D01*
X95983882Y-79740850D01*
X95985994Y-79741543D01*
X95985995Y-79741544D01*
X95993479Y-79744001D01*
X96006569Y-79748299D01*
X96060353Y-79759512D01*
X96060356Y-79759511D01*
X96060357Y-79759512D01*
X96081896Y-79758456D01*
X96114212Y-79756873D01*
X96114214Y-79756872D01*
X96114216Y-79756872D01*
X96128337Y-79752450D01*
X96180890Y-79735996D01*
X96208390Y-79722840D01*
X96212645Y-79719996D01*
X96230948Y-79714262D01*
X96247132Y-79703962D01*
X96277204Y-79699771D01*
X96279316Y-79699110D01*
X96281991Y-79699091D01*
X96326544Y-79699286D01*
X96393493Y-79719262D01*
X96439017Y-79772265D01*
X96449999Y-79823284D01*
X96449999Y-79833354D01*
X96452433Y-79855647D01*
X96452524Y-79856473D01*
X96458211Y-79882197D01*
X96464079Y-79908742D01*
X96464081Y-79908747D01*
X96489315Y-79958526D01*
X96502611Y-80009544D01*
X96600000Y-82400000D01*
X97963681Y-83763681D01*
X97997166Y-83825004D01*
X98000000Y-83851362D01*
X98000000Y-86640400D01*
X97980315Y-86707439D01*
X97927511Y-86753194D01*
X97876854Y-86764397D01*
X94285559Y-86789135D01*
X94218386Y-86769913D01*
X94172268Y-86717425D01*
X94160707Y-86664439D01*
X94160843Y-86640400D01*
X94199302Y-79813838D01*
X94219364Y-79746913D01*
X94272425Y-79701456D01*
X94323837Y-79690540D01*
X95876343Y-79697320D01*
G37*
%TD.AperFunction*%
%TD*%
%TA.AperFunction,Conductor*%
%TO.N,GND*%
G36*
X101586138Y-60169770D02*
G01*
X101653141Y-60189579D01*
X101698798Y-60242468D01*
X101709908Y-60293861D01*
X101699999Y-73750000D01*
X101700000Y-73750000D01*
X109798638Y-73750000D01*
X109865677Y-73769685D01*
X109886319Y-73786319D01*
X115087545Y-78987545D01*
X115121030Y-79048868D01*
X115123864Y-79075551D01*
X115006849Y-123688511D01*
X114986988Y-123755499D01*
X114970530Y-123775867D01*
X112482717Y-126263681D01*
X112421394Y-126297166D01*
X112395036Y-126300000D01*
X107833849Y-126300000D01*
X107766810Y-126280315D01*
X107721055Y-126227511D01*
X107712232Y-126200191D01*
X107702574Y-126151639D01*
X107702573Y-126151638D01*
X107702573Y-126151635D01*
X107646854Y-126068246D01*
X107563465Y-126012527D01*
X107563463Y-126012526D01*
X107563460Y-126012525D01*
X107489934Y-125997900D01*
X107489930Y-125997900D01*
X106812675Y-125997900D01*
X106745636Y-125978215D01*
X106724994Y-125961581D01*
X106042081Y-125278668D01*
X105967801Y-125247900D01*
X105967800Y-125247900D01*
X105924765Y-125247900D01*
X105857726Y-125228215D01*
X105821664Y-125192792D01*
X105771854Y-125118246D01*
X105688465Y-125062527D01*
X105688463Y-125062526D01*
X105688460Y-125062525D01*
X105614934Y-125047900D01*
X105614930Y-125047900D01*
X104390270Y-125047900D01*
X104390265Y-125047900D01*
X104316739Y-125062525D01*
X104316735Y-125062527D01*
X104233346Y-125118246D01*
X104177627Y-125201635D01*
X104177625Y-125201639D01*
X104163000Y-125275165D01*
X104163000Y-125624834D01*
X104177625Y-125698360D01*
X104177626Y-125698363D01*
X104177627Y-125698365D01*
X104233346Y-125781754D01*
X104316735Y-125837473D01*
X104316738Y-125837473D01*
X104316739Y-125837474D01*
X104390265Y-125852099D01*
X104390269Y-125852100D01*
X104390270Y-125852100D01*
X105614931Y-125852100D01*
X105614932Y-125852099D01*
X105688465Y-125837473D01*
X105771854Y-125781754D01*
X105771856Y-125781750D01*
X105780490Y-125773118D01*
X105782399Y-125775027D01*
X105784860Y-125772971D01*
X105797487Y-125756105D01*
X105811129Y-125751016D01*
X105822304Y-125741677D01*
X105843211Y-125739050D01*
X105862951Y-125731688D01*
X105877179Y-125734783D01*
X105891629Y-125732968D01*
X105910636Y-125742061D01*
X105931224Y-125746540D01*
X105951100Y-125761419D01*
X105954657Y-125763121D01*
X105959478Y-125767691D01*
X106097145Y-125905358D01*
X106130630Y-125966681D01*
X106125646Y-126036373D01*
X106112566Y-126061929D01*
X106052628Y-126151632D01*
X106052625Y-126151639D01*
X106042968Y-126200191D01*
X106010584Y-126262102D01*
X105949868Y-126296676D01*
X105921351Y-126300000D01*
X98437175Y-126300000D01*
X98370136Y-126280315D01*
X98349494Y-126263681D01*
X97636319Y-125550506D01*
X97602834Y-125489183D01*
X97600000Y-125462825D01*
X97600000Y-116103100D01*
X97619685Y-116036061D01*
X97672489Y-115990306D01*
X97724000Y-115979100D01*
X98004430Y-115979100D01*
X98051081Y-115979100D01*
X98083174Y-115983325D01*
X98147273Y-116000500D01*
X98147275Y-116000500D01*
X98252725Y-116000500D01*
X98252727Y-116000500D01*
X98354587Y-115973207D01*
X98445913Y-115920480D01*
X98520480Y-115845913D01*
X98573207Y-115754587D01*
X98600500Y-115652727D01*
X98600500Y-115547273D01*
X98573207Y-115445413D01*
X98520480Y-115354087D01*
X98445913Y-115279520D01*
X98354587Y-115226793D01*
X98252727Y-115199500D01*
X98147273Y-115199500D01*
X98045413Y-115226793D01*
X98045410Y-115226794D01*
X97954085Y-115279521D01*
X97879521Y-115354085D01*
X97831387Y-115437456D01*
X97780820Y-115485672D01*
X97712213Y-115498894D01*
X97647348Y-115472926D01*
X97606820Y-115416012D01*
X97600000Y-115375456D01*
X97600000Y-115016859D01*
X97619685Y-114949820D01*
X97640804Y-114926865D01*
X97640166Y-114926227D01*
X97671089Y-114895304D01*
X97720480Y-114845913D01*
X97773207Y-114754587D01*
X97800500Y-114652727D01*
X97800500Y-114547273D01*
X97800499Y-114547271D01*
X97799439Y-114539217D01*
X97802480Y-114538816D01*
X97803781Y-114483540D01*
X97842927Y-114425666D01*
X97907148Y-114398144D01*
X97976054Y-114409711D01*
X98009585Y-114433582D01*
X99770225Y-116194222D01*
X99770230Y-116194224D01*
X99829764Y-116218884D01*
X99829765Y-116218884D01*
X99845772Y-116225514D01*
X99886002Y-116252395D01*
X99954087Y-116320480D01*
X100045413Y-116373207D01*
X100147273Y-116400500D01*
X100147275Y-116400500D01*
X100252725Y-116400500D01*
X100252727Y-116400500D01*
X100354587Y-116373207D01*
X100445913Y-116320480D01*
X100520480Y-116245913D01*
X100573207Y-116154587D01*
X100600500Y-116052727D01*
X100600500Y-115947273D01*
X100573207Y-115845413D01*
X100520480Y-115754087D01*
X100445913Y-115679520D01*
X100361439Y-115630749D01*
X100354589Y-115626794D01*
X100354588Y-115626793D01*
X100354587Y-115626793D01*
X100252727Y-115599500D01*
X100147273Y-115599500D01*
X100045413Y-115626793D01*
X100045408Y-115626795D01*
X100004425Y-115650456D01*
X99936524Y-115666927D01*
X99870498Y-115644074D01*
X99854746Y-115630749D01*
X97636319Y-113412322D01*
X97602834Y-113350999D01*
X97600000Y-113324641D01*
X97600000Y-101824000D01*
X97619685Y-101756961D01*
X97672489Y-101711206D01*
X97724000Y-101700000D01*
X101376000Y-101700000D01*
X101443039Y-101719685D01*
X101488794Y-101772489D01*
X101500000Y-101824000D01*
X101500000Y-114300000D01*
X103076000Y-114300000D01*
X103143039Y-114319685D01*
X103188794Y-114372489D01*
X103200000Y-114424000D01*
X103200000Y-118900000D01*
X107900000Y-118900000D01*
X107900000Y-114524000D01*
X107919685Y-114456961D01*
X107972489Y-114411206D01*
X108024000Y-114400000D01*
X110600000Y-114400000D01*
X110600000Y-106124000D01*
X110619685Y-106056961D01*
X110672489Y-106011206D01*
X110724000Y-106000000D01*
X111452000Y-106000000D01*
X111452000Y-79329304D01*
X111452000Y-79329303D01*
X110600000Y-78500000D01*
X110599999Y-78500000D01*
X105757584Y-78500000D01*
X104705783Y-79465259D01*
X104643081Y-79496085D01*
X104621941Y-79497900D01*
X102950651Y-79497900D01*
X102950642Y-79497901D01*
X102925799Y-79500782D01*
X102824195Y-79545644D01*
X102824187Y-79545650D01*
X102745650Y-79624187D01*
X102745646Y-79624194D01*
X102700782Y-79725798D01*
X102700782Y-79725800D01*
X102697900Y-79750639D01*
X102697900Y-79793538D01*
X102678215Y-79860577D01*
X102625411Y-79906332D01*
X102574738Y-79917535D01*
X100715792Y-79930094D01*
X100648621Y-79910863D01*
X100602510Y-79858369D01*
X100592249Y-79823971D01*
X100592129Y-79823144D01*
X100540519Y-79717574D01*
X100540517Y-79717572D01*
X100540517Y-79717571D01*
X100457425Y-79634479D01*
X100351859Y-79582872D01*
X100351857Y-79582871D01*
X100351856Y-79582871D01*
X100283419Y-79572900D01*
X100283413Y-79572900D01*
X98916582Y-79572900D01*
X98848143Y-79582871D01*
X98742571Y-79634482D01*
X98659479Y-79717574D01*
X98607871Y-79823141D01*
X98607870Y-79823143D01*
X98605552Y-79839058D01*
X98576408Y-79902558D01*
X98517558Y-79940222D01*
X98483686Y-79945176D01*
X96681937Y-79957351D01*
X96614766Y-79938120D01*
X96568655Y-79885626D01*
X96557099Y-79833354D01*
X96557099Y-79736289D01*
X96555013Y-79725800D01*
X96547550Y-79688276D01*
X96547549Y-79688274D01*
X96547548Y-79688272D01*
X96511169Y-79633828D01*
X96456726Y-79597451D01*
X96456719Y-79597448D01*
X96408715Y-79587900D01*
X96251289Y-79587900D01*
X96203275Y-79597450D01*
X96203273Y-79597451D01*
X96148889Y-79633789D01*
X96082211Y-79654666D01*
X96028427Y-79643453D01*
X96012835Y-79636322D01*
X96011170Y-79633830D01*
X95956724Y-79597450D01*
X95908713Y-79587900D01*
X95906955Y-79587900D01*
X95892428Y-79581256D01*
X95876537Y-79567471D01*
X95857897Y-79557721D01*
X95850673Y-79545035D01*
X95839649Y-79535472D01*
X95833734Y-79515288D01*
X95823323Y-79497005D01*
X95820000Y-79468489D01*
X95820000Y-76518147D01*
X95839685Y-76451108D01*
X95890496Y-76406284D01*
X96280000Y-76220000D01*
X96281235Y-75724010D01*
X96289043Y-75697662D01*
X96293503Y-75670545D01*
X96298827Y-75664644D01*
X96301086Y-75657025D01*
X96321901Y-75639078D01*
X96340315Y-75618676D01*
X96350176Y-75614700D01*
X96354003Y-75611402D01*
X96372709Y-75604666D01*
X96375700Y-75603852D01*
X96420416Y-75594073D01*
X96430824Y-75588869D01*
X96442717Y-75585637D01*
X96445189Y-75585686D01*
X96451059Y-75583676D01*
X96456724Y-75582550D01*
X96511170Y-75546170D01*
X96547550Y-75491724D01*
X96547550Y-75491723D01*
X96547551Y-75491722D01*
X96550348Y-75484967D01*
X96551040Y-75482835D01*
X96550613Y-75482709D01*
X96553130Y-75474201D01*
X96553132Y-75474200D01*
X96572961Y-75407203D01*
X96577365Y-75377039D01*
X96585687Y-71515281D01*
X96585651Y-71512290D01*
X96585473Y-71505385D01*
X96579408Y-71472514D01*
X96556163Y-71406624D01*
X96520865Y-71357675D01*
X96520863Y-71357674D01*
X96520863Y-71357673D01*
X96514701Y-71351287D01*
X96516240Y-71349802D01*
X96482391Y-71302856D01*
X96477713Y-71237417D01*
X96487736Y-71187029D01*
X96487736Y-70799344D01*
X96487415Y-70796088D01*
X96487736Y-70794394D01*
X96487736Y-70793247D01*
X96487954Y-70793247D01*
X96500428Y-70727441D01*
X96548489Y-70676727D01*
X96548818Y-70676536D01*
X96554581Y-70673208D01*
X96554587Y-70673207D01*
X96645913Y-70620480D01*
X96720480Y-70545913D01*
X96773207Y-70454587D01*
X96800500Y-70352727D01*
X96800500Y-70247273D01*
X96773207Y-70145413D01*
X96720480Y-70054087D01*
X96645913Y-69979520D01*
X96554587Y-69926793D01*
X96452727Y-69899500D01*
X96420051Y-69899500D01*
X96353012Y-69879815D01*
X96307257Y-69827011D01*
X96296051Y-69775194D01*
X96319691Y-60283918D01*
X96339543Y-60216930D01*
X96392461Y-60171307D01*
X96443916Y-60160229D01*
X101586138Y-60169770D01*
G37*
%TD.AperFunction*%
%TD*%
%TA.AperFunction,Conductor*%
%TO.N,/5V*%
G36*
X111669847Y-60559883D02*
G01*
X111715776Y-60612535D01*
X111727121Y-60667225D01*
X111682732Y-62629206D01*
X111661536Y-62695783D01*
X111607711Y-62740332D01*
X111559175Y-62750400D01*
X108787257Y-62759578D01*
X108720152Y-62740116D01*
X108674223Y-62687464D01*
X108662878Y-62632774D01*
X108707267Y-60670793D01*
X108728463Y-60604216D01*
X108782288Y-60559667D01*
X108830819Y-60549599D01*
X111602743Y-60540421D01*
X111669847Y-60559883D01*
G37*
%TD.AperFunction*%
%TD*%
%TA.AperFunction,Conductor*%
%TO.N,/VDD*%
G36*
X109669507Y-79878378D02*
G01*
X109716309Y-79931764D01*
X109728000Y-79984768D01*
X109728000Y-97027686D01*
X109727998Y-97028231D01*
X109689617Y-105900000D01*
X109912744Y-105900000D01*
X109980865Y-105920002D01*
X110027358Y-105973658D01*
X110037462Y-106043932D01*
X110033741Y-106061152D01*
X110014394Y-106127744D01*
X110014393Y-106127748D01*
X110011500Y-106164506D01*
X110011500Y-106635493D01*
X110014393Y-106672251D01*
X110014393Y-106672252D01*
X110060106Y-106829596D01*
X110060109Y-106829604D01*
X110063811Y-106835863D01*
X110081269Y-106904679D01*
X110063814Y-106964131D01*
X110060107Y-106970399D01*
X110014393Y-107127747D01*
X110014393Y-107127748D01*
X110011500Y-107164506D01*
X110011500Y-107635493D01*
X110014393Y-107672251D01*
X110014393Y-107672252D01*
X110060106Y-107829596D01*
X110060107Y-107829599D01*
X110068953Y-107844556D01*
X110086500Y-107908696D01*
X110086500Y-108274000D01*
X110066498Y-108342121D01*
X110012842Y-108388614D01*
X109960500Y-108400000D01*
X109800000Y-108400000D01*
X109800000Y-113760500D01*
X109779998Y-113828621D01*
X109726342Y-113875114D01*
X109674000Y-113886500D01*
X108023992Y-113886500D01*
X107941619Y-113895357D01*
X107914843Y-113898236D01*
X107914840Y-113898236D01*
X107914827Y-113898238D01*
X107913957Y-113898379D01*
X107912205Y-113898519D01*
X107911489Y-113898597D01*
X107911486Y-113898577D01*
X107893814Y-113900000D01*
X107600000Y-113900000D01*
X107600000Y-114002746D01*
X107579998Y-114070867D01*
X107569224Y-114085259D01*
X107487704Y-114179337D01*
X107487703Y-114179338D01*
X107426986Y-114312284D01*
X107407302Y-114379320D01*
X107407301Y-114379324D01*
X107407301Y-114379326D01*
X107407300Y-114379330D01*
X107394055Y-114471457D01*
X107386500Y-114524003D01*
X107386500Y-118260500D01*
X107366498Y-118328621D01*
X107312842Y-118375114D01*
X107260500Y-118386500D01*
X103839500Y-118386500D01*
X103771379Y-118366498D01*
X103724886Y-118312842D01*
X103713500Y-118260500D01*
X103713500Y-114424004D01*
X103713499Y-114423992D01*
X103708697Y-114379330D01*
X103701764Y-114314843D01*
X103690558Y-114263332D01*
X103655890Y-114159173D01*
X103646718Y-114144901D01*
X103620002Y-114103329D01*
X103600000Y-114035209D01*
X103600000Y-113900000D01*
X103474997Y-113900000D01*
X103422653Y-113888613D01*
X103420661Y-113887703D01*
X103392854Y-113875004D01*
X103287715Y-113826986D01*
X103220679Y-113807302D01*
X103220675Y-113807301D01*
X103220672Y-113807300D01*
X103220670Y-113807300D01*
X103076000Y-113786500D01*
X103075996Y-113786500D01*
X102139500Y-113786500D01*
X102071379Y-113766498D01*
X102024886Y-113712842D01*
X102013500Y-113660500D01*
X102013500Y-101824004D01*
X102013499Y-101823992D01*
X102001764Y-101714843D01*
X101990558Y-101663332D01*
X101955890Y-101559173D01*
X101876871Y-101436218D01*
X101876870Y-101436217D01*
X101876869Y-101436215D01*
X101876868Y-101436213D01*
X101831116Y-101383413D01*
X101829386Y-101381683D01*
X101828992Y-101380961D01*
X101828170Y-101380013D01*
X101828376Y-101379834D01*
X101795360Y-101319371D01*
X101792482Y-101292674D01*
X101790000Y-97130000D01*
X99393636Y-92416820D01*
X99379953Y-92359912D01*
X99361236Y-80212590D01*
X99381133Y-80144443D01*
X99434717Y-80097867D01*
X99487236Y-80086400D01*
X100076159Y-80086400D01*
X100144280Y-80106402D01*
X100181694Y-80143564D01*
X100216714Y-80197255D01*
X100262825Y-80249749D01*
X100373928Y-80344713D01*
X100425309Y-80367759D01*
X100507286Y-80404530D01*
X100507289Y-80404531D01*
X100574447Y-80423758D01*
X100574452Y-80423759D01*
X100574456Y-80423760D01*
X100719261Y-80443582D01*
X100719265Y-80443581D01*
X100719266Y-80443582D01*
X101752008Y-80436604D01*
X102578207Y-80431023D01*
X102685588Y-80418928D01*
X102736261Y-80407725D01*
X102736266Y-80407723D01*
X102736275Y-80407721D01*
X102838717Y-80373432D01*
X102838720Y-80373430D01*
X102838727Y-80373428D01*
X102961682Y-80294409D01*
X102961684Y-80294406D01*
X102961686Y-80294406D01*
X103013222Y-80249749D01*
X103014486Y-80248654D01*
X103110197Y-80138199D01*
X103134467Y-80085055D01*
X103180961Y-80031401D01*
X103249080Y-80011400D01*
X104621930Y-80011400D01*
X104621941Y-80011400D01*
X104665867Y-80009518D01*
X104687007Y-80007703D01*
X104730628Y-80002067D01*
X104797861Y-79980223D01*
X104869625Y-79956909D01*
X104869625Y-79956908D01*
X104869633Y-79956906D01*
X104932335Y-79926080D01*
X104959955Y-79907195D01*
X105027475Y-79885256D01*
X105030225Y-79885209D01*
X109601274Y-79858770D01*
X109669507Y-79878378D01*
G37*
%TD.AperFunction*%
%TD*%
M02*
