%TF.GenerationSoftware,KiCad,Pcbnew,9.0.2*%
%TF.CreationDate,2025-06-20T12:19:24+03:00*%
%TF.ProjectId,BitshokaNiniV1.1,42697473-686f-46b6-914e-696e6956312e,rev?*%
%TF.SameCoordinates,Original*%
%TF.FileFunction,Soldermask,Bot*%
%TF.FilePolarity,Negative*%
%FSLAX46Y46*%
G04 Gerber Fmt 4.6, Leading zero omitted, Abs format (unit mm)*
G04 Created by KiCad (PCBNEW 9.0.2) date 2025-06-20 12:19:24*
%MOMM*%
%LPD*%
G01*
G04 APERTURE LIST*
G04 Aperture macros list*
%AMRoundRect*
0 Rectangle with rounded corners*
0 $1 Rounding radius*
0 $2 $3 $4 $5 $6 $7 $8 $9 X,Y pos of 4 corners*
0 Add a 4 corners polygon primitive as box body*
4,1,4,$2,$3,$4,$5,$6,$7,$8,$9,$2,$3,0*
0 Add four circle primitives for the rounded corners*
1,1,$1+$1,$2,$3*
1,1,$1+$1,$4,$5*
1,1,$1+$1,$6,$7*
1,1,$1+$1,$8,$9*
0 Add four rect primitives between the rounded corners*
20,1,$1+$1,$2,$3,$4,$5,0*
20,1,$1+$1,$4,$5,$6,$7,0*
20,1,$1+$1,$6,$7,$8,$9,0*
20,1,$1+$1,$8,$9,$2,$3,0*%
G04 Aperture macros list end*
%ADD10C,0.120000*%
%ADD11R,0.900000X0.900000*%
%ADD12R,0.900000X1.500000*%
%ADD13R,1.500000X0.900000*%
%ADD14C,2.000000*%
%ADD15C,3.500000*%
%ADD16C,1.800000*%
%ADD17C,1.600000*%
%ADD18RoundRect,0.102000X1.000000X-1.000000X1.000000X1.000000X-1.000000X1.000000X-1.000000X-1.000000X0*%
%ADD19C,0.990600*%
%ADD20C,0.787400*%
%ADD21C,0.650000*%
%ADD22RoundRect,0.150000X0.425000X-0.150000X0.425000X0.150000X-0.425000X0.150000X-0.425000X-0.150000X0*%
%ADD23RoundRect,0.075000X0.500000X-0.075000X0.500000X0.075000X-0.500000X0.075000X-0.500000X-0.075000X0*%
%ADD24O,2.100000X1.000000*%
%ADD25O,1.800000X1.000000*%
%ADD26C,1.295400*%
%ADD27C,1.574800*%
%ADD28C,0.400000*%
%ADD29C,0.800000*%
%ADD30C,6.000000*%
%ADD31R,1.700000X1.700000*%
%ADD32C,1.700000*%
%ADD33O,1.700000X1.700000*%
%ADD34RoundRect,0.117030X0.345570X0.273070X-0.345570X0.273070X-0.345570X-0.273070X0.345570X-0.273070X0*%
%ADD35RoundRect,0.216600X3.055400X0.505400X-3.055400X0.505400X-3.055400X-0.505400X3.055400X-0.505400X0*%
%ADD36R,4.524000X4.863538*%
%ADD37R,0.722000X5.050000*%
%ADD38RoundRect,0.261600X3.010400X0.610400X-3.010400X0.610400X-3.010400X-0.610400X3.010400X-0.610400X0*%
%ADD39R,0.900000X1.800000*%
%ADD40RoundRect,0.150000X-0.150000X-0.625000X0.150000X-0.625000X0.150000X0.625000X-0.150000X0.625000X0*%
%ADD41RoundRect,0.250000X-0.350000X-0.650000X0.350000X-0.650000X0.350000X0.650000X-0.350000X0.650000X0*%
G04 APERTURE END LIST*
D10*
%TO.C,U4*%
X133180000Y-81610000D02*
X133180000Y-63610000D01*
%TD*%
D11*
%TO.C,U4*%
X116570000Y-72710000D03*
X117970000Y-72710000D03*
X119370000Y-72710000D03*
X116570000Y-74110000D03*
X117970000Y-74110000D03*
X119370000Y-74110000D03*
X116570000Y-75510000D03*
X117970000Y-75510000D03*
X119370000Y-75510000D03*
D12*
X125690000Y-63860000D03*
X124420000Y-63860000D03*
X123150000Y-63860000D03*
X121880000Y-63860000D03*
X120610000Y-63860000D03*
X119340000Y-63860000D03*
X118070000Y-63860000D03*
X116800000Y-63860000D03*
X115530000Y-63860000D03*
X114260000Y-63860000D03*
X112990000Y-63860000D03*
X111720000Y-63860000D03*
X110450000Y-63860000D03*
X109180000Y-63860000D03*
D13*
X107930000Y-65625000D03*
X107930000Y-66895000D03*
X107930000Y-68165000D03*
X107930000Y-69435000D03*
X107930000Y-70705000D03*
X107930000Y-71975000D03*
X107930000Y-73245000D03*
X107930000Y-74515000D03*
X107930000Y-75785000D03*
X107930000Y-77055000D03*
X107930000Y-78325000D03*
X107930000Y-79595000D03*
D12*
X109180000Y-81360000D03*
X110450000Y-81360000D03*
X111720000Y-81360000D03*
X112990000Y-81360000D03*
X114260000Y-81360000D03*
X115530000Y-81360000D03*
X116800000Y-81360000D03*
X118070000Y-81360000D03*
X119340000Y-81360000D03*
X120610000Y-81360000D03*
X121880000Y-81360000D03*
X123150000Y-81360000D03*
X124420000Y-81360000D03*
X125690000Y-81360000D03*
%TD*%
D14*
%TO.C,FID5*%
X125270000Y-50310000D03*
%TD*%
%TO.C,FID6*%
X78750000Y-55900000D03*
%TD*%
%TO.C,FID7*%
X132260000Y-139060000D03*
%TD*%
%TO.C,FID8*%
X78850000Y-139070000D03*
%TD*%
D15*
%TO.C,H5*%
X126060000Y-136360000D03*
%TD*%
%TO.C,H6*%
X84710000Y-94910000D03*
%TD*%
%TO.C,H7*%
X126060000Y-94910000D03*
%TD*%
%TO.C,H8*%
X84710000Y-136360000D03*
%TD*%
D16*
%TO.C,J1*%
X86830000Y-66620000D03*
D17*
X82330000Y-66620000D03*
D18*
X88530000Y-72120000D03*
X82330000Y-72120000D03*
X82330000Y-61120000D03*
X88530000Y-61120000D03*
%TD*%
D19*
%TO.C,J2*%
X130670000Y-57730000D03*
X125590000Y-56714000D03*
X125590000Y-58746000D03*
D20*
X129400000Y-58365000D03*
X129400000Y-57095000D03*
X128130000Y-58365000D03*
X128130000Y-57095000D03*
X126860000Y-58365000D03*
X126860000Y-57095000D03*
%TD*%
D21*
%TO.C,J5*%
X83470000Y-86150000D03*
X83470000Y-80370000D03*
D22*
X84545000Y-86460000D03*
X84545000Y-85660000D03*
D23*
X84545000Y-84510000D03*
X84545000Y-83510000D03*
X84545000Y-83010000D03*
X84545000Y-82010000D03*
D22*
X84545000Y-80060000D03*
X84545000Y-80860000D03*
D23*
X84545000Y-81510000D03*
X84545000Y-82510000D03*
X84545000Y-84010000D03*
X84545000Y-85010000D03*
D24*
X83970000Y-87580000D03*
D25*
X79790000Y-87580000D03*
D24*
X83970000Y-78940000D03*
D25*
X79790000Y-78940000D03*
%TD*%
D26*
%TO.C,J6*%
X94701000Y-145782001D03*
D27*
X89621000Y-143622000D03*
X92161000Y-143622000D03*
X94701000Y-143622000D03*
X97241000Y-143622000D03*
%TD*%
D28*
%TO.C,U2*%
X92180000Y-78870000D03*
X93580000Y-78870000D03*
X94980000Y-78870000D03*
X91180000Y-77590000D03*
X92180000Y-77590000D03*
X93580000Y-77590000D03*
X94980000Y-77590000D03*
X95980000Y-77590000D03*
X92180000Y-76310000D03*
X93580000Y-76310000D03*
X94980000Y-76310000D03*
%TD*%
D29*
%TO.C,H1*%
X127985010Y-51120990D03*
X128644020Y-49530000D03*
X128644020Y-52711980D03*
X130235010Y-48870990D03*
D30*
X130235010Y-51120990D03*
D29*
X130235010Y-53370990D03*
X131826000Y-49530000D03*
X131826000Y-52711980D03*
X132485010Y-51120990D03*
%TD*%
%TO.C,H3*%
X128052000Y-143728000D03*
X128711010Y-142137010D03*
X128711010Y-145318990D03*
X130302000Y-141478000D03*
D30*
X130302000Y-143728000D03*
D29*
X130302000Y-145978000D03*
X131892990Y-142137010D03*
X131892990Y-145318990D03*
X132552000Y-143728000D03*
%TD*%
D31*
%TO.C,J4*%
X99171505Y-51054000D03*
D32*
X101711505Y-51054000D03*
X104251505Y-51054000D03*
X106791505Y-51054000D03*
X109331505Y-51054000D03*
X111871505Y-51054000D03*
%TD*%
D29*
%TO.C,H4*%
X78455010Y-143830990D03*
X79114020Y-142240000D03*
X79114020Y-145421980D03*
X80705010Y-141580990D03*
D30*
X80705010Y-143830990D03*
D29*
X80705010Y-146080990D03*
X82296000Y-142240000D03*
X82296000Y-145421980D03*
X82955010Y-143830990D03*
%TD*%
%TO.C,H2*%
X78558000Y-51054000D03*
X79217010Y-49463010D03*
X79217010Y-52644990D03*
X80808000Y-48804000D03*
D30*
X80808000Y-51054000D03*
D29*
X80808000Y-53304000D03*
X82398990Y-49463010D03*
X82398990Y-52644990D03*
X83058000Y-51054000D03*
%TD*%
D32*
%TO.C,J3*%
X87005000Y-50292000D03*
D33*
X87405000Y-52832000D03*
X87005000Y-55372000D03*
X87405000Y-57912000D03*
%TD*%
D34*
%TO.C,U8*%
X109508562Y-113009000D03*
X109508562Y-113795000D03*
X109508562Y-114581000D03*
X109508562Y-115367000D03*
X109508562Y-116153000D03*
X109508562Y-116939000D03*
X109508562Y-117725000D03*
X109508562Y-118511000D03*
X109508562Y-119297000D03*
X109508562Y-120083000D03*
X101712562Y-120083000D03*
X101712562Y-119297000D03*
X101712562Y-118511000D03*
X101712562Y-117725000D03*
X101712562Y-116939000D03*
X101712562Y-116153000D03*
X101712562Y-115367000D03*
X101712562Y-114581000D03*
X101712562Y-113795000D03*
X101712562Y-113009000D03*
D28*
X108510562Y-112846000D03*
X108510562Y-113426000D03*
X107110562Y-115268511D03*
X107110562Y-117221000D03*
X106360562Y-114546000D03*
X106360562Y-115274627D03*
X106360562Y-116246000D03*
X106360562Y-117221000D03*
X106360562Y-117946000D03*
X105960562Y-112846000D03*
X105960562Y-113426000D03*
D35*
X105610562Y-113146000D03*
D36*
X105610562Y-116232230D03*
D28*
X105260562Y-112846000D03*
X105260562Y-113426000D03*
X104860562Y-114546000D03*
X104860562Y-115274627D03*
X104860562Y-116246000D03*
X104860562Y-117221000D03*
X104860562Y-117946000D03*
X104110562Y-115274627D03*
X104110562Y-117221000D03*
X102710562Y-112846000D03*
X102710562Y-113426000D03*
X108560562Y-116546000D03*
X108560562Y-119266000D03*
X108560562Y-120346000D03*
D37*
X108521562Y-116640000D03*
D28*
X105610562Y-119266000D03*
D38*
X105610562Y-119806000D03*
D28*
X105610562Y-120346000D03*
D37*
X102699562Y-116640000D03*
D28*
X102660562Y-116546000D03*
X102660562Y-119266000D03*
X102660562Y-120346000D03*
%TD*%
D39*
%TO.C,SW1*%
X132246000Y-104448000D03*
X128136000Y-104448000D03*
%TD*%
%TO.C,SW2*%
X132142000Y-113155000D03*
X128032000Y-113155000D03*
%TD*%
D40*
%TO.C,J7*%
X102000000Y-141675000D03*
X103000000Y-141675000D03*
X104000000Y-141675000D03*
X105000000Y-141675000D03*
D41*
X100700000Y-144200000D03*
X106300000Y-144200000D03*
%TD*%
M02*
