%TF.GenerationSoftware,KiCad,Pcbnew,9.0.2*%
%TF.CreationDate,2025-06-20T12:19:24+03:00*%
%TF.ProjectId,BitshokaNiniV1.1,42697473-686f-46b6-914e-696e6956312e,rev?*%
%TF.SameCoordinates,Original*%
%TF.FileFunction,Legend,Bot*%
%TF.FilePolarity,Positive*%
%FSLAX46Y46*%
G04 Gerber Fmt 4.6, Leading zero omitted, Abs format (unit mm)*
G04 Created by KiCad (PCBNEW 9.0.2) date 2025-06-20 12:19:24*
%MOMM*%
%LPD*%
G01*
G04 APERTURE LIST*
G04 Aperture macros list*
%AMRoundRect*
0 Rectangle with rounded corners*
0 $1 Rounding radius*
0 $2 $3 $4 $5 $6 $7 $8 $9 X,Y pos of 4 corners*
0 Add a 4 corners polygon primitive as box body*
4,1,4,$2,$3,$4,$5,$6,$7,$8,$9,$2,$3,0*
0 Add four circle primitives for the rounded corners*
1,1,$1+$1,$2,$3*
1,1,$1+$1,$4,$5*
1,1,$1+$1,$6,$7*
1,1,$1+$1,$8,$9*
0 Add four rect primitives between the rounded corners*
20,1,$1+$1,$2,$3,$4,$5,0*
20,1,$1+$1,$4,$5,$6,$7,0*
20,1,$1+$1,$6,$7,$8,$9,0*
20,1,$1+$1,$8,$9,$2,$3,0*%
G04 Aperture macros list end*
%ADD10C,0.150000*%
%ADD11C,0.125000*%
%ADD12C,0.300000*%
%ADD13C,0.120000*%
%ADD14C,0.127000*%
%ADD15C,0.050000*%
%ADD16C,0.227485*%
%ADD17C,0.152400*%
%ADD18C,0.310000*%
%ADD19C,0.000000*%
%ADD20R,0.900000X0.900000*%
%ADD21R,0.900000X1.500000*%
%ADD22R,1.500000X0.900000*%
%ADD23C,2.000000*%
%ADD24C,3.500000*%
%ADD25C,1.800000*%
%ADD26C,1.600000*%
%ADD27RoundRect,0.102000X1.000000X-1.000000X1.000000X1.000000X-1.000000X1.000000X-1.000000X-1.000000X0*%
%ADD28C,0.990600*%
%ADD29C,0.787400*%
%ADD30C,0.650000*%
%ADD31RoundRect,0.150000X0.425000X-0.150000X0.425000X0.150000X-0.425000X0.150000X-0.425000X-0.150000X0*%
%ADD32RoundRect,0.075000X0.500000X-0.075000X0.500000X0.075000X-0.500000X0.075000X-0.500000X-0.075000X0*%
%ADD33O,2.100000X1.000000*%
%ADD34O,1.800000X1.000000*%
%ADD35C,1.295400*%
%ADD36C,1.574800*%
%ADD37C,0.400000*%
%ADD38C,0.800000*%
%ADD39C,6.000000*%
%ADD40R,1.700000X1.700000*%
%ADD41C,1.700000*%
%ADD42O,1.700000X1.700000*%
%ADD43RoundRect,0.117030X0.345570X0.273070X-0.345570X0.273070X-0.345570X-0.273070X0.345570X-0.273070X0*%
%ADD44RoundRect,0.216600X3.055400X0.505400X-3.055400X0.505400X-3.055400X-0.505400X3.055400X-0.505400X0*%
%ADD45R,4.524000X4.863538*%
%ADD46R,0.722000X5.050000*%
%ADD47RoundRect,0.261600X3.010400X0.610400X-3.010400X0.610400X-3.010400X-0.610400X3.010400X-0.610400X0*%
%ADD48R,0.900000X1.800000*%
%ADD49RoundRect,0.150000X-0.150000X-0.625000X0.150000X-0.625000X0.150000X0.625000X-0.150000X0.625000X0*%
%ADD50RoundRect,0.250000X-0.350000X-0.650000X0.350000X-0.650000X0.350000X0.650000X-0.350000X0.650000X0*%
G04 APERTURE END LIST*
D10*
X85450000Y-95700000D02*
X125430000Y-95700000D01*
X125430000Y-135690000D01*
X85450000Y-135690000D01*
X85450000Y-95700000D01*
D11*
X103724809Y-138992858D02*
X103724809Y-139278572D01*
X104224809Y-139135715D02*
X103724809Y-139135715D01*
X104081952Y-139421429D02*
X104081952Y-139659524D01*
X104224809Y-139373810D02*
X103724809Y-139540476D01*
X103724809Y-139540476D02*
X104224809Y-139707143D01*
X104177190Y-140159523D02*
X104201000Y-140135714D01*
X104201000Y-140135714D02*
X104224809Y-140064285D01*
X104224809Y-140064285D02*
X104224809Y-140016666D01*
X104224809Y-140016666D02*
X104201000Y-139945238D01*
X104201000Y-139945238D02*
X104153380Y-139897619D01*
X104153380Y-139897619D02*
X104105761Y-139873809D01*
X104105761Y-139873809D02*
X104010523Y-139850000D01*
X104010523Y-139850000D02*
X103939095Y-139850000D01*
X103939095Y-139850000D02*
X103843857Y-139873809D01*
X103843857Y-139873809D02*
X103796238Y-139897619D01*
X103796238Y-139897619D02*
X103748619Y-139945238D01*
X103748619Y-139945238D02*
X103724809Y-140016666D01*
X103724809Y-140016666D02*
X103724809Y-140064285D01*
X103724809Y-140064285D02*
X103748619Y-140135714D01*
X103748619Y-140135714D02*
X103772428Y-140159523D01*
D10*
X91663819Y-138827523D02*
X91663819Y-138351333D01*
X91663819Y-138351333D02*
X92140009Y-138303714D01*
X92140009Y-138303714D02*
X92092390Y-138351333D01*
X92092390Y-138351333D02*
X92044771Y-138446571D01*
X92044771Y-138446571D02*
X92044771Y-138684666D01*
X92044771Y-138684666D02*
X92092390Y-138779904D01*
X92092390Y-138779904D02*
X92140009Y-138827523D01*
X92140009Y-138827523D02*
X92235247Y-138875142D01*
X92235247Y-138875142D02*
X92473342Y-138875142D01*
X92473342Y-138875142D02*
X92568580Y-138827523D01*
X92568580Y-138827523D02*
X92616200Y-138779904D01*
X92616200Y-138779904D02*
X92663819Y-138684666D01*
X92663819Y-138684666D02*
X92663819Y-138446571D01*
X92663819Y-138446571D02*
X92616200Y-138351333D01*
X92616200Y-138351333D02*
X92568580Y-138303714D01*
X91663819Y-139160857D02*
X92663819Y-139494190D01*
X92663819Y-139494190D02*
X91663819Y-139827523D01*
G36*
X82235903Y-122840846D02*
G01*
X82216730Y-122846891D01*
X82203785Y-122867847D01*
X82195603Y-122907744D01*
X82192184Y-122968597D01*
X82195603Y-123031734D01*
X82203785Y-123070825D01*
X82216730Y-123091915D01*
X82235903Y-123097826D01*
X83020655Y-123097826D01*
X83020655Y-123982950D01*
X82235903Y-123982950D01*
X82216730Y-123988995D01*
X82203785Y-124010085D01*
X82195603Y-124049982D01*
X82192184Y-124112313D01*
X82195603Y-124173838D01*
X82203785Y-124214406D01*
X82216730Y-124235497D01*
X82235903Y-124241542D01*
X83930460Y-124241542D01*
X83949633Y-124235497D01*
X83962578Y-124214406D01*
X83970760Y-124173838D01*
X83974180Y-124112313D01*
X83970760Y-124049982D01*
X83962578Y-124010085D01*
X83949633Y-123988995D01*
X83930582Y-123982950D01*
X83225819Y-123982950D01*
X83225819Y-123097826D01*
X83930582Y-123097826D01*
X83949633Y-123091915D01*
X83962578Y-123070825D01*
X83970760Y-123031734D01*
X83974180Y-122968597D01*
X83970760Y-122907744D01*
X83962578Y-122867847D01*
X83949633Y-122846891D01*
X83930460Y-122840846D01*
X82235903Y-122840846D01*
G37*
G36*
X82234438Y-122104832D02*
G01*
X82215997Y-122110877D01*
X82203053Y-122130490D01*
X82194993Y-122167969D01*
X82192184Y-122229628D01*
X82194993Y-122289675D01*
X82203053Y-122328094D01*
X82215997Y-122347573D01*
X82234438Y-122352812D01*
X83462979Y-122352812D01*
X83480687Y-122347573D01*
X83494242Y-122328094D01*
X83502424Y-122289675D01*
X83505233Y-122229628D01*
X83502424Y-122167969D01*
X83494242Y-122130490D01*
X83480687Y-122110877D01*
X83462979Y-122104832D01*
X82234438Y-122104832D01*
G37*
G36*
X83875872Y-122076353D02*
G01*
X83804844Y-122086129D01*
X83768283Y-122109399D01*
X83748196Y-122150979D01*
X83739706Y-122231106D01*
X83747991Y-122309909D01*
X83767550Y-122350662D01*
X83803360Y-122373351D01*
X83873185Y-122382903D01*
X83944213Y-122373127D01*
X83980774Y-122349856D01*
X84000861Y-122308276D01*
X84009351Y-122228150D01*
X84001029Y-122149384D01*
X83981385Y-122108728D01*
X83945662Y-122085945D01*
X83875872Y-122076353D01*
G37*
G36*
X82234438Y-121399849D02*
G01*
X82215997Y-121405894D01*
X82203053Y-121425507D01*
X82194993Y-121462986D01*
X82192184Y-121524645D01*
X82194993Y-121584692D01*
X82203053Y-121623112D01*
X82215997Y-121642590D01*
X82234438Y-121647829D01*
X83462979Y-121647829D01*
X83480687Y-121642590D01*
X83494242Y-121623112D01*
X83502424Y-121584692D01*
X83505233Y-121524645D01*
X83502424Y-121462986D01*
X83494242Y-121425507D01*
X83480687Y-121405894D01*
X83462979Y-121399849D01*
X82234438Y-121399849D01*
G37*
G36*
X83875872Y-121371371D02*
G01*
X83804844Y-121381146D01*
X83768283Y-121404417D01*
X83748196Y-121445997D01*
X83739706Y-121526123D01*
X83747991Y-121604927D01*
X83767550Y-121645680D01*
X83803360Y-121668369D01*
X83873185Y-121677920D01*
X83944213Y-121668145D01*
X83980774Y-121644874D01*
X84000861Y-121603294D01*
X84009351Y-121523168D01*
X84001029Y-121444401D01*
X83981385Y-121403745D01*
X83945662Y-121380962D01*
X83875872Y-121371371D01*
G37*
G36*
X82234682Y-119083939D02*
G01*
X82216120Y-119089984D01*
X82203175Y-119109462D01*
X82194993Y-119147076D01*
X82192184Y-119207123D01*
X82194993Y-119268782D01*
X82203175Y-119306395D01*
X82216120Y-119325874D01*
X82234682Y-119331919D01*
X82956542Y-119331919D01*
X83056896Y-119336983D01*
X83126413Y-119349919D01*
X83187472Y-119372637D01*
X83237299Y-119402578D01*
X83278494Y-119442257D01*
X83308618Y-119492044D01*
X83326862Y-119549877D01*
X83333286Y-119618989D01*
X83318987Y-119709667D01*
X83272958Y-119805310D01*
X83202856Y-119896106D01*
X83096249Y-120000631D01*
X82234682Y-120000631D01*
X82216120Y-120006676D01*
X82203175Y-120026289D01*
X82194993Y-120063768D01*
X82192184Y-120125427D01*
X82194993Y-120185474D01*
X82203053Y-120223893D01*
X82215997Y-120243372D01*
X82234438Y-120248611D01*
X83462979Y-120248611D01*
X83481297Y-120244178D01*
X83494975Y-120226177D01*
X83503157Y-120191653D01*
X83505233Y-120135905D01*
X83503157Y-120081097D01*
X83494975Y-120047379D01*
X83481297Y-120030050D01*
X83462857Y-120024677D01*
X83300436Y-120024677D01*
X83406271Y-119906272D01*
X83473726Y-119797116D01*
X83515296Y-119681546D01*
X83528681Y-119567808D01*
X83517502Y-119439308D01*
X83486915Y-119340113D01*
X83437611Y-119255833D01*
X83375296Y-119190600D01*
X83300490Y-119142119D01*
X83211653Y-119108790D01*
X83113052Y-119090671D01*
X82986461Y-119083939D01*
X82234682Y-119083939D01*
G37*
G36*
X82234438Y-118384330D02*
G01*
X82215997Y-118390375D01*
X82203053Y-118409987D01*
X82194993Y-118447466D01*
X82192184Y-118509125D01*
X82194993Y-118569173D01*
X82203053Y-118607592D01*
X82215997Y-118627070D01*
X82234438Y-118632309D01*
X83462979Y-118632309D01*
X83480687Y-118627070D01*
X83494242Y-118607592D01*
X83502424Y-118569173D01*
X83505233Y-118509125D01*
X83502424Y-118447466D01*
X83494242Y-118409987D01*
X83480687Y-118390375D01*
X83462979Y-118384330D01*
X82234438Y-118384330D01*
G37*
G36*
X83875872Y-118355851D02*
G01*
X83804844Y-118365626D01*
X83768283Y-118388897D01*
X83748196Y-118430477D01*
X83739706Y-118510603D01*
X83747991Y-118589407D01*
X83767550Y-118630160D01*
X83803360Y-118652849D01*
X83873185Y-118662400D01*
X83944213Y-118652625D01*
X83980774Y-118629354D01*
X84000861Y-118587774D01*
X84009351Y-118507648D01*
X84001029Y-118428881D01*
X83981385Y-118388225D01*
X83945662Y-118365442D01*
X83875872Y-118355851D01*
G37*
G36*
X82571737Y-116383968D02*
G01*
X82480961Y-116393921D01*
X82403454Y-116422388D01*
X82335487Y-116468745D01*
X82279012Y-116531332D01*
X82235177Y-116607458D01*
X82202442Y-116699652D01*
X82183257Y-116800306D01*
X82176552Y-116914586D01*
X82186810Y-117052144D01*
X82212700Y-117169282D01*
X82245429Y-117257271D01*
X82276203Y-117309795D01*
X82314305Y-117333841D01*
X82380983Y-117341364D01*
X82424581Y-117338408D01*
X82453157Y-117330886D01*
X82468789Y-117318124D01*
X82473551Y-117299317D01*
X82455111Y-117250420D01*
X82414933Y-117170760D01*
X82374633Y-117058860D01*
X82361151Y-116991329D01*
X82356315Y-116910019D01*
X82368649Y-116795835D01*
X82384239Y-116747291D01*
X82405041Y-116707175D01*
X82432377Y-116673854D01*
X82466102Y-116649277D01*
X82505415Y-116634331D01*
X82553907Y-116628993D01*
X82602581Y-116636607D01*
X82641346Y-116658278D01*
X82674327Y-116691563D01*
X82704239Y-116735654D01*
X82752721Y-116843927D01*
X82797173Y-116967916D01*
X82849808Y-117092578D01*
X82882599Y-117150429D01*
X82921615Y-117201523D01*
X82967724Y-117244671D01*
X83022732Y-117279033D01*
X83085251Y-117300543D01*
X83163660Y-117308318D01*
X83234604Y-117300615D01*
X83302390Y-117277555D01*
X83364301Y-117239223D01*
X83418527Y-117185134D01*
X83462631Y-117117447D01*
X83498517Y-117031053D01*
X83520693Y-116934048D01*
X83528681Y-116815314D01*
X83520132Y-116707175D01*
X83498639Y-116609515D01*
X83470795Y-116535094D01*
X83444295Y-116488480D01*
X83424755Y-116467390D01*
X83406315Y-116460001D01*
X83380914Y-116455434D01*
X83344033Y-116453150D01*
X83303733Y-116455434D01*
X83275645Y-116462957D01*
X83259891Y-116475718D01*
X83255129Y-116492241D01*
X83270638Y-116531332D01*
X83303977Y-116597424D01*
X83337194Y-116692936D01*
X83348708Y-116750046D01*
X83352826Y-116818403D01*
X83349396Y-116879313D01*
X83339881Y-116929497D01*
X83323719Y-116974355D01*
X83303122Y-117008485D01*
X83277087Y-117035590D01*
X83246702Y-117055099D01*
X83175994Y-117070816D01*
X83125978Y-117063014D01*
X83086357Y-117040860D01*
X83052914Y-117006891D01*
X83022854Y-116962677D01*
X82973639Y-116852927D01*
X82928454Y-116727459D01*
X82876552Y-116601186D01*
X82844527Y-116542030D01*
X82806821Y-116490764D01*
X82762018Y-116447627D01*
X82708391Y-116413387D01*
X82647471Y-116391748D01*
X82571737Y-116383968D01*
G37*
G36*
X82234682Y-114864790D02*
G01*
X82216120Y-114870835D01*
X82203175Y-114890314D01*
X82194993Y-114927927D01*
X82192184Y-114987974D01*
X82194993Y-115049633D01*
X82203175Y-115087247D01*
X82216120Y-115106725D01*
X82234682Y-115112770D01*
X82956542Y-115112770D01*
X83056896Y-115117834D01*
X83126413Y-115130771D01*
X83187472Y-115153489D01*
X83237299Y-115183429D01*
X83278494Y-115223109D01*
X83308618Y-115272896D01*
X83326862Y-115330728D01*
X83333286Y-115399841D01*
X83318987Y-115490519D01*
X83272958Y-115586161D01*
X83202856Y-115676957D01*
X83096249Y-115781482D01*
X82234682Y-115781482D01*
X82216120Y-115787527D01*
X82203175Y-115807140D01*
X82194993Y-115844619D01*
X82192184Y-115906278D01*
X82194993Y-115966325D01*
X82203053Y-116004745D01*
X82216120Y-116024223D01*
X82234560Y-116029462D01*
X84063206Y-116029462D01*
X84082379Y-116024223D01*
X84096057Y-116004745D01*
X84104239Y-115966325D01*
X84107048Y-115906278D01*
X84104239Y-115844619D01*
X84096057Y-115807140D01*
X84082379Y-115787527D01*
X84063328Y-115781482D01*
X83325959Y-115781482D01*
X83417896Y-115671025D01*
X83478611Y-115566683D01*
X83516475Y-115456676D01*
X83528681Y-115348660D01*
X83517502Y-115220160D01*
X83486915Y-115120964D01*
X83437611Y-115036685D01*
X83375296Y-114971451D01*
X83300490Y-114922970D01*
X83211653Y-114889642D01*
X83112882Y-114871541D01*
X82984996Y-114864790D01*
X82234682Y-114864790D01*
G37*
G36*
X83015410Y-113166090D02*
G01*
X83143143Y-113196636D01*
X83258528Y-113249235D01*
X83352337Y-113320626D01*
X83427686Y-113412817D01*
X83483496Y-113527231D01*
X83516736Y-113657826D01*
X83528681Y-113818063D01*
X83515374Y-113983965D01*
X83478122Y-114120179D01*
X83416773Y-114239455D01*
X83335851Y-114335785D01*
X83236768Y-114410543D01*
X83117742Y-114465013D01*
X82987559Y-114496810D01*
X82841015Y-114507866D01*
X82689944Y-114497218D01*
X82562090Y-114467297D01*
X82446727Y-114415321D01*
X82352896Y-114344113D01*
X82277514Y-114251818D01*
X82221615Y-114137374D01*
X82188463Y-114006802D01*
X82176552Y-113846676D01*
X82177539Y-113834586D01*
X82366085Y-113834586D01*
X82376516Y-113947015D01*
X82405041Y-114032997D01*
X82451066Y-114104910D01*
X82510188Y-114160076D01*
X82580797Y-114200034D01*
X82665282Y-114227646D01*
X82755963Y-114242722D01*
X82855303Y-114247930D01*
X82958144Y-114241499D01*
X83049354Y-114223079D01*
X83133578Y-114191017D01*
X83203105Y-114147180D01*
X83260703Y-114089199D01*
X83303611Y-114017280D01*
X83329763Y-113933218D01*
X83339148Y-113828541D01*
X83328720Y-113716230D01*
X83300191Y-113630265D01*
X83253977Y-113558586D01*
X83194190Y-113503991D01*
X83123105Y-113464522D01*
X83038485Y-113437093D01*
X82948072Y-113422001D01*
X82849930Y-113416809D01*
X82745859Y-113423054D01*
X82654413Y-113440854D01*
X82570420Y-113472350D01*
X82501395Y-113516081D01*
X82444443Y-113574139D01*
X82401622Y-113646788D01*
X82375417Y-113731232D01*
X82366085Y-113834586D01*
X82177539Y-113834586D01*
X82189998Y-113682031D01*
X82227843Y-113545366D01*
X82289786Y-113425373D01*
X82370725Y-113328954D01*
X82469781Y-113253930D01*
X82588712Y-113198920D01*
X82719032Y-113166518D01*
X82865561Y-113155261D01*
X83015410Y-113166090D01*
G37*
G36*
X82235903Y-111679876D02*
G01*
X82216730Y-111685921D01*
X82203053Y-111706205D01*
X82194993Y-111745968D01*
X82192184Y-111810582D01*
X82194260Y-111877480D01*
X82201099Y-111921810D01*
X82214654Y-111951095D01*
X82235903Y-111971379D01*
X82915631Y-112542431D01*
X82234438Y-112542431D01*
X82215997Y-112548476D01*
X82203053Y-112568089D01*
X82194993Y-112605568D01*
X82192184Y-112667227D01*
X82194993Y-112727274D01*
X82203053Y-112765694D01*
X82216120Y-112785172D01*
X82234560Y-112790411D01*
X84063206Y-112790411D01*
X84082379Y-112785172D01*
X84096057Y-112765694D01*
X84104239Y-112727274D01*
X84107048Y-112667227D01*
X84104239Y-112605568D01*
X84096057Y-112568089D01*
X84082379Y-112548476D01*
X84063206Y-112542431D01*
X82947016Y-112542431D01*
X83457484Y-112031561D01*
X83479954Y-112006038D01*
X83494975Y-111973663D01*
X83503157Y-111929333D01*
X83505233Y-111867674D01*
X83503157Y-111804537D01*
X83496318Y-111763297D01*
X83483984Y-111740729D01*
X83464323Y-111733878D01*
X83431472Y-111743684D01*
X83393370Y-111776058D01*
X82948360Y-112265973D01*
X82300017Y-111715877D01*
X82262404Y-111688204D01*
X82235903Y-111679876D01*
G37*
G36*
X83175523Y-110433622D02*
G01*
X83265753Y-110454619D01*
X83345917Y-110492320D01*
X83410223Y-110546235D01*
X83460436Y-110617308D01*
X83498517Y-110711599D01*
X83520524Y-110819767D01*
X83528681Y-110959579D01*
X83515491Y-111114331D01*
X83482152Y-111255650D01*
X83437700Y-111369834D01*
X83395568Y-111439687D01*
X83357833Y-111465211D01*
X83303733Y-111470450D01*
X83265997Y-111467494D01*
X83237909Y-111457822D01*
X83221545Y-111441971D01*
X83216050Y-111420881D01*
X83236078Y-111366072D01*
X83280530Y-111274457D01*
X83324860Y-111146706D01*
X83339734Y-111071013D01*
X83345010Y-110982147D01*
X83339935Y-110900182D01*
X83326325Y-110837873D01*
X83302823Y-110783863D01*
X83271249Y-110742362D01*
X83230884Y-110711105D01*
X83179535Y-110689031D01*
X83122070Y-110676885D01*
X83052651Y-110672508D01*
X82956175Y-110672508D01*
X82956175Y-110858829D01*
X82949554Y-111012472D01*
X82931018Y-111142944D01*
X82898460Y-111262374D01*
X82855425Y-111356266D01*
X82798062Y-111433914D01*
X82728907Y-111490062D01*
X82647832Y-111524522D01*
X82549389Y-111536676D01*
X82464220Y-111527891D01*
X82391486Y-111502824D01*
X82327279Y-111461998D01*
X82274494Y-111408119D01*
X82233032Y-111341990D01*
X82201709Y-111260889D01*
X82183102Y-111171389D01*
X82176552Y-111067718D01*
X82180414Y-111028627D01*
X82352407Y-111028627D01*
X82359349Y-111106485D01*
X82378509Y-111167630D01*
X82408705Y-111215753D01*
X82449818Y-111252400D01*
X82499488Y-111274763D01*
X82560258Y-111282651D01*
X82613660Y-111276614D01*
X82658688Y-111259412D01*
X82697879Y-111230073D01*
X82732083Y-111186468D01*
X82758230Y-111132521D01*
X82778367Y-111061807D01*
X82789794Y-110983121D01*
X82793998Y-110884352D01*
X82793998Y-110672508D01*
X82534490Y-110672508D01*
X82450842Y-110766067D01*
X82397226Y-110847545D01*
X82363633Y-110934439D01*
X82352407Y-111028627D01*
X82180414Y-111028627D01*
X82188274Y-110949060D01*
X82223325Y-110837067D01*
X82279306Y-110734075D01*
X82356071Y-110639462D01*
X82233217Y-110639462D01*
X82208548Y-110628984D01*
X82196336Y-110595132D01*
X82192184Y-110532667D01*
X82196336Y-110471142D01*
X82208548Y-110438096D01*
X82233217Y-110426006D01*
X83064497Y-110426006D01*
X83175523Y-110433622D01*
G37*
G36*
X82200000Y-108660057D02*
G01*
X81745097Y-108840467D01*
X81726654Y-108855165D01*
X81711514Y-108886275D01*
X81703246Y-108927944D01*
X81699790Y-108998309D01*
X81703210Y-109061311D01*
X81714933Y-109098253D01*
X81736915Y-109112493D01*
X81769888Y-109104970D01*
X82200000Y-108918649D01*
X82217707Y-108944173D01*
X82243719Y-108960696D01*
X83417794Y-109443087D01*
X83462857Y-109455177D01*
X83488869Y-109443222D01*
X83501814Y-109404131D01*
X83505233Y-109331859D01*
X83503157Y-109261334D01*
X83495586Y-109220631D01*
X83479954Y-109198869D01*
X83451988Y-109184630D01*
X82466224Y-108798421D01*
X82466224Y-108793853D01*
X83457484Y-108421212D01*
X83490823Y-108399316D01*
X83501814Y-108361031D01*
X83505233Y-108287416D01*
X83501814Y-108218368D01*
X83488869Y-108178471D01*
X83462857Y-108165710D01*
X83421946Y-108174710D01*
X82200000Y-108660057D01*
G37*
G36*
X83066002Y-106774464D02*
G01*
X83173918Y-106799672D01*
X83273447Y-106843572D01*
X83357711Y-106905661D01*
X83427390Y-106986752D01*
X83482397Y-107089832D01*
X83516328Y-107209094D01*
X83528681Y-107361051D01*
X83516522Y-107504753D01*
X83481542Y-107629987D01*
X83423991Y-107741569D01*
X83346109Y-107835115D01*
X83250029Y-107909053D01*
X83131420Y-107965150D01*
X83000163Y-107998493D01*
X82846510Y-108010286D01*
X82685515Y-107998733D01*
X82553907Y-107966762D01*
X82436840Y-107911426D01*
X82344713Y-107837398D01*
X82272057Y-107742580D01*
X82218928Y-107626226D01*
X82187750Y-107494515D01*
X82176552Y-107333916D01*
X82189741Y-107152834D01*
X82219295Y-107003321D01*
X82253122Y-106898138D01*
X82277791Y-106849375D01*
X82293545Y-106835807D01*
X82312107Y-106828285D01*
X82335432Y-106824523D01*
X82366329Y-106822911D01*
X82408094Y-106825195D01*
X82434717Y-106832046D01*
X82449127Y-106844808D01*
X82454012Y-106863480D01*
X82439480Y-106916945D01*
X82407117Y-107007083D01*
X82374633Y-107137117D01*
X82364043Y-107214944D01*
X82360223Y-107308393D01*
X82368734Y-107424576D01*
X82391852Y-107514326D01*
X82430822Y-107591269D01*
X82482588Y-107651078D01*
X82546555Y-107695596D01*
X82624127Y-107726170D01*
X82709407Y-107742811D01*
X82809630Y-107748738D01*
X82975715Y-107748738D01*
X83049077Y-107740086D01*
X83118841Y-107720259D01*
X83183711Y-107689033D01*
X83238886Y-107648122D01*
X83285068Y-107596223D01*
X83321563Y-107532327D01*
X83344673Y-107459249D01*
X83352826Y-107371530D01*
X83340602Y-107257442D01*
X83306774Y-107169627D01*
X83252442Y-107101788D01*
X83181085Y-107053674D01*
X83090628Y-107024009D01*
X82975715Y-107015277D01*
X82975715Y-107748738D01*
X82809630Y-107748738D01*
X82809630Y-106862002D01*
X82815216Y-106826666D01*
X82832100Y-106795239D01*
X82860117Y-106774031D01*
X82907693Y-106765819D01*
X82948482Y-106765819D01*
X83066002Y-106774464D01*
G37*
G36*
X82324685Y-105701495D02*
G01*
X82261549Y-105707540D01*
X82227355Y-105725540D01*
X82206716Y-105761542D01*
X82190963Y-105816484D01*
X82180704Y-105881770D01*
X82176552Y-105950952D01*
X82183292Y-106051814D01*
X82201709Y-106131362D01*
X82233832Y-106200300D01*
X82278157Y-106254546D01*
X82334646Y-106295247D01*
X82407728Y-106324399D01*
X82489791Y-106340320D01*
X82592498Y-106346161D01*
X83309839Y-106346161D01*
X83309839Y-106535572D01*
X83314994Y-106555269D01*
X83331699Y-106571573D01*
X83357367Y-106581117D01*
X83402896Y-106585141D01*
X83446737Y-106581379D01*
X83476168Y-106571573D01*
X83492655Y-106555856D01*
X83497418Y-106533960D01*
X83497418Y-106346161D01*
X83789776Y-106346161D01*
X83807484Y-106340922D01*
X83821894Y-106321444D01*
X83830687Y-106283025D01*
X83833496Y-106222978D01*
X83830687Y-106161318D01*
X83821894Y-106123839D01*
X83807484Y-106104227D01*
X83789776Y-106098182D01*
X83497418Y-106098182D01*
X83497418Y-105751064D01*
X83492655Y-105729973D01*
X83476168Y-105714256D01*
X83446737Y-105704450D01*
X83402896Y-105701495D01*
X83357367Y-105705519D01*
X83331699Y-105715062D01*
X83315006Y-105731278D01*
X83309839Y-105751064D01*
X83309839Y-106098182D01*
X82626081Y-106098182D01*
X82508290Y-106086376D01*
X82434717Y-106056941D01*
X82399833Y-106023637D01*
X82378049Y-105975985D01*
X82369993Y-105908771D01*
X82376099Y-105847247D01*
X82389166Y-105799155D01*
X82402110Y-105763019D01*
X82408339Y-105736018D01*
X82404919Y-105721779D01*
X82391852Y-105711167D01*
X82365840Y-105704450D01*
X82324685Y-105701495D01*
G37*
G36*
X82234438Y-104214422D02*
G01*
X82215997Y-104219661D01*
X82203053Y-104238468D01*
X82194993Y-104273797D01*
X82192184Y-104327128D01*
X82194993Y-104383548D01*
X82203053Y-104418072D01*
X82215997Y-104435401D01*
X82234560Y-104439834D01*
X82396981Y-104439834D01*
X82294333Y-104559244D01*
X82229309Y-104668201D01*
X82189449Y-104782953D01*
X82176552Y-104896702D01*
X82187514Y-105025266D01*
X82217463Y-105124398D01*
X82266141Y-105208620D01*
X82328471Y-105273911D01*
X82403513Y-105322466D01*
X82491992Y-105355854D01*
X82590508Y-105373843D01*
X82718893Y-105380572D01*
X83462979Y-105380572D01*
X83481297Y-105375333D01*
X83494975Y-105355048D01*
X83503157Y-105315957D01*
X83505233Y-105255910D01*
X83503157Y-105195729D01*
X83494975Y-105157444D01*
X83481297Y-105137159D01*
X83462979Y-105131114D01*
X82748813Y-105131114D01*
X82646578Y-105126259D01*
X82576500Y-105113920D01*
X82515318Y-105091505D01*
X82466102Y-105061261D01*
X82425488Y-105021179D01*
X82395150Y-104971795D01*
X82376554Y-104914507D01*
X82369993Y-104845521D01*
X82384156Y-104754914D01*
X82429588Y-104660006D01*
X82498846Y-104569540D01*
X82604344Y-104463879D01*
X83462979Y-104463879D01*
X83481297Y-104458640D01*
X83494975Y-104438356D01*
X83503157Y-104400071D01*
X83505233Y-104339084D01*
X83503157Y-104279036D01*
X83494975Y-104241423D01*
X83481297Y-104221139D01*
X83462979Y-104214422D01*
X82234438Y-104214422D01*
G37*
G36*
X80505369Y-123022733D02*
G01*
X80460184Y-123025689D01*
X80429532Y-123035495D01*
X80412435Y-123052018D01*
X80407062Y-123073780D01*
X80407062Y-123620786D01*
X78875903Y-123620786D01*
X78856730Y-123626831D01*
X78843785Y-123647922D01*
X78835603Y-123687819D01*
X78832184Y-123750015D01*
X78835603Y-123811674D01*
X78843785Y-123852243D01*
X78856730Y-123873333D01*
X78875903Y-123879378D01*
X80407062Y-123879378D01*
X80407062Y-124426385D01*
X80412435Y-124448147D01*
X80429532Y-124463998D01*
X80460184Y-124473670D01*
X80505369Y-124477431D01*
X80551043Y-124473670D01*
X80583161Y-124463998D01*
X80600868Y-124448147D01*
X80606364Y-124426385D01*
X80606364Y-123073780D01*
X80600868Y-123052018D01*
X80583161Y-123035495D01*
X80551043Y-123025689D01*
X80505369Y-123022733D01*
G37*
G36*
X78874682Y-121605111D02*
G01*
X78856120Y-121611156D01*
X78843175Y-121630635D01*
X78834993Y-121668248D01*
X78832184Y-121728295D01*
X78834993Y-121789954D01*
X78843175Y-121827568D01*
X78856120Y-121847046D01*
X78874682Y-121853091D01*
X79596542Y-121853091D01*
X79696896Y-121858155D01*
X79766413Y-121871092D01*
X79827472Y-121893810D01*
X79877299Y-121923750D01*
X79918494Y-121963430D01*
X79948618Y-122013217D01*
X79966862Y-122071049D01*
X79973286Y-122140162D01*
X79958987Y-122230840D01*
X79912958Y-122326482D01*
X79842856Y-122417278D01*
X79736249Y-122521803D01*
X78874682Y-122521803D01*
X78856120Y-122527848D01*
X78843175Y-122547461D01*
X78834993Y-122584940D01*
X78832184Y-122646599D01*
X78834993Y-122706646D01*
X78843053Y-122745066D01*
X78856120Y-122764544D01*
X78874560Y-122769783D01*
X80703206Y-122769783D01*
X80722379Y-122764544D01*
X80736057Y-122745066D01*
X80744239Y-122706646D01*
X80747048Y-122646599D01*
X80744239Y-122584940D01*
X80736057Y-122547461D01*
X80722379Y-122527848D01*
X80703328Y-122521803D01*
X79965959Y-122521803D01*
X80057896Y-122411346D01*
X80118611Y-122307004D01*
X80156475Y-122196997D01*
X80168681Y-122088981D01*
X80157502Y-121960481D01*
X80126915Y-121861285D01*
X80077611Y-121777006D01*
X80015296Y-121711772D01*
X79940490Y-121663291D01*
X79851653Y-121629963D01*
X79752882Y-121611862D01*
X79624996Y-121605111D01*
X78874682Y-121605111D01*
G37*
G36*
X79706002Y-120007932D02*
G01*
X79813918Y-120033140D01*
X79913447Y-120077040D01*
X79997711Y-120139129D01*
X80067390Y-120220220D01*
X80122397Y-120323300D01*
X80156328Y-120442562D01*
X80168681Y-120594520D01*
X80156522Y-120738221D01*
X80121542Y-120863456D01*
X80063991Y-120975038D01*
X79986109Y-121068583D01*
X79890029Y-121142521D01*
X79771420Y-121198618D01*
X79640163Y-121231962D01*
X79486510Y-121243754D01*
X79325515Y-121232202D01*
X79193907Y-121200230D01*
X79076840Y-121144894D01*
X78984713Y-121070867D01*
X78912057Y-120976049D01*
X78858928Y-120859694D01*
X78827750Y-120727983D01*
X78816552Y-120567384D01*
X78829741Y-120386303D01*
X78859295Y-120236789D01*
X78893122Y-120131606D01*
X78917791Y-120082843D01*
X78933545Y-120069275D01*
X78952107Y-120061753D01*
X78975432Y-120057991D01*
X79006329Y-120056379D01*
X79048094Y-120058663D01*
X79074717Y-120065514D01*
X79089127Y-120078276D01*
X79094012Y-120096948D01*
X79079480Y-120150413D01*
X79047117Y-120240551D01*
X79014633Y-120370586D01*
X79004043Y-120448412D01*
X79000223Y-120541861D01*
X79008734Y-120658044D01*
X79031852Y-120747794D01*
X79070822Y-120824737D01*
X79122588Y-120884546D01*
X79186555Y-120929064D01*
X79264127Y-120959638D01*
X79349407Y-120976279D01*
X79449630Y-120982206D01*
X79615715Y-120982206D01*
X79689077Y-120973555D01*
X79758841Y-120953728D01*
X79823711Y-120922501D01*
X79878886Y-120881591D01*
X79925068Y-120829691D01*
X79961563Y-120765795D01*
X79984673Y-120692717D01*
X79992826Y-120604998D01*
X79980602Y-120490910D01*
X79946774Y-120403096D01*
X79892442Y-120335256D01*
X79821085Y-120287143D01*
X79730628Y-120257477D01*
X79615715Y-120248745D01*
X79615715Y-120982206D01*
X79449630Y-120982206D01*
X79449630Y-120095471D01*
X79455216Y-120060134D01*
X79472100Y-120028707D01*
X79500117Y-120007499D01*
X79547693Y-119999288D01*
X79588482Y-119999288D01*
X79706002Y-120007932D01*
G37*
G36*
X78923164Y-117441980D02*
G01*
X80563866Y-118094169D01*
X80589023Y-118110826D01*
X80604654Y-118140917D01*
X80612103Y-118191964D01*
X80614180Y-118271624D01*
X80612103Y-118345910D01*
X80604654Y-118394002D01*
X80589633Y-118422615D01*
X80565209Y-118438332D01*
X78924630Y-119090655D01*
X78876270Y-119103417D01*
X78848426Y-119092939D01*
X78835603Y-119053848D01*
X78832184Y-118982383D01*
X78834870Y-118914007D01*
X78843663Y-118873438D01*
X78858562Y-118851676D01*
X78879567Y-118839586D01*
X79301130Y-118680401D01*
X79301130Y-118615652D01*
X79488709Y-118615652D01*
X80371891Y-118280624D01*
X80371891Y-118279012D01*
X79488709Y-117939417D01*
X79488709Y-118615652D01*
X79301130Y-118615652D01*
X79301130Y-117871847D01*
X78874193Y-117705005D01*
X78853799Y-117692243D01*
X78840976Y-117671153D01*
X78834260Y-117629106D01*
X78832184Y-117554685D01*
X78834870Y-117480265D01*
X78847083Y-117440502D01*
X78874804Y-117429218D01*
X78923164Y-117441980D01*
G37*
G36*
X80611127Y-116404118D02*
G01*
X80569361Y-116407208D01*
X80543960Y-116413925D01*
X80531015Y-116423731D01*
X80527595Y-116438642D01*
X80533702Y-116464972D01*
X80547379Y-116503257D01*
X80561057Y-116556721D01*
X80567285Y-116628053D01*
X80562859Y-116681069D01*
X80550676Y-116722758D01*
X80529706Y-116757758D01*
X80499019Y-116785760D01*
X80460641Y-116805728D01*
X80408161Y-116820418D01*
X80272484Y-116830896D01*
X80137418Y-116830896D01*
X80137418Y-116528780D01*
X80132655Y-116508630D01*
X80116168Y-116493585D01*
X80086737Y-116482972D01*
X80042896Y-116479211D01*
X79997367Y-116483235D01*
X79971699Y-116492779D01*
X79954994Y-116509082D01*
X79949839Y-116528780D01*
X79949839Y-116830896D01*
X78874438Y-116830896D01*
X78855997Y-116836941D01*
X78843053Y-116857226D01*
X78834993Y-116895511D01*
X78832184Y-116955692D01*
X78834993Y-117015739D01*
X78843053Y-117054159D01*
X78855997Y-117074443D01*
X78874438Y-117080354D01*
X79949839Y-117080354D01*
X79949839Y-117271242D01*
X79955133Y-117292013D01*
X79971699Y-117307377D01*
X79997259Y-117315766D01*
X80042896Y-117319333D01*
X80086737Y-117316378D01*
X80116168Y-117307377D01*
X80132655Y-117292332D01*
X80137418Y-117271242D01*
X80137418Y-117080354D01*
X80265279Y-117080354D01*
X80389866Y-117073275D01*
X80487418Y-117054159D01*
X80573916Y-117019750D01*
X80639337Y-116973693D01*
X80690538Y-116912919D01*
X80726653Y-116837747D01*
X80747373Y-116751430D01*
X80754863Y-116644576D01*
X80745949Y-116542348D01*
X80726775Y-116465778D01*
X80708335Y-116429642D01*
X80687086Y-116414596D01*
X80655579Y-116406402D01*
X80611127Y-116404118D01*
G37*
G36*
X80026653Y-115415289D02*
G01*
X79976095Y-115416767D01*
X79943977Y-115422812D01*
X79926270Y-115434096D01*
X79920163Y-115452768D01*
X79926270Y-115482187D01*
X79938482Y-115521278D01*
X79950205Y-115570041D01*
X79955701Y-115628611D01*
X79941779Y-115702360D01*
X79896106Y-115778258D01*
X79811475Y-115861680D01*
X79682515Y-115957728D01*
X78874438Y-115957728D01*
X78855997Y-115963773D01*
X78843053Y-115983386D01*
X78834993Y-116020865D01*
X78832184Y-116082524D01*
X78834993Y-116142571D01*
X78843053Y-116180990D01*
X78855997Y-116200469D01*
X78874438Y-116205708D01*
X80102979Y-116205708D01*
X80121297Y-116201275D01*
X80134975Y-116183274D01*
X80143157Y-116148750D01*
X80145233Y-116093002D01*
X80143157Y-116038194D01*
X80134975Y-116004476D01*
X80121297Y-115987147D01*
X80102857Y-115981774D01*
X79924071Y-115981774D01*
X80046315Y-115877397D01*
X80120687Y-115784975D01*
X80158178Y-115698599D01*
X80168681Y-115612088D01*
X80166605Y-115567892D01*
X80159033Y-115516039D01*
X80146821Y-115467142D01*
X80133143Y-115436245D01*
X80120198Y-115424289D01*
X80104445Y-115419050D01*
X80076479Y-115416095D01*
X80026653Y-115415289D01*
G37*
G36*
X78874438Y-114885209D02*
G01*
X78855997Y-114891254D01*
X78843053Y-114910867D01*
X78834993Y-114948346D01*
X78832184Y-115010005D01*
X78834993Y-115070052D01*
X78843053Y-115108471D01*
X78855997Y-115127950D01*
X78874438Y-115133189D01*
X80102979Y-115133189D01*
X80120687Y-115127950D01*
X80134242Y-115108471D01*
X80142424Y-115070052D01*
X80145233Y-115010005D01*
X80142424Y-114948346D01*
X80134242Y-114910867D01*
X80120687Y-114891254D01*
X80102979Y-114885209D01*
X78874438Y-114885209D01*
G37*
G36*
X80515872Y-114856730D02*
G01*
X80444844Y-114866505D01*
X80408283Y-114889776D01*
X80388196Y-114931356D01*
X80379706Y-115011482D01*
X80387991Y-115090286D01*
X80407550Y-115131039D01*
X80443360Y-115153728D01*
X80513185Y-115163279D01*
X80584213Y-115153504D01*
X80620774Y-115130233D01*
X80640861Y-115088653D01*
X80649351Y-115008527D01*
X80641029Y-114929761D01*
X80621385Y-114889105D01*
X80585662Y-114866322D01*
X80515872Y-114856730D01*
G37*
G36*
X79064825Y-113455900D02*
G01*
X79024647Y-113457377D01*
X78996071Y-113462616D01*
X78975554Y-113471751D01*
X78949420Y-113495797D01*
X78906678Y-113559605D01*
X78861249Y-113661161D01*
X78829009Y-113783539D01*
X78816552Y-113920291D01*
X78827901Y-114060600D01*
X78860027Y-114178749D01*
X78913845Y-114282559D01*
X78987278Y-114367353D01*
X79078433Y-114433105D01*
X79192686Y-114483148D01*
X79319808Y-114512386D01*
X79473688Y-114522911D01*
X79647486Y-114509828D01*
X79784609Y-114474148D01*
X79905385Y-114414631D01*
X79997588Y-114340352D01*
X80069979Y-114247776D01*
X80120687Y-114140464D01*
X80150617Y-114022026D01*
X80160865Y-113891678D01*
X80149752Y-113766210D01*
X80120565Y-113654310D01*
X80078921Y-113563367D01*
X80038621Y-113505469D01*
X80012243Y-113480751D01*
X79989528Y-113469467D01*
X79960097Y-113463422D01*
X79918942Y-113461945D01*
X79869629Y-113466076D01*
X79844082Y-113475512D01*
X79827685Y-113491224D01*
X79822833Y-113508558D01*
X79827783Y-113530836D01*
X79845914Y-113560411D01*
X79897083Y-113634832D01*
X79948129Y-113743777D01*
X79965173Y-113811136D01*
X79971332Y-113894767D01*
X79963109Y-113981229D01*
X79939669Y-114054023D01*
X79901451Y-114116055D01*
X79847013Y-114169077D01*
X79759637Y-114218842D01*
X79642177Y-114252047D01*
X79486144Y-114264453D01*
X79371797Y-114257857D01*
X79278904Y-114239736D01*
X79195257Y-114208083D01*
X79130160Y-114166793D01*
X79077663Y-114112835D01*
X79041133Y-114048848D01*
X79019533Y-113975393D01*
X79011946Y-113888722D01*
X79018431Y-113806383D01*
X79036615Y-113738403D01*
X79090715Y-113626503D01*
X79144204Y-113546844D01*
X79163534Y-113515253D01*
X79168262Y-113496468D01*
X79162766Y-113478468D01*
X79144448Y-113465706D01*
X79111720Y-113458183D01*
X79064825Y-113455900D01*
G37*
G36*
X79815523Y-112140195D02*
G01*
X79905753Y-112161193D01*
X79985917Y-112198894D01*
X80050223Y-112252808D01*
X80100436Y-112323882D01*
X80138517Y-112418173D01*
X80160524Y-112526341D01*
X80168681Y-112666153D01*
X80155491Y-112820905D01*
X80122152Y-112962224D01*
X80077700Y-113076407D01*
X80035568Y-113146261D01*
X79997833Y-113171784D01*
X79943733Y-113177023D01*
X79905997Y-113174068D01*
X79877909Y-113164396D01*
X79861545Y-113148545D01*
X79856050Y-113127454D01*
X79876078Y-113072646D01*
X79920530Y-112981031D01*
X79964860Y-112853279D01*
X79979734Y-112777587D01*
X79985010Y-112688721D01*
X79979935Y-112606756D01*
X79966325Y-112544446D01*
X79942823Y-112490436D01*
X79911249Y-112448935D01*
X79870884Y-112417679D01*
X79819535Y-112395605D01*
X79762070Y-112383458D01*
X79692651Y-112379082D01*
X79596175Y-112379082D01*
X79596175Y-112565403D01*
X79589554Y-112719045D01*
X79571018Y-112849518D01*
X79538460Y-112968947D01*
X79495425Y-113062840D01*
X79438062Y-113140488D01*
X79368907Y-113196636D01*
X79287832Y-113231095D01*
X79189389Y-113243250D01*
X79104220Y-113234465D01*
X79031486Y-113209398D01*
X78967279Y-113168571D01*
X78914494Y-113114692D01*
X78873032Y-113048564D01*
X78841709Y-112967463D01*
X78823102Y-112877963D01*
X78816552Y-112774291D01*
X78820414Y-112735200D01*
X78992407Y-112735200D01*
X78999349Y-112813059D01*
X79018509Y-112874204D01*
X79048705Y-112922327D01*
X79089818Y-112958973D01*
X79139488Y-112981337D01*
X79200258Y-112989225D01*
X79253660Y-112983188D01*
X79298688Y-112965985D01*
X79337879Y-112936646D01*
X79372083Y-112893042D01*
X79398230Y-112839094D01*
X79418367Y-112768381D01*
X79429794Y-112689695D01*
X79433998Y-112590926D01*
X79433998Y-112379082D01*
X79174490Y-112379082D01*
X79090842Y-112472640D01*
X79037226Y-112554118D01*
X79003633Y-112641012D01*
X78992407Y-112735200D01*
X78820414Y-112735200D01*
X78828274Y-112655633D01*
X78863325Y-112543640D01*
X78919306Y-112440648D01*
X78996071Y-112346036D01*
X78873217Y-112346036D01*
X78848548Y-112335558D01*
X78836336Y-112301706D01*
X78832184Y-112239241D01*
X78836336Y-112177716D01*
X78848548Y-112144670D01*
X78873217Y-112132580D01*
X79704497Y-112132580D01*
X79815523Y-112140195D01*
G37*
G36*
X79432073Y-109680142D02*
G01*
X79509347Y-109702486D01*
X79580135Y-109738349D01*
X79640017Y-109784295D01*
X79690924Y-109840537D01*
X79731852Y-109905329D01*
X79762301Y-109976878D01*
X79781556Y-110054036D01*
X79809874Y-109994151D01*
X79844570Y-109942137D01*
X79885658Y-109897239D01*
X79931521Y-109860999D01*
X79982168Y-109832715D01*
X80037766Y-109812102D01*
X80096235Y-109799768D01*
X80158300Y-109795579D01*
X80260155Y-109805352D01*
X80347344Y-109833192D01*
X80424615Y-109880128D01*
X80488517Y-109945226D01*
X80538241Y-110026737D01*
X80576200Y-110130741D01*
X80597987Y-110250096D01*
X80606364Y-110416334D01*
X80606364Y-110858157D01*
X80601205Y-110891298D01*
X80585115Y-110923578D01*
X80558066Y-110945753D01*
X80510865Y-110954340D01*
X78935498Y-110954340D01*
X78888275Y-110945759D01*
X78861127Y-110923578D01*
X78845131Y-110891307D01*
X78840000Y-110858157D01*
X78840000Y-110350108D01*
X78840964Y-110323107D01*
X79033440Y-110323107D01*
X79033440Y-110698838D01*
X79652840Y-110698838D01*
X79652840Y-110404244D01*
X79840418Y-110404244D01*
X79840418Y-110698838D01*
X80414877Y-110698838D01*
X80414877Y-110431245D01*
X80409495Y-110325736D01*
X80395704Y-110252581D01*
X80371523Y-110189912D01*
X80340139Y-110142831D01*
X80300130Y-110106486D01*
X80251723Y-110081172D01*
X80197653Y-110066654D01*
X80135219Y-110061559D01*
X80078340Y-110066276D01*
X80023356Y-110080366D01*
X79972467Y-110104744D01*
X79928834Y-110139741D01*
X79892935Y-110184900D01*
X79864354Y-110241969D01*
X79847061Y-110309044D01*
X79840418Y-110404244D01*
X79652840Y-110404244D01*
X79652840Y-110389199D01*
X79647019Y-110272837D01*
X79631713Y-110187161D01*
X79605048Y-110111943D01*
X79569919Y-110053365D01*
X79524621Y-110006545D01*
X79469413Y-109972227D01*
X79406627Y-109951717D01*
X79330928Y-109944420D01*
X79260527Y-109951895D01*
X79201845Y-109973033D01*
X79150520Y-110007170D01*
X79108789Y-110051887D01*
X79076232Y-110105644D01*
X79052369Y-110168354D01*
X79038479Y-110237622D01*
X79033440Y-110323107D01*
X78840964Y-110323107D01*
X78843801Y-110243606D01*
X78854288Y-110155593D01*
X78872330Y-110072572D01*
X78897152Y-109996273D01*
X78929419Y-109925045D01*
X78967861Y-109862477D01*
X79013560Y-109807344D01*
X79065802Y-109761055D01*
X79124578Y-109724025D01*
X79191709Y-109695769D01*
X79263852Y-109678422D01*
X79344849Y-109672395D01*
X79432073Y-109680142D01*
G37*
G36*
X78874438Y-109060505D02*
G01*
X78855997Y-109066550D01*
X78843053Y-109086163D01*
X78834993Y-109123642D01*
X78832184Y-109185301D01*
X78834993Y-109245348D01*
X78843053Y-109283768D01*
X78855997Y-109303246D01*
X78874438Y-109308485D01*
X80102979Y-109308485D01*
X80120687Y-109303246D01*
X80134242Y-109283768D01*
X80142424Y-109245348D01*
X80145233Y-109185301D01*
X80142424Y-109123642D01*
X80134242Y-109086163D01*
X80120687Y-109066550D01*
X80102979Y-109060505D01*
X78874438Y-109060505D01*
G37*
G36*
X80515872Y-109032027D02*
G01*
X80444844Y-109041802D01*
X80408283Y-109065073D01*
X80388196Y-109106653D01*
X80379706Y-109186779D01*
X80387991Y-109265583D01*
X80407550Y-109306336D01*
X80443360Y-109329025D01*
X80513185Y-109338576D01*
X80584213Y-109328801D01*
X80620774Y-109305530D01*
X80640861Y-109263950D01*
X80649351Y-109183824D01*
X80641029Y-109105057D01*
X80621385Y-109064401D01*
X80585662Y-109041618D01*
X80515872Y-109032027D01*
G37*
G36*
X78964685Y-107900266D02*
G01*
X78901549Y-107906311D01*
X78867355Y-107924312D01*
X78846716Y-107960314D01*
X78830963Y-108015256D01*
X78820704Y-108080542D01*
X78816552Y-108149724D01*
X78823292Y-108250585D01*
X78841709Y-108330134D01*
X78873832Y-108399072D01*
X78918157Y-108453318D01*
X78974646Y-108494019D01*
X79047728Y-108523171D01*
X79129791Y-108539092D01*
X79232498Y-108544933D01*
X79949839Y-108544933D01*
X79949839Y-108734344D01*
X79954994Y-108754041D01*
X79971699Y-108770345D01*
X79997367Y-108779888D01*
X80042896Y-108783913D01*
X80086737Y-108780151D01*
X80116168Y-108770345D01*
X80132655Y-108754628D01*
X80137418Y-108732732D01*
X80137418Y-108544933D01*
X80429776Y-108544933D01*
X80447484Y-108539694D01*
X80461894Y-108520216D01*
X80470687Y-108481796D01*
X80473496Y-108421749D01*
X80470687Y-108360090D01*
X80461894Y-108322611D01*
X80447484Y-108302998D01*
X80429776Y-108296953D01*
X80137418Y-108296953D01*
X80137418Y-107949836D01*
X80132655Y-107928745D01*
X80116168Y-107913028D01*
X80086737Y-107903222D01*
X80042896Y-107900266D01*
X79997367Y-107904291D01*
X79971699Y-107913834D01*
X79955006Y-107930050D01*
X79949839Y-107949836D01*
X79949839Y-108296953D01*
X79266081Y-108296953D01*
X79148290Y-108285147D01*
X79074717Y-108255713D01*
X79039833Y-108222409D01*
X79018049Y-108174757D01*
X79009993Y-108107543D01*
X79016099Y-108046018D01*
X79029166Y-107997927D01*
X79042110Y-107961791D01*
X79048339Y-107934790D01*
X79044919Y-107920551D01*
X79031852Y-107909938D01*
X79005840Y-107903222D01*
X78964685Y-107900266D01*
G37*
G36*
X79815523Y-106599204D02*
G01*
X79905753Y-106620202D01*
X79985917Y-106657903D01*
X80050223Y-106711817D01*
X80100436Y-106782891D01*
X80138517Y-106877182D01*
X80160524Y-106985350D01*
X80168681Y-107125162D01*
X80155491Y-107279914D01*
X80122152Y-107421233D01*
X80077700Y-107535416D01*
X80035568Y-107605270D01*
X79997833Y-107630793D01*
X79943733Y-107636032D01*
X79905997Y-107633077D01*
X79877909Y-107623405D01*
X79861545Y-107607554D01*
X79856050Y-107586463D01*
X79876078Y-107531655D01*
X79920530Y-107440040D01*
X79964860Y-107312288D01*
X79979734Y-107236596D01*
X79985010Y-107147730D01*
X79979935Y-107065765D01*
X79966325Y-107003456D01*
X79942823Y-106949445D01*
X79911249Y-106907944D01*
X79870884Y-106876688D01*
X79819535Y-106854614D01*
X79762070Y-106842467D01*
X79692651Y-106838091D01*
X79596175Y-106838091D01*
X79596175Y-107024412D01*
X79589554Y-107178055D01*
X79571018Y-107308527D01*
X79538460Y-107427956D01*
X79495425Y-107521849D01*
X79438062Y-107599497D01*
X79368907Y-107655645D01*
X79287832Y-107690104D01*
X79189389Y-107702259D01*
X79104220Y-107693474D01*
X79031486Y-107668407D01*
X78967279Y-107627580D01*
X78914494Y-107573702D01*
X78873032Y-107507573D01*
X78841709Y-107426472D01*
X78823102Y-107336972D01*
X78816552Y-107233300D01*
X78820414Y-107194209D01*
X78992407Y-107194209D01*
X78999349Y-107272068D01*
X79018509Y-107333213D01*
X79048705Y-107381336D01*
X79089818Y-107417982D01*
X79139488Y-107440346D01*
X79200258Y-107448234D01*
X79253660Y-107442197D01*
X79298688Y-107424994D01*
X79337879Y-107395655D01*
X79372083Y-107352051D01*
X79398230Y-107298103D01*
X79418367Y-107227390D01*
X79429794Y-107148704D01*
X79433998Y-107049935D01*
X79433998Y-106838091D01*
X79174490Y-106838091D01*
X79090842Y-106931649D01*
X79037226Y-107013128D01*
X79003633Y-107100021D01*
X78992407Y-107194209D01*
X78820414Y-107194209D01*
X78828274Y-107114643D01*
X78863325Y-107002650D01*
X78919306Y-106899658D01*
X78996071Y-106805045D01*
X78873217Y-106805045D01*
X78848548Y-106794567D01*
X78836336Y-106760715D01*
X78832184Y-106698250D01*
X78836336Y-106636725D01*
X78848548Y-106603679D01*
X78873217Y-106591589D01*
X79704497Y-106591589D01*
X79815523Y-106599204D01*
G37*
G36*
X78900450Y-105139040D02*
G01*
X78868332Y-105127084D01*
X78847205Y-105141324D01*
X78835603Y-105184982D01*
X78832184Y-105260881D01*
X78834260Y-105332212D01*
X78841099Y-105374392D01*
X78853311Y-105398438D01*
X78870408Y-105412677D01*
X79357672Y-105737227D01*
X78870408Y-106060300D01*
X78853311Y-106074673D01*
X78841099Y-106098719D01*
X78834260Y-106139959D01*
X78832184Y-106207663D01*
X78835603Y-106278995D01*
X78847205Y-106319563D01*
X78868332Y-106331653D01*
X78900450Y-106317280D01*
X79499577Y-105896547D01*
X80076967Y-106294846D01*
X80109085Y-106307608D01*
X80130823Y-106294040D01*
X80142424Y-106250516D01*
X80145233Y-106173005D01*
X80143157Y-106103152D01*
X80136929Y-106061912D01*
X80126060Y-106039344D01*
X80109696Y-106025776D01*
X79652473Y-105717749D01*
X80109696Y-105405155D01*
X80124717Y-105391587D01*
X80136318Y-105371303D01*
X80143157Y-105335301D01*
X80145233Y-105271359D01*
X80142424Y-105200027D01*
X80132166Y-105158653D01*
X80111039Y-105146697D01*
X80076967Y-105161608D01*
X79506416Y-105556952D01*
X78900450Y-105139040D01*
G37*
G36*
X79706002Y-103767541D02*
G01*
X79813918Y-103792749D01*
X79913447Y-103836649D01*
X79997711Y-103898738D01*
X80067390Y-103979829D01*
X80122397Y-104082909D01*
X80156328Y-104202171D01*
X80168681Y-104354129D01*
X80156522Y-104497830D01*
X80121542Y-104623065D01*
X80063991Y-104734647D01*
X79986109Y-104828192D01*
X79890029Y-104902130D01*
X79771420Y-104958227D01*
X79640163Y-104991571D01*
X79486510Y-105003363D01*
X79325515Y-104991811D01*
X79193907Y-104959839D01*
X79076840Y-104904503D01*
X78984713Y-104830476D01*
X78912057Y-104735658D01*
X78858928Y-104619303D01*
X78827750Y-104487593D01*
X78816552Y-104326994D01*
X78829741Y-104145912D01*
X78859295Y-103996399D01*
X78893122Y-103891215D01*
X78917791Y-103842452D01*
X78933545Y-103828885D01*
X78952107Y-103821362D01*
X78975432Y-103817601D01*
X79006329Y-103815989D01*
X79048094Y-103818272D01*
X79074717Y-103825123D01*
X79089127Y-103837885D01*
X79094012Y-103856557D01*
X79079480Y-103910022D01*
X79047117Y-104000160D01*
X79014633Y-104130195D01*
X79004043Y-104208021D01*
X79000223Y-104301470D01*
X79008734Y-104417653D01*
X79031852Y-104507404D01*
X79070822Y-104584346D01*
X79122588Y-104644155D01*
X79186555Y-104688673D01*
X79264127Y-104719248D01*
X79349407Y-104735888D01*
X79449630Y-104741816D01*
X79615715Y-104741816D01*
X79689077Y-104733164D01*
X79758841Y-104713337D01*
X79823711Y-104682110D01*
X79878886Y-104641200D01*
X79925068Y-104589300D01*
X79961563Y-104525404D01*
X79984673Y-104452326D01*
X79992826Y-104364607D01*
X79980602Y-104250519D01*
X79946774Y-104162705D01*
X79892442Y-104094865D01*
X79821085Y-104046752D01*
X79730628Y-104017086D01*
X79615715Y-104008354D01*
X79615715Y-104741816D01*
X79449630Y-104741816D01*
X79449630Y-103855080D01*
X79455216Y-103819743D01*
X79472100Y-103788316D01*
X79500117Y-103767108D01*
X79547693Y-103758897D01*
X79588482Y-103758897D01*
X79706002Y-103767541D01*
G37*
G36*
X80186083Y-101471082D02*
G01*
X80271385Y-101493899D01*
X80349583Y-101531635D01*
X80416709Y-101581887D01*
X80474184Y-101644733D01*
X80522466Y-101720922D01*
X80559185Y-101803599D01*
X80581085Y-101881720D01*
X80601601Y-102018471D01*
X80606364Y-102139371D01*
X80606364Y-102555671D01*
X80600618Y-102592713D01*
X80583161Y-102626331D01*
X80554148Y-102649149D01*
X80505369Y-102657899D01*
X78875903Y-102657899D01*
X78856730Y-102651854D01*
X78843785Y-102630764D01*
X78835603Y-102591001D01*
X78832184Y-102528670D01*
X78835603Y-102466339D01*
X78843785Y-102427248D01*
X78856730Y-102406158D01*
X78875903Y-102399307D01*
X79512156Y-102399307D01*
X79512156Y-102178463D01*
X79512921Y-102166372D01*
X79705596Y-102166372D01*
X79705596Y-102399307D01*
X80412923Y-102399307D01*
X80412923Y-102160462D01*
X80403398Y-102024382D01*
X80387574Y-101956284D01*
X80358335Y-101889242D01*
X80314906Y-101830331D01*
X80250624Y-101779492D01*
X80172618Y-101747005D01*
X80070861Y-101735162D01*
X79993868Y-101742070D01*
X79924316Y-101762163D01*
X79861272Y-101795829D01*
X79808422Y-101841823D01*
X79765837Y-101899749D01*
X79732829Y-101971857D01*
X79713035Y-102054789D01*
X79705596Y-102166372D01*
X79512921Y-102166372D01*
X79523119Y-102005216D01*
X79553066Y-101868152D01*
X79603383Y-101746619D01*
X79668960Y-101648785D01*
X79751459Y-101569982D01*
X79850432Y-101511228D01*
X79961327Y-101475579D01*
X80089302Y-101463136D01*
X80186083Y-101471082D01*
G37*
G36*
X80026653Y-100305450D02*
G01*
X79976095Y-100306927D01*
X79943977Y-100312972D01*
X79926270Y-100324256D01*
X79920163Y-100342929D01*
X79926270Y-100372348D01*
X79938482Y-100411439D01*
X79950205Y-100460202D01*
X79955701Y-100518771D01*
X79941779Y-100592520D01*
X79896106Y-100668419D01*
X79811475Y-100751840D01*
X79682515Y-100847889D01*
X78874438Y-100847889D01*
X78855997Y-100853934D01*
X78843053Y-100873546D01*
X78834993Y-100911025D01*
X78832184Y-100972684D01*
X78834993Y-101032732D01*
X78843053Y-101071151D01*
X78855997Y-101090629D01*
X78874438Y-101095868D01*
X80102979Y-101095868D01*
X80121297Y-101091435D01*
X80134975Y-101073435D01*
X80143157Y-101038911D01*
X80145233Y-100983162D01*
X80143157Y-100928354D01*
X80134975Y-100894637D01*
X80121297Y-100877308D01*
X80102857Y-100871934D01*
X79924071Y-100871934D01*
X80046315Y-100767557D01*
X80120687Y-100675136D01*
X80158178Y-100588759D01*
X80168681Y-100502248D01*
X80166605Y-100458053D01*
X80159033Y-100406200D01*
X80146821Y-100357302D01*
X80133143Y-100326406D01*
X80120198Y-100314450D01*
X80104445Y-100309211D01*
X80076479Y-100306256D01*
X80026653Y-100305450D01*
G37*
G36*
X79655410Y-98825713D02*
G01*
X79783143Y-98856259D01*
X79898528Y-98908858D01*
X79992337Y-98980249D01*
X80067686Y-99072440D01*
X80123496Y-99186854D01*
X80156736Y-99317450D01*
X80168681Y-99477686D01*
X80155374Y-99643588D01*
X80118122Y-99779802D01*
X80056773Y-99899078D01*
X79975851Y-99995408D01*
X79876768Y-100070166D01*
X79757742Y-100124637D01*
X79627559Y-100156433D01*
X79481015Y-100167489D01*
X79329944Y-100156842D01*
X79202090Y-100126920D01*
X79086727Y-100074944D01*
X78992896Y-100003736D01*
X78917514Y-99911441D01*
X78861615Y-99796997D01*
X78828463Y-99666425D01*
X78816552Y-99506299D01*
X78817539Y-99494209D01*
X79006085Y-99494209D01*
X79016516Y-99606639D01*
X79045041Y-99692620D01*
X79091066Y-99764533D01*
X79150188Y-99819699D01*
X79220797Y-99859657D01*
X79305282Y-99887269D01*
X79395963Y-99902345D01*
X79495303Y-99907554D01*
X79598144Y-99901122D01*
X79689354Y-99882702D01*
X79773578Y-99850640D01*
X79843105Y-99806803D01*
X79900703Y-99748822D01*
X79943611Y-99676903D01*
X79969763Y-99592841D01*
X79979148Y-99488164D01*
X79968720Y-99375853D01*
X79940191Y-99289888D01*
X79893977Y-99218209D01*
X79834190Y-99163614D01*
X79763105Y-99124145D01*
X79678485Y-99096716D01*
X79588072Y-99081624D01*
X79489930Y-99076432D01*
X79385859Y-99082678D01*
X79294413Y-99100478D01*
X79210420Y-99131973D01*
X79141395Y-99175704D01*
X79084443Y-99233762D01*
X79041622Y-99306411D01*
X79015417Y-99390855D01*
X79006085Y-99494209D01*
X78817539Y-99494209D01*
X78829998Y-99341654D01*
X78867843Y-99204989D01*
X78929786Y-99084996D01*
X79010725Y-98988578D01*
X79109781Y-98913553D01*
X79228712Y-98858543D01*
X79359032Y-98826141D01*
X79505561Y-98814884D01*
X79655410Y-98825713D01*
G37*
G36*
X78819483Y-98173576D02*
G01*
X78689060Y-98179915D01*
X78598199Y-98196144D01*
X78518897Y-98225809D01*
X78456294Y-98266669D01*
X78405958Y-98321317D01*
X78369344Y-98389987D01*
X78347691Y-98469885D01*
X78339790Y-98571741D01*
X78345286Y-98653684D01*
X78357620Y-98705537D01*
X78373374Y-98730254D01*
X78394012Y-98740061D01*
X78417948Y-98743822D01*
X78448112Y-98744628D01*
X78490732Y-98742344D01*
X78519553Y-98734822D01*
X78535307Y-98722866D01*
X78540069Y-98705537D01*
X78536650Y-98670207D01*
X78533230Y-98609354D01*
X78536878Y-98561958D01*
X78546908Y-98524455D01*
X78564728Y-98492561D01*
X78591482Y-98466692D01*
X78625309Y-98447809D01*
X78671594Y-98433646D01*
X78820826Y-98423033D01*
X80102857Y-98423033D01*
X80120687Y-98416988D01*
X80134242Y-98396704D01*
X80142424Y-98358419D01*
X80145233Y-98298237D01*
X80142424Y-98238190D01*
X80134242Y-98199905D01*
X80120687Y-98179621D01*
X80102857Y-98173576D01*
X78819483Y-98173576D01*
G37*
G36*
X80515872Y-98144963D02*
G01*
X80444844Y-98154738D01*
X80408283Y-98178009D01*
X80388199Y-98219604D01*
X80379706Y-98299849D01*
X80388017Y-98378403D01*
X80407550Y-98418466D01*
X80443288Y-98440658D01*
X80513185Y-98450034D01*
X80584299Y-98440468D01*
X80620774Y-98417794D01*
X80640837Y-98376777D01*
X80649351Y-98296760D01*
X80640969Y-98216796D01*
X80621385Y-98176531D01*
X80585748Y-98154345D01*
X80515872Y-98144963D01*
G37*
G36*
X79706002Y-96569411D02*
G01*
X79813918Y-96594619D01*
X79913447Y-96638519D01*
X79997711Y-96700608D01*
X80067390Y-96781699D01*
X80122397Y-96884780D01*
X80156328Y-97004041D01*
X80168681Y-97155999D01*
X80156522Y-97299700D01*
X80121542Y-97424935D01*
X80063991Y-97536517D01*
X79986109Y-97630062D01*
X79890029Y-97704000D01*
X79771420Y-97760097D01*
X79640163Y-97793441D01*
X79486510Y-97805233D01*
X79325515Y-97793681D01*
X79193907Y-97761709D01*
X79076840Y-97706373D01*
X78984713Y-97632346D01*
X78912057Y-97537528D01*
X78858928Y-97421174D01*
X78827750Y-97289463D01*
X78816552Y-97128864D01*
X78829741Y-96947782D01*
X78859295Y-96798269D01*
X78893122Y-96693086D01*
X78917791Y-96644323D01*
X78933545Y-96630755D01*
X78952107Y-96623232D01*
X78975432Y-96619471D01*
X79006329Y-96617859D01*
X79048094Y-96620143D01*
X79074717Y-96626994D01*
X79089127Y-96639755D01*
X79094012Y-96658428D01*
X79079480Y-96711892D01*
X79047117Y-96802030D01*
X79014633Y-96932065D01*
X79004043Y-97009892D01*
X79000223Y-97103340D01*
X79008734Y-97219523D01*
X79031852Y-97309274D01*
X79070822Y-97386216D01*
X79122588Y-97446025D01*
X79186555Y-97490543D01*
X79264127Y-97521118D01*
X79349407Y-97537759D01*
X79449630Y-97543686D01*
X79615715Y-97543686D01*
X79689077Y-97535034D01*
X79758841Y-97515207D01*
X79823711Y-97483981D01*
X79878886Y-97443070D01*
X79925068Y-97391171D01*
X79961563Y-97327274D01*
X79984673Y-97254196D01*
X79992826Y-97166477D01*
X79980602Y-97052390D01*
X79946774Y-96964575D01*
X79892442Y-96896735D01*
X79821085Y-96848622D01*
X79730628Y-96818956D01*
X79615715Y-96810225D01*
X79615715Y-97543686D01*
X79449630Y-97543686D01*
X79449630Y-96656950D01*
X79455216Y-96621614D01*
X79472100Y-96590186D01*
X79500117Y-96568979D01*
X79547693Y-96560767D01*
X79588482Y-96560767D01*
X79706002Y-96569411D01*
G37*
G36*
X79064825Y-95210177D02*
G01*
X79024647Y-95211655D01*
X78996071Y-95216894D01*
X78975554Y-95226029D01*
X78949420Y-95250075D01*
X78906678Y-95313883D01*
X78861249Y-95415439D01*
X78829009Y-95537817D01*
X78816552Y-95674569D01*
X78827901Y-95814877D01*
X78860027Y-95933026D01*
X78913845Y-96036836D01*
X78987278Y-96121631D01*
X79078433Y-96187382D01*
X79192686Y-96237426D01*
X79319808Y-96266663D01*
X79473688Y-96277189D01*
X79647486Y-96264105D01*
X79784609Y-96228426D01*
X79905385Y-96168909D01*
X79997588Y-96094630D01*
X80069979Y-96002054D01*
X80120687Y-95894741D01*
X80150617Y-95776303D01*
X80160865Y-95645956D01*
X80149752Y-95520488D01*
X80120565Y-95408588D01*
X80078921Y-95317644D01*
X80038621Y-95259747D01*
X80012243Y-95235029D01*
X79989528Y-95223745D01*
X79960097Y-95217700D01*
X79918942Y-95216222D01*
X79869629Y-95220354D01*
X79844082Y-95229790D01*
X79827685Y-95245502D01*
X79822833Y-95262836D01*
X79827783Y-95285114D01*
X79845914Y-95314689D01*
X79897083Y-95389110D01*
X79948129Y-95498054D01*
X79965173Y-95565414D01*
X79971332Y-95649045D01*
X79963109Y-95735507D01*
X79939669Y-95808301D01*
X79901451Y-95870333D01*
X79847013Y-95923354D01*
X79759637Y-95973120D01*
X79642177Y-96006324D01*
X79486144Y-96018731D01*
X79371797Y-96012135D01*
X79278904Y-95994014D01*
X79195257Y-95962360D01*
X79130160Y-95921071D01*
X79077663Y-95867113D01*
X79041133Y-95803126D01*
X79019533Y-95729670D01*
X79011946Y-95643000D01*
X79018431Y-95560661D01*
X79036615Y-95492681D01*
X79090715Y-95380781D01*
X79144204Y-95301121D01*
X79163534Y-95269531D01*
X79168262Y-95250746D01*
X79162766Y-95232745D01*
X79144448Y-95219984D01*
X79111720Y-95212461D01*
X79064825Y-95210177D01*
G37*
G36*
X78964685Y-94178899D02*
G01*
X78901549Y-94184944D01*
X78867355Y-94202944D01*
X78846716Y-94238946D01*
X78830963Y-94293888D01*
X78820704Y-94359174D01*
X78816552Y-94428356D01*
X78823292Y-94529218D01*
X78841709Y-94608766D01*
X78873832Y-94677704D01*
X78918157Y-94731950D01*
X78974646Y-94772651D01*
X79047728Y-94801803D01*
X79129791Y-94817725D01*
X79232498Y-94823565D01*
X79949839Y-94823565D01*
X79949839Y-95012976D01*
X79954994Y-95032673D01*
X79971699Y-95048977D01*
X79997367Y-95058521D01*
X80042896Y-95062545D01*
X80086737Y-95058784D01*
X80116168Y-95048977D01*
X80132655Y-95033260D01*
X80137418Y-95011364D01*
X80137418Y-94823565D01*
X80429776Y-94823565D01*
X80447484Y-94818326D01*
X80461894Y-94798848D01*
X80470687Y-94760429D01*
X80473496Y-94700382D01*
X80470687Y-94638722D01*
X80461894Y-94601243D01*
X80447484Y-94581631D01*
X80429776Y-94575586D01*
X80137418Y-94575586D01*
X80137418Y-94228468D01*
X80132655Y-94207377D01*
X80116168Y-94191660D01*
X80086737Y-94181854D01*
X80042896Y-94178899D01*
X79997367Y-94182923D01*
X79971699Y-94192466D01*
X79955006Y-94208682D01*
X79949839Y-94228468D01*
X79949839Y-94575586D01*
X79266081Y-94575586D01*
X79148290Y-94563780D01*
X79074717Y-94534345D01*
X79039833Y-94501041D01*
X79018049Y-94453389D01*
X79009993Y-94386175D01*
X79016099Y-94324651D01*
X79029166Y-94276559D01*
X79042110Y-94240423D01*
X79048339Y-94213422D01*
X79044919Y-94199183D01*
X79031852Y-94188571D01*
X79005840Y-94181854D01*
X78964685Y-94178899D01*
G37*
D12*
X95411203Y-74020828D02*
X96125489Y-74020828D01*
X96125489Y-74020828D02*
X96196917Y-74735114D01*
X96196917Y-74735114D02*
X96125489Y-74663685D01*
X96125489Y-74663685D02*
X95982632Y-74592257D01*
X95982632Y-74592257D02*
X95625489Y-74592257D01*
X95625489Y-74592257D02*
X95482632Y-74663685D01*
X95482632Y-74663685D02*
X95411203Y-74735114D01*
X95411203Y-74735114D02*
X95339774Y-74877971D01*
X95339774Y-74877971D02*
X95339774Y-75235114D01*
X95339774Y-75235114D02*
X95411203Y-75377971D01*
X95411203Y-75377971D02*
X95482632Y-75449400D01*
X95482632Y-75449400D02*
X95625489Y-75520828D01*
X95625489Y-75520828D02*
X95982632Y-75520828D01*
X95982632Y-75520828D02*
X96125489Y-75449400D01*
X96125489Y-75449400D02*
X96196917Y-75377971D01*
X94911203Y-74020828D02*
X94411203Y-75520828D01*
X94411203Y-75520828D02*
X93911203Y-74020828D01*
X93411204Y-75520828D02*
X93411204Y-74020828D01*
X93411204Y-74020828D02*
X93054061Y-74020828D01*
X93054061Y-74020828D02*
X92839775Y-74092257D01*
X92839775Y-74092257D02*
X92696918Y-74235114D01*
X92696918Y-74235114D02*
X92625489Y-74377971D01*
X92625489Y-74377971D02*
X92554061Y-74663685D01*
X92554061Y-74663685D02*
X92554061Y-74877971D01*
X92554061Y-74877971D02*
X92625489Y-75163685D01*
X92625489Y-75163685D02*
X92696918Y-75306542D01*
X92696918Y-75306542D02*
X92839775Y-75449400D01*
X92839775Y-75449400D02*
X93054061Y-75520828D01*
X93054061Y-75520828D02*
X93411204Y-75520828D01*
X91054061Y-75377971D02*
X91125489Y-75449400D01*
X91125489Y-75449400D02*
X91339775Y-75520828D01*
X91339775Y-75520828D02*
X91482632Y-75520828D01*
X91482632Y-75520828D02*
X91696918Y-75449400D01*
X91696918Y-75449400D02*
X91839775Y-75306542D01*
X91839775Y-75306542D02*
X91911204Y-75163685D01*
X91911204Y-75163685D02*
X91982632Y-74877971D01*
X91982632Y-74877971D02*
X91982632Y-74663685D01*
X91982632Y-74663685D02*
X91911204Y-74377971D01*
X91911204Y-74377971D02*
X91839775Y-74235114D01*
X91839775Y-74235114D02*
X91696918Y-74092257D01*
X91696918Y-74092257D02*
X91482632Y-74020828D01*
X91482632Y-74020828D02*
X91339775Y-74020828D01*
X91339775Y-74020828D02*
X91125489Y-74092257D01*
X91125489Y-74092257D02*
X91054061Y-74163685D01*
X88554061Y-74020828D02*
X89268347Y-74020828D01*
X89268347Y-74020828D02*
X89339775Y-74735114D01*
X89339775Y-74735114D02*
X89268347Y-74663685D01*
X89268347Y-74663685D02*
X89125490Y-74592257D01*
X89125490Y-74592257D02*
X88768347Y-74592257D01*
X88768347Y-74592257D02*
X88625490Y-74663685D01*
X88625490Y-74663685D02*
X88554061Y-74735114D01*
X88554061Y-74735114D02*
X88482632Y-74877971D01*
X88482632Y-74877971D02*
X88482632Y-75235114D01*
X88482632Y-75235114D02*
X88554061Y-75377971D01*
X88554061Y-75377971D02*
X88625490Y-75449400D01*
X88625490Y-75449400D02*
X88768347Y-75520828D01*
X88768347Y-75520828D02*
X89125490Y-75520828D01*
X89125490Y-75520828D02*
X89268347Y-75449400D01*
X89268347Y-75449400D02*
X89339775Y-75377971D01*
X87911204Y-75092257D02*
X87196919Y-75092257D01*
X88054061Y-75520828D02*
X87554061Y-74020828D01*
X87554061Y-74020828D02*
X87054061Y-75520828D01*
D11*
X101748619Y-139119047D02*
X101724809Y-139071428D01*
X101724809Y-139071428D02*
X101724809Y-138999999D01*
X101724809Y-138999999D02*
X101748619Y-138928571D01*
X101748619Y-138928571D02*
X101796238Y-138880952D01*
X101796238Y-138880952D02*
X101843857Y-138857142D01*
X101843857Y-138857142D02*
X101939095Y-138833333D01*
X101939095Y-138833333D02*
X102010523Y-138833333D01*
X102010523Y-138833333D02*
X102105761Y-138857142D01*
X102105761Y-138857142D02*
X102153380Y-138880952D01*
X102153380Y-138880952D02*
X102201000Y-138928571D01*
X102201000Y-138928571D02*
X102224809Y-138999999D01*
X102224809Y-138999999D02*
X102224809Y-139047618D01*
X102224809Y-139047618D02*
X102201000Y-139119047D01*
X102201000Y-139119047D02*
X102177190Y-139142856D01*
X102177190Y-139142856D02*
X102010523Y-139142856D01*
X102010523Y-139142856D02*
X102010523Y-139047618D01*
X102224809Y-139357142D02*
X101724809Y-139357142D01*
X101724809Y-139357142D02*
X102224809Y-139642856D01*
X102224809Y-139642856D02*
X101724809Y-139642856D01*
X102224809Y-139880952D02*
X101724809Y-139880952D01*
X101724809Y-139880952D02*
X101724809Y-140000000D01*
X101724809Y-140000000D02*
X101748619Y-140071428D01*
X101748619Y-140071428D02*
X101796238Y-140119047D01*
X101796238Y-140119047D02*
X101843857Y-140142857D01*
X101843857Y-140142857D02*
X101939095Y-140166666D01*
X101939095Y-140166666D02*
X102010523Y-140166666D01*
X102010523Y-140166666D02*
X102105761Y-140142857D01*
X102105761Y-140142857D02*
X102153380Y-140119047D01*
X102153380Y-140119047D02*
X102201000Y-140071428D01*
X102201000Y-140071428D02*
X102224809Y-140000000D01*
X102224809Y-140000000D02*
X102224809Y-139880952D01*
D10*
X97719819Y-136958238D02*
X96719819Y-136958238D01*
X96719819Y-136958238D02*
X96719819Y-137339190D01*
X96719819Y-137339190D02*
X96767438Y-137434428D01*
X96767438Y-137434428D02*
X96815057Y-137482047D01*
X96815057Y-137482047D02*
X96910295Y-137529666D01*
X96910295Y-137529666D02*
X97053152Y-137529666D01*
X97053152Y-137529666D02*
X97148390Y-137482047D01*
X97148390Y-137482047D02*
X97196009Y-137434428D01*
X97196009Y-137434428D02*
X97243628Y-137339190D01*
X97243628Y-137339190D02*
X97243628Y-136958238D01*
X96719819Y-137863000D02*
X97719819Y-138101095D01*
X97719819Y-138101095D02*
X97005533Y-138291571D01*
X97005533Y-138291571D02*
X97719819Y-138482047D01*
X97719819Y-138482047D02*
X96719819Y-138720143D01*
X97719819Y-139101095D02*
X96719819Y-139101095D01*
X96719819Y-139101095D02*
X97434104Y-139434428D01*
X97434104Y-139434428D02*
X96719819Y-139767761D01*
X96719819Y-139767761D02*
X97719819Y-139767761D01*
D11*
X102624809Y-139604762D02*
X102624809Y-139366667D01*
X102624809Y-139366667D02*
X102862904Y-139342858D01*
X102862904Y-139342858D02*
X102839095Y-139366667D01*
X102839095Y-139366667D02*
X102815285Y-139414286D01*
X102815285Y-139414286D02*
X102815285Y-139533334D01*
X102815285Y-139533334D02*
X102839095Y-139580953D01*
X102839095Y-139580953D02*
X102862904Y-139604762D01*
X102862904Y-139604762D02*
X102910523Y-139628572D01*
X102910523Y-139628572D02*
X103029571Y-139628572D01*
X103029571Y-139628572D02*
X103077190Y-139604762D01*
X103077190Y-139604762D02*
X103101000Y-139580953D01*
X103101000Y-139580953D02*
X103124809Y-139533334D01*
X103124809Y-139533334D02*
X103124809Y-139414286D01*
X103124809Y-139414286D02*
X103101000Y-139366667D01*
X103101000Y-139366667D02*
X103077190Y-139342858D01*
X102624809Y-139771429D02*
X103124809Y-139938095D01*
X103124809Y-139938095D02*
X102624809Y-140104762D01*
D10*
X94187319Y-137482047D02*
X94187319Y-138053475D01*
X95187319Y-137767761D02*
X94187319Y-137767761D01*
X94901604Y-138339190D02*
X94901604Y-138815380D01*
X95187319Y-138243952D02*
X94187319Y-138577285D01*
X94187319Y-138577285D02*
X95187319Y-138910618D01*
X95092080Y-139815380D02*
X95139700Y-139767761D01*
X95139700Y-139767761D02*
X95187319Y-139624904D01*
X95187319Y-139624904D02*
X95187319Y-139529666D01*
X95187319Y-139529666D02*
X95139700Y-139386809D01*
X95139700Y-139386809D02*
X95044461Y-139291571D01*
X95044461Y-139291571D02*
X94949223Y-139243952D01*
X94949223Y-139243952D02*
X94758747Y-139196333D01*
X94758747Y-139196333D02*
X94615890Y-139196333D01*
X94615890Y-139196333D02*
X94425414Y-139243952D01*
X94425414Y-139243952D02*
X94330176Y-139291571D01*
X94330176Y-139291571D02*
X94234938Y-139386809D01*
X94234938Y-139386809D02*
X94187319Y-139529666D01*
X94187319Y-139529666D02*
X94187319Y-139624904D01*
X94187319Y-139624904D02*
X94234938Y-139767761D01*
X94234938Y-139767761D02*
X94282557Y-139815380D01*
X89169938Y-137720143D02*
X89122319Y-137624905D01*
X89122319Y-137624905D02*
X89122319Y-137482048D01*
X89122319Y-137482048D02*
X89169938Y-137339191D01*
X89169938Y-137339191D02*
X89265176Y-137243953D01*
X89265176Y-137243953D02*
X89360414Y-137196334D01*
X89360414Y-137196334D02*
X89550890Y-137148715D01*
X89550890Y-137148715D02*
X89693747Y-137148715D01*
X89693747Y-137148715D02*
X89884223Y-137196334D01*
X89884223Y-137196334D02*
X89979461Y-137243953D01*
X89979461Y-137243953D02*
X90074700Y-137339191D01*
X90074700Y-137339191D02*
X90122319Y-137482048D01*
X90122319Y-137482048D02*
X90122319Y-137577286D01*
X90122319Y-137577286D02*
X90074700Y-137720143D01*
X90074700Y-137720143D02*
X90027080Y-137767762D01*
X90027080Y-137767762D02*
X89693747Y-137767762D01*
X89693747Y-137767762D02*
X89693747Y-137577286D01*
X90122319Y-138196334D02*
X89122319Y-138196334D01*
X89122319Y-138196334D02*
X90122319Y-138767762D01*
X90122319Y-138767762D02*
X89122319Y-138767762D01*
X90122319Y-139243953D02*
X89122319Y-139243953D01*
X89122319Y-139243953D02*
X89122319Y-139482048D01*
X89122319Y-139482048D02*
X89169938Y-139624905D01*
X89169938Y-139624905D02*
X89265176Y-139720143D01*
X89265176Y-139720143D02*
X89360414Y-139767762D01*
X89360414Y-139767762D02*
X89550890Y-139815381D01*
X89550890Y-139815381D02*
X89693747Y-139815381D01*
X89693747Y-139815381D02*
X89884223Y-139767762D01*
X89884223Y-139767762D02*
X89979461Y-139720143D01*
X89979461Y-139720143D02*
X90074700Y-139624905D01*
X90074700Y-139624905D02*
X90122319Y-139482048D01*
X90122319Y-139482048D02*
X90122319Y-139243953D01*
D11*
X105224809Y-138797618D02*
X104724809Y-138797618D01*
X104724809Y-138797618D02*
X104724809Y-138988094D01*
X104724809Y-138988094D02*
X104748619Y-139035713D01*
X104748619Y-139035713D02*
X104772428Y-139059523D01*
X104772428Y-139059523D02*
X104820047Y-139083332D01*
X104820047Y-139083332D02*
X104891476Y-139083332D01*
X104891476Y-139083332D02*
X104939095Y-139059523D01*
X104939095Y-139059523D02*
X104962904Y-139035713D01*
X104962904Y-139035713D02*
X104986714Y-138988094D01*
X104986714Y-138988094D02*
X104986714Y-138797618D01*
X104724809Y-139249999D02*
X105224809Y-139369047D01*
X105224809Y-139369047D02*
X104867666Y-139464285D01*
X104867666Y-139464285D02*
X105224809Y-139559523D01*
X105224809Y-139559523D02*
X104724809Y-139678571D01*
X105224809Y-139869047D02*
X104724809Y-139869047D01*
X104724809Y-139869047D02*
X105081952Y-140035714D01*
X105081952Y-140035714D02*
X104724809Y-140202380D01*
X104724809Y-140202380D02*
X105224809Y-140202380D01*
D10*
X106354819Y-63138095D02*
X107164342Y-63138095D01*
X107164342Y-63138095D02*
X107259580Y-63185714D01*
X107259580Y-63185714D02*
X107307200Y-63233333D01*
X107307200Y-63233333D02*
X107354819Y-63328571D01*
X107354819Y-63328571D02*
X107354819Y-63519047D01*
X107354819Y-63519047D02*
X107307200Y-63614285D01*
X107307200Y-63614285D02*
X107259580Y-63661904D01*
X107259580Y-63661904D02*
X107164342Y-63709523D01*
X107164342Y-63709523D02*
X106354819Y-63709523D01*
X106688152Y-64614285D02*
X107354819Y-64614285D01*
X106307200Y-64376190D02*
X107021485Y-64138095D01*
X107021485Y-64138095D02*
X107021485Y-64757142D01*
X128633333Y-59554819D02*
X128633333Y-60269104D01*
X128633333Y-60269104D02*
X128680952Y-60411961D01*
X128680952Y-60411961D02*
X128776190Y-60507200D01*
X128776190Y-60507200D02*
X128919047Y-60554819D01*
X128919047Y-60554819D02*
X129014285Y-60554819D01*
X128204761Y-59650057D02*
X128157142Y-59602438D01*
X128157142Y-59602438D02*
X128061904Y-59554819D01*
X128061904Y-59554819D02*
X127823809Y-59554819D01*
X127823809Y-59554819D02*
X127728571Y-59602438D01*
X127728571Y-59602438D02*
X127680952Y-59650057D01*
X127680952Y-59650057D02*
X127633333Y-59745295D01*
X127633333Y-59745295D02*
X127633333Y-59840533D01*
X127633333Y-59840533D02*
X127680952Y-59983390D01*
X127680952Y-59983390D02*
X128252380Y-60554819D01*
X128252380Y-60554819D02*
X127633333Y-60554819D01*
X90013333Y-58134819D02*
X90013333Y-58849104D01*
X90013333Y-58849104D02*
X90060952Y-58991961D01*
X90060952Y-58991961D02*
X90156190Y-59087200D01*
X90156190Y-59087200D02*
X90299047Y-59134819D01*
X90299047Y-59134819D02*
X90394285Y-59134819D01*
X89632380Y-58134819D02*
X89013333Y-58134819D01*
X89013333Y-58134819D02*
X89346666Y-58515771D01*
X89346666Y-58515771D02*
X89203809Y-58515771D01*
X89203809Y-58515771D02*
X89108571Y-58563390D01*
X89108571Y-58563390D02*
X89060952Y-58611009D01*
X89060952Y-58611009D02*
X89013333Y-58706247D01*
X89013333Y-58706247D02*
X89013333Y-58944342D01*
X89013333Y-58944342D02*
X89060952Y-59039580D01*
X89060952Y-59039580D02*
X89108571Y-59087200D01*
X89108571Y-59087200D02*
X89203809Y-59134819D01*
X89203809Y-59134819D02*
X89489523Y-59134819D01*
X89489523Y-59134819D02*
X89584761Y-59087200D01*
X89584761Y-59087200D02*
X89632380Y-59039580D01*
X101361904Y-110554819D02*
X101361904Y-111364342D01*
X101361904Y-111364342D02*
X101314285Y-111459580D01*
X101314285Y-111459580D02*
X101266666Y-111507200D01*
X101266666Y-111507200D02*
X101171428Y-111554819D01*
X101171428Y-111554819D02*
X100980952Y-111554819D01*
X100980952Y-111554819D02*
X100885714Y-111507200D01*
X100885714Y-111507200D02*
X100838095Y-111459580D01*
X100838095Y-111459580D02*
X100790476Y-111364342D01*
X100790476Y-111364342D02*
X100790476Y-110554819D01*
X100171428Y-110983390D02*
X100266666Y-110935771D01*
X100266666Y-110935771D02*
X100314285Y-110888152D01*
X100314285Y-110888152D02*
X100361904Y-110792914D01*
X100361904Y-110792914D02*
X100361904Y-110745295D01*
X100361904Y-110745295D02*
X100314285Y-110650057D01*
X100314285Y-110650057D02*
X100266666Y-110602438D01*
X100266666Y-110602438D02*
X100171428Y-110554819D01*
X100171428Y-110554819D02*
X99980952Y-110554819D01*
X99980952Y-110554819D02*
X99885714Y-110602438D01*
X99885714Y-110602438D02*
X99838095Y-110650057D01*
X99838095Y-110650057D02*
X99790476Y-110745295D01*
X99790476Y-110745295D02*
X99790476Y-110792914D01*
X99790476Y-110792914D02*
X99838095Y-110888152D01*
X99838095Y-110888152D02*
X99885714Y-110935771D01*
X99885714Y-110935771D02*
X99980952Y-110983390D01*
X99980952Y-110983390D02*
X100171428Y-110983390D01*
X100171428Y-110983390D02*
X100266666Y-111031009D01*
X100266666Y-111031009D02*
X100314285Y-111078628D01*
X100314285Y-111078628D02*
X100361904Y-111173866D01*
X100361904Y-111173866D02*
X100361904Y-111364342D01*
X100361904Y-111364342D02*
X100314285Y-111459580D01*
X100314285Y-111459580D02*
X100266666Y-111507200D01*
X100266666Y-111507200D02*
X100171428Y-111554819D01*
X100171428Y-111554819D02*
X99980952Y-111554819D01*
X99980952Y-111554819D02*
X99885714Y-111507200D01*
X99885714Y-111507200D02*
X99838095Y-111459580D01*
X99838095Y-111459580D02*
X99790476Y-111364342D01*
X99790476Y-111364342D02*
X99790476Y-111173866D01*
X99790476Y-111173866D02*
X99838095Y-111078628D01*
X99838095Y-111078628D02*
X99885714Y-111031009D01*
X99885714Y-111031009D02*
X99980952Y-110983390D01*
X131608381Y-107530819D02*
X131941714Y-107054628D01*
X132179809Y-107530819D02*
X132179809Y-106530819D01*
X132179809Y-106530819D02*
X131798857Y-106530819D01*
X131798857Y-106530819D02*
X131703619Y-106578438D01*
X131703619Y-106578438D02*
X131656000Y-106626057D01*
X131656000Y-106626057D02*
X131608381Y-106721295D01*
X131608381Y-106721295D02*
X131608381Y-106864152D01*
X131608381Y-106864152D02*
X131656000Y-106959390D01*
X131656000Y-106959390D02*
X131703619Y-107007009D01*
X131703619Y-107007009D02*
X131798857Y-107054628D01*
X131798857Y-107054628D02*
X132179809Y-107054628D01*
X131179809Y-107007009D02*
X130846476Y-107007009D01*
X130703619Y-107530819D02*
X131179809Y-107530819D01*
X131179809Y-107530819D02*
X131179809Y-106530819D01*
X131179809Y-106530819D02*
X130703619Y-106530819D01*
X130322666Y-107483200D02*
X130179809Y-107530819D01*
X130179809Y-107530819D02*
X129941714Y-107530819D01*
X129941714Y-107530819D02*
X129846476Y-107483200D01*
X129846476Y-107483200D02*
X129798857Y-107435580D01*
X129798857Y-107435580D02*
X129751238Y-107340342D01*
X129751238Y-107340342D02*
X129751238Y-107245104D01*
X129751238Y-107245104D02*
X129798857Y-107149866D01*
X129798857Y-107149866D02*
X129846476Y-107102247D01*
X129846476Y-107102247D02*
X129941714Y-107054628D01*
X129941714Y-107054628D02*
X130132190Y-107007009D01*
X130132190Y-107007009D02*
X130227428Y-106959390D01*
X130227428Y-106959390D02*
X130275047Y-106911771D01*
X130275047Y-106911771D02*
X130322666Y-106816533D01*
X130322666Y-106816533D02*
X130322666Y-106721295D01*
X130322666Y-106721295D02*
X130275047Y-106626057D01*
X130275047Y-106626057D02*
X130227428Y-106578438D01*
X130227428Y-106578438D02*
X130132190Y-106530819D01*
X130132190Y-106530819D02*
X129894095Y-106530819D01*
X129894095Y-106530819D02*
X129751238Y-106578438D01*
X129322666Y-107007009D02*
X128989333Y-107007009D01*
X128846476Y-107530819D02*
X129322666Y-107530819D01*
X129322666Y-107530819D02*
X129322666Y-106530819D01*
X129322666Y-106530819D02*
X128846476Y-106530819D01*
X128560761Y-106530819D02*
X127989333Y-106530819D01*
X128275047Y-107530819D02*
X128275047Y-106530819D01*
D12*
X85874930Y-74626649D02*
X84922550Y-74626649D01*
X79364930Y-74636649D02*
X78412550Y-74636649D01*
X78888740Y-75112839D02*
X78888740Y-74160458D01*
D10*
X131514142Y-115659009D02*
X131371285Y-115706628D01*
X131371285Y-115706628D02*
X131323666Y-115754247D01*
X131323666Y-115754247D02*
X131276047Y-115849485D01*
X131276047Y-115849485D02*
X131276047Y-115992342D01*
X131276047Y-115992342D02*
X131323666Y-116087580D01*
X131323666Y-116087580D02*
X131371285Y-116135200D01*
X131371285Y-116135200D02*
X131466523Y-116182819D01*
X131466523Y-116182819D02*
X131847475Y-116182819D01*
X131847475Y-116182819D02*
X131847475Y-115182819D01*
X131847475Y-115182819D02*
X131514142Y-115182819D01*
X131514142Y-115182819D02*
X131418904Y-115230438D01*
X131418904Y-115230438D02*
X131371285Y-115278057D01*
X131371285Y-115278057D02*
X131323666Y-115373295D01*
X131323666Y-115373295D02*
X131323666Y-115468533D01*
X131323666Y-115468533D02*
X131371285Y-115563771D01*
X131371285Y-115563771D02*
X131418904Y-115611390D01*
X131418904Y-115611390D02*
X131514142Y-115659009D01*
X131514142Y-115659009D02*
X131847475Y-115659009D01*
X130656999Y-115182819D02*
X130466523Y-115182819D01*
X130466523Y-115182819D02*
X130371285Y-115230438D01*
X130371285Y-115230438D02*
X130276047Y-115325676D01*
X130276047Y-115325676D02*
X130228428Y-115516152D01*
X130228428Y-115516152D02*
X130228428Y-115849485D01*
X130228428Y-115849485D02*
X130276047Y-116039961D01*
X130276047Y-116039961D02*
X130371285Y-116135200D01*
X130371285Y-116135200D02*
X130466523Y-116182819D01*
X130466523Y-116182819D02*
X130656999Y-116182819D01*
X130656999Y-116182819D02*
X130752237Y-116135200D01*
X130752237Y-116135200D02*
X130847475Y-116039961D01*
X130847475Y-116039961D02*
X130895094Y-115849485D01*
X130895094Y-115849485D02*
X130895094Y-115516152D01*
X130895094Y-115516152D02*
X130847475Y-115325676D01*
X130847475Y-115325676D02*
X130752237Y-115230438D01*
X130752237Y-115230438D02*
X130656999Y-115182819D01*
X129609380Y-115182819D02*
X129418904Y-115182819D01*
X129418904Y-115182819D02*
X129323666Y-115230438D01*
X129323666Y-115230438D02*
X129228428Y-115325676D01*
X129228428Y-115325676D02*
X129180809Y-115516152D01*
X129180809Y-115516152D02*
X129180809Y-115849485D01*
X129180809Y-115849485D02*
X129228428Y-116039961D01*
X129228428Y-116039961D02*
X129323666Y-116135200D01*
X129323666Y-116135200D02*
X129418904Y-116182819D01*
X129418904Y-116182819D02*
X129609380Y-116182819D01*
X129609380Y-116182819D02*
X129704618Y-116135200D01*
X129704618Y-116135200D02*
X129799856Y-116039961D01*
X129799856Y-116039961D02*
X129847475Y-115849485D01*
X129847475Y-115849485D02*
X129847475Y-115516152D01*
X129847475Y-115516152D02*
X129799856Y-115325676D01*
X129799856Y-115325676D02*
X129704618Y-115230438D01*
X129704618Y-115230438D02*
X129609380Y-115182819D01*
X128895094Y-115182819D02*
X128323666Y-115182819D01*
X128609380Y-116182819D02*
X128609380Y-115182819D01*
X103833333Y-145754819D02*
X103833333Y-146469104D01*
X103833333Y-146469104D02*
X103880952Y-146611961D01*
X103880952Y-146611961D02*
X103976190Y-146707200D01*
X103976190Y-146707200D02*
X104119047Y-146754819D01*
X104119047Y-146754819D02*
X104214285Y-146754819D01*
X103452380Y-145754819D02*
X102785714Y-145754819D01*
X102785714Y-145754819D02*
X103214285Y-146754819D01*
D13*
%TO.C,U4*%
X107680000Y-63610000D02*
X107680000Y-64610000D01*
X108430000Y-63610000D02*
X107680000Y-63610000D01*
X107680000Y-81610000D02*
X107680000Y-80610000D01*
X108430000Y-81610000D02*
X107680000Y-81610000D01*
D14*
%TO.C,J1*%
X80830000Y-71720000D02*
X81010000Y-71720000D01*
X80830000Y-71720000D02*
X80830000Y-71120000D01*
X91530000Y-71470000D02*
X91530000Y-65070000D01*
X89850000Y-71470000D02*
X91530000Y-71470000D01*
X87210000Y-71470000D02*
X83650000Y-71470000D01*
X77330000Y-71120000D02*
X80830000Y-71120000D01*
X77330000Y-71120000D02*
X77330000Y-62120000D01*
X92030000Y-65070000D02*
X91530000Y-65070000D01*
X92030000Y-65070000D02*
X92030000Y-62220000D01*
X92030000Y-62220000D02*
X89850000Y-62220000D01*
X87210000Y-62120000D02*
X83650000Y-62120000D01*
X77330000Y-62120000D02*
X81010000Y-62120000D01*
D13*
%TO.C,J2*%
X130035000Y-59000000D02*
X130035000Y-58365000D01*
X129400000Y-59000000D02*
X130035000Y-59000000D01*
%TO.C,J5*%
X82665000Y-87930000D02*
X80965000Y-87930000D01*
X82665000Y-78590000D02*
X80965000Y-78590000D01*
%TO.C,J6*%
X98663400Y-146289000D02*
X95540175Y-146289000D01*
X88198600Y-146289000D02*
X88198600Y-140193000D01*
X98663400Y-140193000D02*
X98663400Y-146289000D01*
X88198600Y-140193000D02*
X98663400Y-140193000D01*
X93861825Y-146289000D02*
X88198600Y-146289000D01*
%TO.C,J3*%
X88535000Y-48962000D02*
X87205000Y-48962000D01*
X88535000Y-50292000D02*
X88535000Y-48962000D01*
X88535000Y-51562000D02*
X88535000Y-59242000D01*
X88535000Y-51562000D02*
X85875000Y-51562000D01*
X88535000Y-59242000D02*
X85875000Y-59242000D01*
X85875000Y-51562000D02*
X85875000Y-59242000D01*
%TO.C,U8*%
D15*
X101610562Y-112546000D02*
X109610562Y-112546000D01*
X109610562Y-120546000D01*
X101610562Y-120546000D01*
X101610562Y-112546000D01*
D16*
X110419941Y-112406323D02*
G75*
G02*
X110192457Y-112406323I-113742J0D01*
G01*
X110192457Y-112406323D02*
G75*
G02*
X110419941Y-112406323I113742J0D01*
G01*
D17*
%TO.C,SW1*%
X132218000Y-102924000D02*
X132218000Y-103353260D01*
X132218000Y-105542740D02*
X132218000Y-105972000D01*
X132218000Y-105972000D02*
X128154000Y-105972000D01*
X128154000Y-102924000D02*
X132218000Y-102924000D01*
X128154000Y-103353260D02*
X128154000Y-102924000D01*
X128154000Y-105972000D02*
X128154000Y-105542740D01*
D12*
%TO.C,U1*%
X83014188Y-74631416D02*
X84454917Y-74631416D01*
X81994918Y-74631416D02*
X79965083Y-74631416D01*
X81289918Y-73916416D02*
G75*
G02*
X81335887Y-75408739I709999J-724999D01*
G01*
X86470083Y-74631416D02*
G75*
G02*
X84454917Y-74631416I-1007583J0D01*
G01*
X84454917Y-74631416D02*
G75*
G02*
X86470083Y-74631416I1007583J0D01*
G01*
D18*
X82154918Y-74641416D02*
G75*
G02*
X81844918Y-74641416I-155000J0D01*
G01*
X81844918Y-74641416D02*
G75*
G02*
X82154918Y-74641416I155000J0D01*
G01*
D12*
X79965083Y-74631416D02*
G75*
G02*
X77949917Y-74631416I-1007583J0D01*
G01*
X77949917Y-74631416D02*
G75*
G02*
X79965083Y-74631416I1007583J0D01*
G01*
D17*
%TO.C,SW2*%
X132114000Y-111631000D02*
X132114000Y-112060260D01*
X132114000Y-114249740D02*
X132114000Y-114679000D01*
X132114000Y-114679000D02*
X128050000Y-114679000D01*
X128050000Y-111631000D02*
X132114000Y-111631000D01*
X128050000Y-112060260D02*
X128050000Y-111631000D01*
X128050000Y-114679000D02*
X128050000Y-114249740D01*
D19*
%TO.C,G\u002A\u002A\u002A*%
G36*
X79989398Y-125684956D02*
G01*
X80037158Y-125685855D01*
X80099788Y-125690393D01*
X80150283Y-125698528D01*
X80187619Y-125710008D01*
X80210771Y-125724576D01*
X80218715Y-125741980D01*
X80214994Y-125747399D01*
X80199713Y-125760263D01*
X80175350Y-125777503D01*
X80144865Y-125796917D01*
X80104466Y-125822109D01*
X80062031Y-125851419D01*
X80028351Y-125879611D01*
X79999971Y-125910047D01*
X79973436Y-125946089D01*
X79945289Y-125991101D01*
X79930922Y-126014646D01*
X79895427Y-126066539D01*
X79862403Y-126104623D01*
X79830446Y-126130364D01*
X79798155Y-126145233D01*
X79788610Y-126147351D01*
X79761634Y-126151141D01*
X79723997Y-126154942D01*
X79679307Y-126158409D01*
X79631171Y-126161197D01*
X79584446Y-126163874D01*
X79527726Y-126168673D01*
X79484105Y-126174458D01*
X79455245Y-126181043D01*
X79443059Y-126184652D01*
X79409878Y-126191620D01*
X79380743Y-126194387D01*
X79343566Y-126192238D01*
X79286692Y-126182691D01*
X79228425Y-126166867D01*
X79173220Y-126146264D01*
X79125535Y-126122377D01*
X79089825Y-126096704D01*
X79072127Y-126077780D01*
X79057279Y-126048514D01*
X79057916Y-126017400D01*
X79073654Y-125981705D01*
X79085771Y-125963079D01*
X79115241Y-125929062D01*
X79151947Y-125900799D01*
X79197712Y-125877453D01*
X79254361Y-125858188D01*
X79323720Y-125842166D01*
X79407614Y-125828551D01*
X79437131Y-125823978D01*
X79476530Y-125816234D01*
X79519816Y-125805739D01*
X79569860Y-125791728D01*
X79629533Y-125773433D01*
X79701706Y-125750090D01*
X79899777Y-125684908D01*
X79989398Y-125684956D01*
G37*
G36*
X82183881Y-125515751D02*
G01*
X82247531Y-125530340D01*
X82319909Y-125555917D01*
X82399551Y-125591946D01*
X82484995Y-125637892D01*
X82532575Y-125665363D01*
X82474496Y-125734712D01*
X82441677Y-125774979D01*
X82392834Y-125841151D01*
X82354046Y-125904250D01*
X82323177Y-125968398D01*
X82298090Y-126037715D01*
X82276649Y-126116322D01*
X82271034Y-126142286D01*
X82264260Y-126185651D01*
X82261213Y-126224597D01*
X82262120Y-126255319D01*
X82267209Y-126274013D01*
X82269592Y-126276970D01*
X82283451Y-126289390D01*
X82303318Y-126304076D01*
X82318450Y-126313871D01*
X82343881Y-126329637D01*
X82375557Y-126348866D01*
X82410578Y-126369843D01*
X82446047Y-126390853D01*
X82479068Y-126410180D01*
X82506741Y-126426108D01*
X82526171Y-126436923D01*
X82534459Y-126440909D01*
X82538660Y-126442677D01*
X82553687Y-126453693D01*
X82576145Y-126472708D01*
X82603455Y-126497288D01*
X82633041Y-126525000D01*
X82662323Y-126553409D01*
X82688723Y-126580083D01*
X82709665Y-126602588D01*
X82722570Y-126618489D01*
X82726806Y-126624369D01*
X82740988Y-126639993D01*
X82751731Y-126646288D01*
X82756578Y-126647814D01*
X82762002Y-126658928D01*
X82763397Y-126665260D01*
X82774329Y-126676242D01*
X82780064Y-126679546D01*
X82786655Y-126690509D01*
X82788829Y-126697646D01*
X82801624Y-126715454D01*
X82823079Y-126737575D01*
X82849952Y-126761053D01*
X82879000Y-126782930D01*
X82906979Y-126800247D01*
X82908119Y-126800852D01*
X82956300Y-126823356D01*
X83017244Y-126846522D01*
X83091666Y-126870569D01*
X83180282Y-126895712D01*
X83283808Y-126922167D01*
X83402960Y-126950151D01*
X83404682Y-126950541D01*
X83521802Y-126978118D01*
X83624003Y-127004414D01*
X83712689Y-127029860D01*
X83789267Y-127054882D01*
X83855142Y-127079912D01*
X83911720Y-127105376D01*
X83916847Y-127107904D01*
X83961408Y-127129991D01*
X83993375Y-127146170D01*
X84014757Y-127157560D01*
X84027568Y-127165277D01*
X84033819Y-127170441D01*
X84035522Y-127174168D01*
X84040328Y-127182021D01*
X84053792Y-127198239D01*
X84072850Y-127218959D01*
X84085631Y-127232959D01*
X84101643Y-127254034D01*
X84114053Y-127277002D01*
X84123454Y-127304287D01*
X84130438Y-127338312D01*
X84135599Y-127381500D01*
X84139529Y-127436276D01*
X84142820Y-127505063D01*
X84149621Y-127669411D01*
X84186196Y-127768020D01*
X84199993Y-127805152D01*
X84218099Y-127853722D01*
X84235265Y-127899621D01*
X84249111Y-127936477D01*
X84249804Y-127938319D01*
X84277955Y-128017855D01*
X84301053Y-128092803D01*
X84318457Y-128160667D01*
X84329525Y-128218955D01*
X84333618Y-128265173D01*
X84328664Y-128325302D01*
X84309425Y-128387430D01*
X84276135Y-128441301D01*
X84229252Y-128486205D01*
X84169233Y-128521426D01*
X84168469Y-128521773D01*
X84142953Y-128534323D01*
X84124792Y-128545023D01*
X84117874Y-128551590D01*
X84117921Y-128552033D01*
X84122900Y-128563020D01*
X84134474Y-128583253D01*
X84150360Y-128608714D01*
X84154337Y-128614907D01*
X84183200Y-128662624D01*
X84210151Y-128712847D01*
X84236394Y-128768257D01*
X84263136Y-128831533D01*
X84291583Y-128905359D01*
X84322941Y-128992414D01*
X84327259Y-129004550D01*
X84342170Y-129044701D01*
X84357217Y-129083070D01*
X84369718Y-129112757D01*
X84390518Y-129159143D01*
X84482402Y-129162061D01*
X84489653Y-129162297D01*
X84529423Y-129164080D01*
X84558421Y-129166970D01*
X84581567Y-129171979D01*
X84603782Y-129180119D01*
X84629985Y-129192400D01*
X84661165Y-129209639D01*
X84693585Y-129230974D01*
X84718150Y-129250704D01*
X84750614Y-129281587D01*
X84750614Y-129685663D01*
X84750613Y-129704426D01*
X84750561Y-129794240D01*
X84750389Y-129869480D01*
X84750044Y-129931713D01*
X84749471Y-129982505D01*
X84748616Y-130023419D01*
X84747424Y-130056023D01*
X84745841Y-130081880D01*
X84743813Y-130102558D01*
X84741285Y-130119621D01*
X84738203Y-130134635D01*
X84734512Y-130149165D01*
X84727354Y-130174347D01*
X84710400Y-130228990D01*
X84688967Y-130293522D01*
X84664197Y-130364548D01*
X84637228Y-130438677D01*
X84635531Y-130443289D01*
X84622390Y-130481617D01*
X84610595Y-130520033D01*
X84602520Y-130550861D01*
X84599050Y-130567468D01*
X84596594Y-130587542D01*
X84598144Y-130606255D01*
X84604373Y-130629155D01*
X84615954Y-130661796D01*
X84627898Y-130697095D01*
X84635236Y-130728387D01*
X84638767Y-130761757D01*
X84639680Y-130804352D01*
X84639589Y-130822664D01*
X84638292Y-130856944D01*
X84634608Y-130883074D01*
X84627469Y-130906862D01*
X84615805Y-130934119D01*
X84601828Y-130960734D01*
X84584228Y-130987656D01*
X84568555Y-131005491D01*
X84565036Y-131008530D01*
X84550907Y-131022707D01*
X84545179Y-131031996D01*
X84540925Y-131037055D01*
X84524052Y-131046160D01*
X84497862Y-131056731D01*
X84466153Y-131067406D01*
X84432724Y-131076821D01*
X84401375Y-131083613D01*
X84378709Y-131088281D01*
X84358396Y-131094258D01*
X84349634Y-131099360D01*
X84349556Y-131099582D01*
X84342206Y-131112404D01*
X84327114Y-131134241D01*
X84306910Y-131161537D01*
X84284222Y-131190738D01*
X84261679Y-131218290D01*
X84244441Y-131237121D01*
X84193169Y-131278700D01*
X84131850Y-131309731D01*
X84059233Y-131330753D01*
X83974070Y-131342305D01*
X83969006Y-131342699D01*
X83914911Y-131348457D01*
X83876755Y-131355873D01*
X83854149Y-131365052D01*
X83846700Y-131376098D01*
X83846050Y-131381153D01*
X83840130Y-131387787D01*
X83838201Y-131389097D01*
X83828173Y-131400902D01*
X83811722Y-131423003D01*
X83790610Y-131452990D01*
X83766599Y-131488451D01*
X83764640Y-131491385D01*
X83733936Y-131535271D01*
X83699848Y-131580846D01*
X83666392Y-131622891D01*
X83637582Y-131656187D01*
X83616109Y-131679829D01*
X83595085Y-131704027D01*
X83580796Y-131721742D01*
X83575526Y-131730249D01*
X83572501Y-131735945D01*
X83559925Y-131745350D01*
X83556367Y-131747450D01*
X83539475Y-131759260D01*
X83515368Y-131777529D01*
X83488022Y-131799276D01*
X83480879Y-131805046D01*
X83395847Y-131867257D01*
X83312379Y-131916549D01*
X83231975Y-131952134D01*
X83156133Y-131973229D01*
X83150824Y-131974148D01*
X83141646Y-131974409D01*
X83098241Y-131975645D01*
X83045166Y-131962888D01*
X82990207Y-131935373D01*
X82931971Y-131892602D01*
X82913737Y-131877454D01*
X82889770Y-131858011D01*
X82872615Y-131844688D01*
X82865129Y-131839745D01*
X82864237Y-131839461D01*
X82854686Y-131832162D01*
X82839696Y-131818082D01*
X82827219Y-131806854D01*
X82814131Y-131800581D01*
X82795982Y-131799123D01*
X82767159Y-131801171D01*
X82753470Y-131802620D01*
X82733337Y-131805777D01*
X82712849Y-131810818D01*
X82689622Y-131818673D01*
X82661276Y-131830267D01*
X82625427Y-131846530D01*
X82579694Y-131868389D01*
X82521694Y-131896772D01*
X82487510Y-131913305D01*
X82428923Y-131939654D01*
X82379499Y-131958489D01*
X82336172Y-131970764D01*
X82295877Y-131977430D01*
X82255546Y-131979440D01*
X82250870Y-131979436D01*
X82223988Y-131978586D01*
X82206653Y-131974504D01*
X82192801Y-131964672D01*
X82176364Y-131946571D01*
X82165248Y-131934379D01*
X82149081Y-131919507D01*
X82138746Y-131913701D01*
X82135646Y-131913195D01*
X82129262Y-131904528D01*
X82129048Y-131903382D01*
X82121903Y-131891441D01*
X82106668Y-131871975D01*
X82086121Y-131848585D01*
X82061717Y-131821398D01*
X82031697Y-131786574D01*
X82006001Y-131755429D01*
X82004356Y-131753378D01*
X81984942Y-131730905D01*
X81968612Y-131714880D01*
X81958751Y-131708655D01*
X81954642Y-131707583D01*
X81948479Y-131697356D01*
X81947292Y-131694628D01*
X81937048Y-131681258D01*
X81917951Y-131659429D01*
X81892004Y-131631190D01*
X81861210Y-131598594D01*
X81827571Y-131563691D01*
X81793092Y-131528531D01*
X81759775Y-131495165D01*
X81729624Y-131465644D01*
X81704641Y-131442018D01*
X81686831Y-131426339D01*
X81678195Y-131420657D01*
X81675467Y-131420303D01*
X81669087Y-131412981D01*
X81668292Y-131410454D01*
X81660238Y-131396540D01*
X81645357Y-131374496D01*
X81625946Y-131347793D01*
X81610496Y-131326110D01*
X81585030Y-131287478D01*
X81558398Y-131244444D01*
X81534348Y-131202932D01*
X81514000Y-131165240D01*
X81479202Y-131092778D01*
X81455424Y-131027793D01*
X81442418Y-130967316D01*
X81439936Y-130908377D01*
X81447727Y-130848006D01*
X81465544Y-130783232D01*
X81493138Y-130711087D01*
X81506438Y-130677894D01*
X81516510Y-130644677D01*
X81519814Y-130614935D01*
X81516897Y-130582547D01*
X81508305Y-130541395D01*
X81503495Y-130517408D01*
X81496748Y-130451752D01*
X81497295Y-130383404D01*
X81505255Y-130320972D01*
X81510082Y-130301935D01*
X81520958Y-130267044D01*
X81535176Y-130226511D01*
X81550907Y-130185758D01*
X81554810Y-130176065D01*
X81573112Y-130126213D01*
X81583358Y-130087404D01*
X81585815Y-130056984D01*
X81580749Y-130032297D01*
X81568424Y-130010688D01*
X81567565Y-130009567D01*
X81552331Y-129991955D01*
X81531541Y-129970429D01*
X81508561Y-129948163D01*
X81486759Y-129928329D01*
X81469503Y-129914102D01*
X81460159Y-129908654D01*
X81459252Y-129908556D01*
X81448371Y-129902003D01*
X81436414Y-129890248D01*
X81430783Y-129880409D01*
X81429090Y-129876344D01*
X81420132Y-129861794D01*
X81406050Y-129841499D01*
X81396026Y-129826403D01*
X81374620Y-129780862D01*
X81360017Y-129725086D01*
X81351428Y-129656402D01*
X81350829Y-129648790D01*
X81347665Y-129617373D01*
X81343765Y-129598280D01*
X81338100Y-129588061D01*
X81329643Y-129583264D01*
X81317493Y-129581758D01*
X81291784Y-129581176D01*
X81257234Y-129581776D01*
X81217853Y-129583549D01*
X81178135Y-129584971D01*
X81061337Y-129579443D01*
X80944482Y-129560226D01*
X80830779Y-129528159D01*
X80723437Y-129484080D01*
X80625664Y-129428828D01*
X80602989Y-129414380D01*
X80584190Y-129403383D01*
X80574813Y-129399175D01*
X80572377Y-129398340D01*
X80559954Y-129389818D01*
X80542568Y-129375062D01*
X80512899Y-129352805D01*
X80471896Y-129328598D01*
X80424518Y-129304823D01*
X80375565Y-129283715D01*
X80329833Y-129267508D01*
X80292121Y-129258436D01*
X80252757Y-129254033D01*
X80177114Y-129254444D01*
X80100454Y-129267340D01*
X80018630Y-129293249D01*
X80013516Y-129295191D01*
X79927618Y-129327413D01*
X79854919Y-129353728D01*
X79793590Y-129374616D01*
X79741797Y-129390556D01*
X79697709Y-129402027D01*
X79659494Y-129409510D01*
X79625321Y-129413482D01*
X79593356Y-129414425D01*
X79561770Y-129412817D01*
X79519721Y-129407471D01*
X79470597Y-129396235D01*
X79419849Y-129378731D01*
X79365380Y-129353991D01*
X79305092Y-129321045D01*
X79236887Y-129278926D01*
X79158670Y-129226665D01*
X79130779Y-129207705D01*
X79071850Y-129169456D01*
X79022507Y-129140542D01*
X78980766Y-129119940D01*
X78944642Y-129106624D01*
X78912148Y-129099573D01*
X78884506Y-129095524D01*
X78754154Y-129069049D01*
X78623409Y-129031018D01*
X78496222Y-128982888D01*
X78376540Y-128926115D01*
X78268312Y-128862154D01*
X78238571Y-128842480D01*
X78207073Y-128822181D01*
X78183085Y-128808188D01*
X78163015Y-128798916D01*
X78143274Y-128792778D01*
X78120268Y-128788187D01*
X78090407Y-128783557D01*
X78047658Y-128776318D01*
X77990725Y-128763717D01*
X77944149Y-128749612D01*
X77910969Y-128734828D01*
X77898368Y-128726687D01*
X77865939Y-128700524D01*
X77831938Y-128667427D01*
X77800114Y-128631499D01*
X77774219Y-128596841D01*
X77758003Y-128567553D01*
X77757204Y-128564587D01*
X77755003Y-128545957D01*
X77753060Y-128514535D01*
X77751489Y-128473031D01*
X77750401Y-128424152D01*
X77750157Y-128397755D01*
X78070386Y-128397755D01*
X78073445Y-128421673D01*
X78080758Y-128431944D01*
X78094007Y-128434820D01*
X78118373Y-128438360D01*
X78148552Y-128441791D01*
X78191229Y-128447205D01*
X78237126Y-128456932D01*
X78280422Y-128471616D01*
X78324791Y-128492800D01*
X78373903Y-128522031D01*
X78431430Y-128560854D01*
X78460055Y-128580103D01*
X78513197Y-128612810D01*
X78570414Y-128645033D01*
X78627369Y-128674469D01*
X78679725Y-128698815D01*
X78723148Y-128715769D01*
X78740086Y-128720743D01*
X78776739Y-128729435D01*
X78819713Y-128737896D01*
X78862844Y-128744842D01*
X78902447Y-128750665D01*
X78962378Y-128761138D01*
X79015643Y-128773378D01*
X79065058Y-128788563D01*
X79113437Y-128807870D01*
X79163593Y-128832476D01*
X79218341Y-128863560D01*
X79280496Y-128902299D01*
X79352872Y-128949869D01*
X79371323Y-128962119D01*
X79416802Y-128991690D01*
X79458557Y-129018000D01*
X79494127Y-129039546D01*
X79521052Y-129054823D01*
X79536871Y-129062328D01*
X79562689Y-129068425D01*
X79605152Y-129070030D01*
X79655538Y-129062923D01*
X79715653Y-129046808D01*
X79787302Y-129021390D01*
X79872111Y-128989008D01*
X79945085Y-128962326D01*
X80007214Y-128941386D01*
X80060626Y-128925789D01*
X80107453Y-128915137D01*
X80149823Y-128909028D01*
X80189867Y-128907066D01*
X80229715Y-128908850D01*
X80271496Y-128913981D01*
X80317341Y-128922061D01*
X80384251Y-128937172D01*
X80489141Y-128970343D01*
X80592025Y-129015314D01*
X80695497Y-129073282D01*
X80802151Y-129145441D01*
X80828925Y-129163473D01*
X80868693Y-129186766D01*
X80908473Y-129206959D01*
X80941771Y-129220556D01*
X80952262Y-129222452D01*
X80978295Y-129224982D01*
X81016225Y-129227524D01*
X81063515Y-129229936D01*
X81117633Y-129232074D01*
X81176043Y-129233795D01*
X81385587Y-129238936D01*
X81454366Y-129273860D01*
X81471023Y-129282217D01*
X81499231Y-129295863D01*
X81520079Y-129305275D01*
X81529954Y-129308784D01*
X81531116Y-129308983D01*
X81542648Y-129315807D01*
X81558929Y-129329327D01*
X81562018Y-129332125D01*
X81578136Y-129344743D01*
X81588644Y-129349871D01*
X81590421Y-129350306D01*
X81601889Y-129358736D01*
X81616935Y-129374523D01*
X81620739Y-129378831D01*
X81636872Y-129393325D01*
X81649274Y-129399175D01*
X81654305Y-129400187D01*
X81661143Y-129409447D01*
X81664505Y-129419526D01*
X81675241Y-129435938D01*
X81688490Y-129450470D01*
X81699166Y-129456791D01*
X81701328Y-129457782D01*
X81710315Y-129468837D01*
X81721052Y-129488188D01*
X81736038Y-129519490D01*
X81706006Y-129583635D01*
X81675974Y-129647780D01*
X81745807Y-129712518D01*
X81766941Y-129732736D01*
X81822904Y-129795109D01*
X81865705Y-129859564D01*
X81897609Y-129929956D01*
X81920884Y-130010135D01*
X81922779Y-130018791D01*
X81928192Y-130052970D01*
X81929273Y-130086532D01*
X81925556Y-130122603D01*
X81916570Y-130164312D01*
X81901850Y-130214785D01*
X81880925Y-130277150D01*
X81873833Y-130297547D01*
X81860034Y-130338243D01*
X81850773Y-130368555D01*
X81845326Y-130392093D01*
X81842967Y-130412469D01*
X81842974Y-130433293D01*
X81844622Y-130458177D01*
X81848002Y-130494413D01*
X81852584Y-130533990D01*
X81857179Y-130566047D01*
X81858891Y-130577919D01*
X81859349Y-130645301D01*
X81845363Y-130720511D01*
X81816933Y-130803542D01*
X81807803Y-130826949D01*
X81795606Y-130862515D01*
X81787238Y-130892558D01*
X81784131Y-130912333D01*
X81787765Y-130932512D01*
X81798717Y-130964408D01*
X81815464Y-131003690D01*
X81836462Y-131046995D01*
X81860169Y-131090964D01*
X81885042Y-131132233D01*
X81894305Y-131144808D01*
X81913679Y-131167974D01*
X81939810Y-131197408D01*
X81970723Y-131231060D01*
X82004443Y-131266877D01*
X82038992Y-131302810D01*
X82072396Y-131336808D01*
X82102677Y-131366821D01*
X82127862Y-131390798D01*
X82145973Y-131406687D01*
X82155034Y-131412440D01*
X82157982Y-131413464D01*
X82162132Y-131423720D01*
X82163336Y-131427974D01*
X82173587Y-131442500D01*
X82190893Y-131459567D01*
X82199491Y-131467169D01*
X82213942Y-131481514D01*
X82219654Y-131489730D01*
X82219656Y-131489849D01*
X82225174Y-131500827D01*
X82239178Y-131519588D01*
X82258558Y-131542686D01*
X82280205Y-131566670D01*
X82301007Y-131588092D01*
X82317855Y-131603505D01*
X82327639Y-131609460D01*
X82330343Y-131609026D01*
X82346710Y-131603234D01*
X82373595Y-131591746D01*
X82407966Y-131575895D01*
X82446791Y-131557016D01*
X82451306Y-131554771D01*
X82514400Y-131524564D01*
X82567769Y-131501936D01*
X82615312Y-131485739D01*
X82660932Y-131474825D01*
X82708528Y-131468046D01*
X82762002Y-131464254D01*
X82795314Y-131462932D01*
X82830214Y-131462656D01*
X82856561Y-131464519D01*
X82878880Y-131468908D01*
X82901698Y-131476211D01*
X82928624Y-131486032D01*
X82964863Y-131499741D01*
X82989323Y-131509915D01*
X83004436Y-131517598D01*
X83012633Y-131523832D01*
X83016154Y-131527135D01*
X83031129Y-131539961D01*
X83053943Y-131558812D01*
X83081248Y-131580904D01*
X83141646Y-131629301D01*
X83176737Y-131610685D01*
X83232437Y-131576739D01*
X83303465Y-131521437D01*
X83371043Y-131455962D01*
X83431743Y-131383710D01*
X83482142Y-131308074D01*
X83490370Y-131294230D01*
X83511453Y-131260601D01*
X83532030Y-131229687D01*
X83543485Y-131212601D01*
X83554738Y-131194108D01*
X83559091Y-131184413D01*
X83562720Y-131178193D01*
X83575526Y-131167824D01*
X83585674Y-131159273D01*
X83591960Y-131147253D01*
X83594867Y-131139737D01*
X83607449Y-131128833D01*
X83607734Y-131128682D01*
X83622193Y-131119494D01*
X83644706Y-131103645D01*
X83670523Y-131084472D01*
X83711712Y-131057361D01*
X83772169Y-131030108D01*
X83842800Y-131011059D01*
X83926048Y-130999400D01*
X83945981Y-130997551D01*
X83979683Y-130993954D01*
X84001624Y-130990285D01*
X84014992Y-130985619D01*
X84022973Y-130979033D01*
X84028752Y-130969601D01*
X84038908Y-130953395D01*
X84050067Y-130941585D01*
X84054155Y-130937986D01*
X84060352Y-130923096D01*
X84061003Y-130917832D01*
X84066641Y-130911178D01*
X84068655Y-130910356D01*
X84080759Y-130901338D01*
X84100297Y-130884484D01*
X84124153Y-130862435D01*
X84126984Y-130859771D01*
X84159176Y-130832258D01*
X84194367Y-130806026D01*
X84225432Y-130786424D01*
X84275487Y-130759156D01*
X84271307Y-130718069D01*
X84268335Y-130693150D01*
X84263118Y-130656102D01*
X84257284Y-130619501D01*
X84253676Y-130587196D01*
X84255907Y-130522328D01*
X84269528Y-130448384D01*
X84294701Y-130364601D01*
X84331589Y-130270220D01*
X84348849Y-130229490D01*
X84371557Y-130173420D01*
X84389629Y-130124013D01*
X84404097Y-130077433D01*
X84415993Y-130029842D01*
X84426350Y-129977403D01*
X84436199Y-129916277D01*
X84446572Y-129842628D01*
X84451158Y-129807384D01*
X84458839Y-129740633D01*
X84464631Y-129679109D01*
X84468446Y-129624649D01*
X84470199Y-129579094D01*
X84469800Y-129544280D01*
X84467163Y-129522047D01*
X84462200Y-129514231D01*
X84461763Y-129514262D01*
X84449609Y-129518962D01*
X84426834Y-129530525D01*
X84396533Y-129547301D01*
X84361803Y-129567644D01*
X84358191Y-129569812D01*
X84324331Y-129589788D01*
X84295755Y-129606069D01*
X84275375Y-129617030D01*
X84266105Y-129621045D01*
X84260361Y-129616790D01*
X84248047Y-129601884D01*
X84232918Y-129579958D01*
X84220526Y-129561831D01*
X84207223Y-129545261D01*
X84199192Y-129538871D01*
X84197166Y-129538532D01*
X84191831Y-129530115D01*
X84190638Y-129525949D01*
X84182883Y-129509328D01*
X84169504Y-129484181D01*
X84152370Y-129454104D01*
X84136737Y-129426557D01*
X84105363Y-129365062D01*
X84074821Y-129296034D01*
X84043880Y-129216588D01*
X84011306Y-129123843D01*
X84010415Y-129121201D01*
X83987892Y-129057276D01*
X83964508Y-128995768D01*
X83941128Y-128938558D01*
X83918618Y-128887530D01*
X83897841Y-128844564D01*
X83879665Y-128811544D01*
X83864953Y-128790352D01*
X83854571Y-128782870D01*
X83851960Y-128782322D01*
X83846700Y-128773245D01*
X83844807Y-128765679D01*
X83835586Y-128750647D01*
X83832137Y-128745606D01*
X83821777Y-128726379D01*
X83808303Y-128698188D01*
X83793739Y-128665172D01*
X83788320Y-128652242D01*
X83775019Y-128617447D01*
X83767152Y-128588506D01*
X83763216Y-128558673D01*
X83761712Y-128521202D01*
X83762907Y-128475101D01*
X83770985Y-128428744D01*
X83787938Y-128387621D01*
X83815478Y-128346165D01*
X83822092Y-128337211D01*
X83833833Y-128319029D01*
X83838483Y-128308091D01*
X83840729Y-128302961D01*
X83852863Y-128294971D01*
X83858364Y-128292745D01*
X83877941Y-128283210D01*
X83901499Y-128270397D01*
X83910382Y-128265482D01*
X83937907Y-128251724D01*
X83961075Y-128241985D01*
X83964921Y-128240567D01*
X83981664Y-128229706D01*
X83986396Y-128213011D01*
X83984429Y-128203168D01*
X83977308Y-128179166D01*
X83965736Y-128144049D01*
X83950498Y-128100123D01*
X83932379Y-128049694D01*
X83912166Y-127995069D01*
X83900183Y-127963065D01*
X83874103Y-127892468D01*
X83853196Y-127833680D01*
X83836845Y-127784217D01*
X83824428Y-127741594D01*
X83815327Y-127703327D01*
X83808921Y-127666932D01*
X83804591Y-127629925D01*
X83801717Y-127589820D01*
X83799679Y-127544135D01*
X83795038Y-127418859D01*
X83752147Y-127398568D01*
X83735532Y-127391294D01*
X83694403Y-127376234D01*
X83640113Y-127359373D01*
X83571897Y-127340494D01*
X83488992Y-127319380D01*
X83390634Y-127295813D01*
X83340710Y-127284017D01*
X83211148Y-127252037D01*
X83096802Y-127221569D01*
X82996852Y-127192333D01*
X82910481Y-127164051D01*
X82836868Y-127136442D01*
X82775195Y-127109228D01*
X82724643Y-127082128D01*
X82684393Y-127054864D01*
X82683622Y-127054265D01*
X82587986Y-126970784D01*
X82502754Y-126876432D01*
X82473280Y-126840451D01*
X82446783Y-126810180D01*
X82423843Y-126787133D01*
X82401248Y-126768110D01*
X82375784Y-126749909D01*
X82348143Y-126731441D01*
X82305937Y-126703797D01*
X82264686Y-126677356D01*
X82226933Y-126653704D01*
X82195220Y-126634425D01*
X82172087Y-126621107D01*
X82160077Y-126615335D01*
X82152438Y-126612441D01*
X82145697Y-126605790D01*
X82142170Y-126601030D01*
X82128195Y-126588856D01*
X82107185Y-126572630D01*
X82083031Y-126555145D01*
X82059622Y-126539196D01*
X82040845Y-126527577D01*
X82030591Y-126523083D01*
X82026840Y-126521693D01*
X82022436Y-126510757D01*
X82021004Y-126505009D01*
X82010110Y-126498431D01*
X82004452Y-126497601D01*
X81997784Y-126491039D01*
X81994701Y-126483107D01*
X81984481Y-126465003D01*
X81969586Y-126441746D01*
X81946551Y-126398282D01*
X81927386Y-126336908D01*
X81923705Y-126318867D01*
X81918193Y-126278380D01*
X81916753Y-126236025D01*
X81919614Y-126189058D01*
X81927009Y-126134737D01*
X81939168Y-126070318D01*
X81956321Y-125993061D01*
X81956913Y-125990524D01*
X81964879Y-125955535D01*
X81969175Y-125933412D01*
X81970024Y-125921231D01*
X81967650Y-125916067D01*
X81962274Y-125914995D01*
X81953074Y-125917574D01*
X81931504Y-125928022D01*
X81902223Y-125944661D01*
X81868423Y-125965508D01*
X81833293Y-125988578D01*
X81800023Y-126011887D01*
X81771805Y-126033452D01*
X81757013Y-126045714D01*
X81693268Y-126102971D01*
X81623828Y-126171607D01*
X81550760Y-126249369D01*
X81476132Y-126334003D01*
X81402009Y-126423253D01*
X81330458Y-126514866D01*
X81307653Y-126544569D01*
X81267210Y-126595278D01*
X81226121Y-126644624D01*
X81185914Y-126690945D01*
X81148116Y-126732575D01*
X81114252Y-126767850D01*
X81085849Y-126795107D01*
X81064435Y-126812682D01*
X81051535Y-126818910D01*
X81048979Y-126819618D01*
X81044297Y-126829182D01*
X81044052Y-126830585D01*
X81035181Y-126841372D01*
X81017591Y-126852843D01*
X81006302Y-126858589D01*
X80981065Y-126871483D01*
X80946544Y-126889150D01*
X80905742Y-126910052D01*
X80861661Y-126932653D01*
X80807468Y-126959954D01*
X80751952Y-126986152D01*
X80704640Y-127005732D01*
X80662321Y-127019728D01*
X80621782Y-127029176D01*
X80579814Y-127035111D01*
X80533205Y-127038569D01*
X80505445Y-127039666D01*
X80472501Y-127039833D01*
X80439255Y-127038393D01*
X80403986Y-127035023D01*
X80364971Y-127029401D01*
X80320487Y-127021202D01*
X80268813Y-127010104D01*
X80208225Y-126995784D01*
X80137001Y-126977919D01*
X80053420Y-126956186D01*
X79955758Y-126930262D01*
X79905472Y-126917863D01*
X79847528Y-126906812D01*
X79800580Y-126901962D01*
X79765986Y-126903436D01*
X79745101Y-126911356D01*
X79727903Y-126929107D01*
X79701890Y-126963666D01*
X79669427Y-127013142D01*
X79630570Y-127077455D01*
X79623692Y-127089064D01*
X79595964Y-127132676D01*
X79567328Y-127171445D01*
X79533820Y-127210422D01*
X79491475Y-127254657D01*
X79481295Y-127264869D01*
X79434669Y-127309267D01*
X79394569Y-127342244D01*
X79358273Y-127365292D01*
X79323061Y-127379902D01*
X79286210Y-127387566D01*
X79245000Y-127389777D01*
X79210759Y-127388784D01*
X79183416Y-127384685D01*
X79156105Y-127375778D01*
X79121692Y-127360362D01*
X79121210Y-127360131D01*
X79083607Y-127340669D01*
X79044203Y-127317938D01*
X79011449Y-127296811D01*
X79008976Y-127295079D01*
X78984722Y-127278675D01*
X78966062Y-127267059D01*
X78956859Y-127262650D01*
X78952883Y-127268978D01*
X78947378Y-127287523D01*
X78941867Y-127314009D01*
X78928988Y-127364372D01*
X78907082Y-127416828D01*
X78879312Y-127462087D01*
X78848054Y-127495547D01*
X78819293Y-127515529D01*
X78777581Y-127535154D01*
X78737253Y-127544448D01*
X78702598Y-127542040D01*
X78677794Y-127535918D01*
X78650913Y-127533890D01*
X78626427Y-127539928D01*
X78599798Y-127555347D01*
X78566487Y-127581461D01*
X78557702Y-127588727D01*
X78527489Y-127612743D01*
X78499459Y-127633738D01*
X78478731Y-127647839D01*
X78471148Y-127652630D01*
X78452270Y-127666182D01*
X78441752Y-127676213D01*
X78434800Y-127681919D01*
X78415544Y-127693848D01*
X78387514Y-127709486D01*
X78353998Y-127726933D01*
X78328945Y-127740149D01*
X78292717Y-127761188D01*
X78261843Y-127781291D01*
X78241104Y-127797473D01*
X78213377Y-127830559D01*
X78184123Y-127881850D01*
X78156779Y-127947486D01*
X78131731Y-128026389D01*
X78109363Y-128117484D01*
X78090062Y-128219693D01*
X78086955Y-128238936D01*
X78077118Y-128306905D01*
X78071602Y-128359672D01*
X78070386Y-128397755D01*
X77750157Y-128397755D01*
X77749906Y-128370609D01*
X77749875Y-128320602D01*
X77750344Y-128268823D01*
X77751616Y-128227128D01*
X77753943Y-128191962D01*
X77757577Y-128159769D01*
X77762770Y-128126994D01*
X77769773Y-128090079D01*
X77773161Y-128073340D01*
X77801467Y-127952828D01*
X77833961Y-127846990D01*
X77871191Y-127754615D01*
X77913709Y-127674492D01*
X77962064Y-127605407D01*
X78016808Y-127546150D01*
X78025681Y-127537779D01*
X78040930Y-127523591D01*
X78054112Y-127512267D01*
X78067965Y-127502000D01*
X78085231Y-127490986D01*
X78108650Y-127477420D01*
X78140962Y-127459496D01*
X78184908Y-127435408D01*
X78225752Y-127411941D01*
X78283324Y-127375193D01*
X78335473Y-127337665D01*
X78378956Y-127301738D01*
X78410529Y-127269793D01*
X78413641Y-127266209D01*
X78428407Y-127251981D01*
X78438708Y-127246215D01*
X78442918Y-127245178D01*
X78453619Y-127235524D01*
X78454129Y-127234794D01*
X78467358Y-127225716D01*
X78491037Y-127215679D01*
X78519914Y-127206392D01*
X78548735Y-127199566D01*
X78572245Y-127196911D01*
X78573948Y-127196900D01*
X78586791Y-127195277D01*
X78596484Y-127188924D01*
X78604774Y-127175030D01*
X78613407Y-127150780D01*
X78624130Y-127113363D01*
X78645078Y-127063677D01*
X78679012Y-127015529D01*
X78722142Y-126973820D01*
X78770875Y-126942725D01*
X78800801Y-126929553D01*
X78872226Y-126909181D01*
X78943151Y-126904906D01*
X79014110Y-126916792D01*
X79085636Y-126944904D01*
X79158260Y-126989305D01*
X79179421Y-127003450D01*
X79213578Y-127020079D01*
X79240949Y-127023504D01*
X79263007Y-127014073D01*
X79267114Y-127010225D01*
X79282144Y-126991993D01*
X79301785Y-126964577D01*
X79323562Y-126931665D01*
X79345000Y-126896945D01*
X79363626Y-126864106D01*
X79371324Y-126849885D01*
X79389843Y-126816605D01*
X79406715Y-126787302D01*
X79420023Y-126768373D01*
X79440594Y-126743270D01*
X79465842Y-126714716D01*
X79493217Y-126685377D01*
X79520171Y-126657918D01*
X79544154Y-126635004D01*
X79562615Y-126619301D01*
X79573004Y-126613475D01*
X79576358Y-126612965D01*
X79592751Y-126607214D01*
X79614571Y-126597124D01*
X79630507Y-126590298D01*
X79668821Y-126578831D01*
X79714943Y-126569115D01*
X79763340Y-126562056D01*
X79808478Y-126558556D01*
X79844823Y-126559519D01*
X79860089Y-126561761D01*
X79897443Y-126568965D01*
X79946872Y-126579925D01*
X80006044Y-126594078D01*
X80072630Y-126610857D01*
X80144297Y-126629699D01*
X80218715Y-126650040D01*
X80247705Y-126658056D01*
X80300819Y-126672161D01*
X80343580Y-126682291D01*
X80379639Y-126689074D01*
X80412649Y-126693136D01*
X80446262Y-126695106D01*
X80484131Y-126695609D01*
X80497151Y-126695580D01*
X80530240Y-126694836D01*
X80555845Y-126692128D01*
X80579552Y-126686192D01*
X80606949Y-126675767D01*
X80643623Y-126659593D01*
X80664258Y-126650005D01*
X80711589Y-126626642D01*
X80761090Y-126600780D01*
X80804906Y-126576469D01*
X80805198Y-126576300D01*
X80847847Y-126550297D01*
X80880772Y-126526455D01*
X80909305Y-126500451D01*
X80938782Y-126467961D01*
X80951389Y-126452982D01*
X80974384Y-126424590D01*
X80992790Y-126400495D01*
X81003478Y-126384722D01*
X81014777Y-126367876D01*
X81026076Y-126356273D01*
X81030151Y-126352681D01*
X81036347Y-126337783D01*
X81037420Y-126332455D01*
X81046619Y-126325463D01*
X81053395Y-126321081D01*
X81068580Y-126305926D01*
X81089085Y-126282520D01*
X81112441Y-126253560D01*
X81116600Y-126248218D01*
X81140929Y-126217249D01*
X81168789Y-126182151D01*
X81197894Y-126145764D01*
X81225960Y-126110924D01*
X81250702Y-126080471D01*
X81269834Y-126057244D01*
X81281071Y-126044081D01*
X81286236Y-126038494D01*
X81311308Y-126012725D01*
X81344829Y-125979651D01*
X81384281Y-125941625D01*
X81427144Y-125901007D01*
X81470901Y-125860150D01*
X81513033Y-125821412D01*
X81551022Y-125787149D01*
X81582350Y-125759717D01*
X81604498Y-125741472D01*
X81703221Y-125670161D01*
X81797756Y-125611962D01*
X81887706Y-125567599D01*
X81974290Y-125536555D01*
X82058725Y-125518309D01*
X82142232Y-125512342D01*
X82183881Y-125515751D01*
G37*
D13*
%TO.C,J7*%
X100390000Y-143040000D02*
X100390000Y-141890000D01*
X100390000Y-141890000D02*
X101440000Y-141890000D01*
X101440000Y-141890000D02*
X101440000Y-140900000D01*
X101560000Y-145010000D02*
X105440000Y-145010000D01*
X106610000Y-143040000D02*
X106610000Y-141890000D01*
X106610000Y-141890000D02*
X105560000Y-141890000D01*
%TD*%
%LPC*%
%TO.C,U4*%
X133180000Y-81610000D02*
X133180000Y-63610000D01*
%TD*%
D20*
%TO.C,U4*%
X116570000Y-72710000D03*
X117970000Y-72710000D03*
X119370000Y-72710000D03*
X116570000Y-74110000D03*
X117970000Y-74110000D03*
X119370000Y-74110000D03*
X116570000Y-75510000D03*
X117970000Y-75510000D03*
X119370000Y-75510000D03*
D21*
X125690000Y-63860000D03*
X124420000Y-63860000D03*
X123150000Y-63860000D03*
X121880000Y-63860000D03*
X120610000Y-63860000D03*
X119340000Y-63860000D03*
X118070000Y-63860000D03*
X116800000Y-63860000D03*
X115530000Y-63860000D03*
X114260000Y-63860000D03*
X112990000Y-63860000D03*
X111720000Y-63860000D03*
X110450000Y-63860000D03*
X109180000Y-63860000D03*
D22*
X107930000Y-65625000D03*
X107930000Y-66895000D03*
X107930000Y-68165000D03*
X107930000Y-69435000D03*
X107930000Y-70705000D03*
X107930000Y-71975000D03*
X107930000Y-73245000D03*
X107930000Y-74515000D03*
X107930000Y-75785000D03*
X107930000Y-77055000D03*
X107930000Y-78325000D03*
X107930000Y-79595000D03*
D21*
X109180000Y-81360000D03*
X110450000Y-81360000D03*
X111720000Y-81360000D03*
X112990000Y-81360000D03*
X114260000Y-81360000D03*
X115530000Y-81360000D03*
X116800000Y-81360000D03*
X118070000Y-81360000D03*
X119340000Y-81360000D03*
X120610000Y-81360000D03*
X121880000Y-81360000D03*
X123150000Y-81360000D03*
X124420000Y-81360000D03*
X125690000Y-81360000D03*
%TD*%
D23*
%TO.C,FID5*%
X125270000Y-50310000D03*
%TD*%
%TO.C,FID6*%
X78750000Y-55900000D03*
%TD*%
%TO.C,FID7*%
X132260000Y-139060000D03*
%TD*%
%TO.C,FID8*%
X78850000Y-139070000D03*
%TD*%
D24*
%TO.C,H5*%
X126060000Y-136360000D03*
%TD*%
%TO.C,H6*%
X84710000Y-94910000D03*
%TD*%
%TO.C,H7*%
X126060000Y-94910000D03*
%TD*%
%TO.C,H8*%
X84710000Y-136360000D03*
%TD*%
D25*
%TO.C,J1*%
X86830000Y-66620000D03*
D26*
X82330000Y-66620000D03*
D27*
X88530000Y-72120000D03*
X82330000Y-72120000D03*
X82330000Y-61120000D03*
X88530000Y-61120000D03*
%TD*%
D28*
%TO.C,J2*%
X130670000Y-57730000D03*
X125590000Y-56714000D03*
X125590000Y-58746000D03*
D29*
X129400000Y-58365000D03*
X129400000Y-57095000D03*
X128130000Y-58365000D03*
X128130000Y-57095000D03*
X126860000Y-58365000D03*
X126860000Y-57095000D03*
%TD*%
D30*
%TO.C,J5*%
X83470000Y-86150000D03*
X83470000Y-80370000D03*
D31*
X84545000Y-86460000D03*
X84545000Y-85660000D03*
D32*
X84545000Y-84510000D03*
X84545000Y-83510000D03*
X84545000Y-83010000D03*
X84545000Y-82010000D03*
D31*
X84545000Y-80060000D03*
X84545000Y-80860000D03*
D32*
X84545000Y-81510000D03*
X84545000Y-82510000D03*
X84545000Y-84010000D03*
X84545000Y-85010000D03*
D33*
X83970000Y-87580000D03*
D34*
X79790000Y-87580000D03*
D33*
X83970000Y-78940000D03*
D34*
X79790000Y-78940000D03*
%TD*%
D35*
%TO.C,J6*%
X94701000Y-145782001D03*
D36*
X89621000Y-143622000D03*
X92161000Y-143622000D03*
X94701000Y-143622000D03*
X97241000Y-143622000D03*
%TD*%
D37*
%TO.C,U2*%
X92180000Y-78870000D03*
X93580000Y-78870000D03*
X94980000Y-78870000D03*
X91180000Y-77590000D03*
X92180000Y-77590000D03*
X93580000Y-77590000D03*
X94980000Y-77590000D03*
X95980000Y-77590000D03*
X92180000Y-76310000D03*
X93580000Y-76310000D03*
X94980000Y-76310000D03*
%TD*%
D38*
%TO.C,H1*%
X127985010Y-51120990D03*
X128644020Y-49530000D03*
X128644020Y-52711980D03*
X130235010Y-48870990D03*
D39*
X130235010Y-51120990D03*
D38*
X130235010Y-53370990D03*
X131826000Y-49530000D03*
X131826000Y-52711980D03*
X132485010Y-51120990D03*
%TD*%
%TO.C,H3*%
X128052000Y-143728000D03*
X128711010Y-142137010D03*
X128711010Y-145318990D03*
X130302000Y-141478000D03*
D39*
X130302000Y-143728000D03*
D38*
X130302000Y-145978000D03*
X131892990Y-142137010D03*
X131892990Y-145318990D03*
X132552000Y-143728000D03*
%TD*%
D40*
%TO.C,J4*%
X99171505Y-51054000D03*
D41*
X101711505Y-51054000D03*
X104251505Y-51054000D03*
X106791505Y-51054000D03*
X109331505Y-51054000D03*
X111871505Y-51054000D03*
%TD*%
D38*
%TO.C,H4*%
X78455010Y-143830990D03*
X79114020Y-142240000D03*
X79114020Y-145421980D03*
X80705010Y-141580990D03*
D39*
X80705010Y-143830990D03*
D38*
X80705010Y-146080990D03*
X82296000Y-142240000D03*
X82296000Y-145421980D03*
X82955010Y-143830990D03*
%TD*%
%TO.C,H2*%
X78558000Y-51054000D03*
X79217010Y-49463010D03*
X79217010Y-52644990D03*
X80808000Y-48804000D03*
D39*
X80808000Y-51054000D03*
D38*
X80808000Y-53304000D03*
X82398990Y-49463010D03*
X82398990Y-52644990D03*
X83058000Y-51054000D03*
%TD*%
D41*
%TO.C,J3*%
X87005000Y-50292000D03*
D42*
X87405000Y-52832000D03*
X87005000Y-55372000D03*
X87405000Y-57912000D03*
%TD*%
D43*
%TO.C,U8*%
X109508562Y-113009000D03*
X109508562Y-113795000D03*
X109508562Y-114581000D03*
X109508562Y-115367000D03*
X109508562Y-116153000D03*
X109508562Y-116939000D03*
X109508562Y-117725000D03*
X109508562Y-118511000D03*
X109508562Y-119297000D03*
X109508562Y-120083000D03*
X101712562Y-120083000D03*
X101712562Y-119297000D03*
X101712562Y-118511000D03*
X101712562Y-117725000D03*
X101712562Y-116939000D03*
X101712562Y-116153000D03*
X101712562Y-115367000D03*
X101712562Y-114581000D03*
X101712562Y-113795000D03*
X101712562Y-113009000D03*
D37*
X108510562Y-112846000D03*
X108510562Y-113426000D03*
X107110562Y-115268511D03*
X107110562Y-117221000D03*
X106360562Y-114546000D03*
X106360562Y-115274627D03*
X106360562Y-116246000D03*
X106360562Y-117221000D03*
X106360562Y-117946000D03*
X105960562Y-112846000D03*
X105960562Y-113426000D03*
D44*
X105610562Y-113146000D03*
D45*
X105610562Y-116232230D03*
D37*
X105260562Y-112846000D03*
X105260562Y-113426000D03*
X104860562Y-114546000D03*
X104860562Y-115274627D03*
X104860562Y-116246000D03*
X104860562Y-117221000D03*
X104860562Y-117946000D03*
X104110562Y-115274627D03*
X104110562Y-117221000D03*
X102710562Y-112846000D03*
X102710562Y-113426000D03*
X108560562Y-116546000D03*
X108560562Y-119266000D03*
X108560562Y-120346000D03*
D46*
X108521562Y-116640000D03*
D37*
X105610562Y-119266000D03*
D47*
X105610562Y-119806000D03*
D37*
X105610562Y-120346000D03*
D46*
X102699562Y-116640000D03*
D37*
X102660562Y-116546000D03*
X102660562Y-119266000D03*
X102660562Y-120346000D03*
%TD*%
D48*
%TO.C,SW1*%
X132246000Y-104448000D03*
X128136000Y-104448000D03*
%TD*%
%TO.C,SW2*%
X132142000Y-113155000D03*
X128032000Y-113155000D03*
%TD*%
D49*
%TO.C,J7*%
X102000000Y-141675000D03*
X103000000Y-141675000D03*
X104000000Y-141675000D03*
X105000000Y-141675000D03*
D50*
X100700000Y-144200000D03*
X106300000Y-144200000D03*
%TD*%
%LPD*%
M02*
